M48
METRIC,LZ,000.000
;FILE_FORMAT=3:3
;TYPE=PLATED
;Layer: PTH_Through_Via
;EasyEDA v6.5.47, 2024-10-31 16:23:14
;d01961b007cd42f0ad862483726119fd,f99730456eb041dfa0a19156df6b2b6d,10
;Gerber Generator version 0.2
;Holesize 1 = 0.310 mm
T01C0.310
%
G05
G90
T01
X016764Y-020447
X015240Y-021463
X006350Y-012827
X005969Y-010541
X021463Y-018796
X020066Y-016129
X019177Y-017780
X022987Y-023495
X010160Y-014986
X010160Y-024511
X011049Y-013843
X011049Y-023622
X043815Y-006350
X045085Y-001905
X054356Y-023622
X056642Y-019558
X044831Y-025400
X027432Y-006096
X011557Y-007620
X049022Y-019304
X035814Y-018542
X028321Y-005715
X011430Y-005461
X038989Y-007874
X038735Y-013589
X039624Y-013970
X039624Y-009398
X047879Y-005207
X048641Y-005207
X048514Y-017653
X044577Y-017145
X034544Y-016168
X034036Y-020574
X045974Y-010795
X046482Y-011303
X035687Y-015621
X030353Y-024765
X030988Y-024765
X028702Y-018542
X024257Y-020574
X017653Y-019177
X014859Y-020574
X009271Y-023241
X009144Y-018669
X006985Y-017018
X006985Y-023749
X007112Y-014605
X007747Y-014605
X001524Y-014859
X001016Y-011684
X001143Y-009906
X001016Y-006350
X016637Y-009652
X017780Y-009652
X018796Y-009652
X026924Y-019431
X014732Y-004191
X018796Y-004191
X019939Y-009779
X023495Y-011303
X023622Y-016383
X013462Y-028448
X006223Y-004445
X006223Y-001905
X020574Y-014351
X022733Y-019812
X021463Y-021971
X021463Y-026543
X028575Y-014605
X030861Y-016891
X032004Y-028067
X031369Y-030861
X022225Y-031242
X030734Y-022098
X030861Y-018161
X027305Y-013208
X027305Y-004064
X015621Y-002667
X010033Y-009017
X009525Y-012192
X010795Y-004064
X027813Y-004826
X031242Y-004826
X034417Y-005461
X016637Y-001524
X020574Y-004191
X021590Y-008128
X020828Y-006223
X023495Y-006223
X012827Y-006223
X016129Y-003429
X004318Y-028448
X040894Y-030607
X031242Y-023622
X032893Y-025527
X033274Y-023114
X042549Y-022124
X049530Y-022352
M30
