G04 Layer: TopPasteMaskLayer*
G04 EasyEDA v6.5.47, 2024-10-31 16:23:14*
G04 d01961b007cd42f0ad862483726119fd,f99730456eb041dfa0a19156df6b2b6d,10*
G04 Gerber Generator version 0.2*
G04 Scale: 100 percent, Rotated: No, Reflected: No *
G04 Dimensions in millimeters *
G04 leading zeros omitted , absolute positions ,4 integer and 5 decimal *
%FSLAX45Y45*%
%MOMM*%

%AMMACRO1*21,1,$1,$2,0,0,$3*%
%AMMACRO2*4,1,20,1.2641,-1.2243,-0.6638,-1.2243,-0.6638,-1.176,-1.2641,-1.176,-1.2641,-0.7747,-0.6638,-0.7747,-0.6638,-0.5258,-1.2641,-0.5258,-1.2641,-0.1245,-0.6638,-0.1245,-0.6638,0.1245,-1.2641,0.1245,-1.2641,0.5258,-0.6638,0.5258,-0.6638,0.7747,-1.2641,0.7747,-1.2641,1.176,-0.6638,1.176,-0.6638,1.2243,1.2641,1.2243,1.2641,-1.2243,0*%
%ADD10R,0.9000X0.8000*%
%ADD11R,0.8000X0.9000*%
%ADD12R,1.0000X0.7500*%
%ADD13R,1.0720X0.5320*%
%ADD14MACRO1,3.24X2.1575X90.0000*%
%ADD15R,2.1575X3.2400*%
%ADD16R,1.0000X3.5000*%
%ADD17R,1.5000X3.5000*%
%ADD18R,4.1000X4.0500*%
%ADD19R,1.2500X0.7000*%
%ADD20R,0.8000X1.7000*%
%ADD21R,0.7500X0.3500*%
%ADD22MACRO2*%
%ADD23R,2.0000X1.0000*%
%ADD24R,0.7000X0.7000*%
%ADD25MACRO1,1.1989X1.8009X0.0000*%
%ADD26MACRO1,0.5994X1.5494X0.0000*%
%ADD27MACRO1,0.602X1.5494X0.0000*%
%ADD28MACRO1,1.2014X1.8009X0.0000*%
%ADD29R,3.3000X2.3000*%
%ADD30O,0.6999986X2.1999956000000003*%
%ADD31R,0.6000X1.1000*%
%ADD32R,1.5240X1.5240*%
%ADD33MACRO1,1X1.3995X90.0000*%
%ADD34R,1.3995X1.0000*%
%ADD35R,2.0000X3.0000*%
%ADD36R,3.0000X2.0000*%
%ADD37R,0.0155X2.0000*%

%LPD*%
G36*
X4041190Y-1694281D02*
G01*
X4036212Y-1699310D01*
X4036212Y-1827275D01*
X4041190Y-1832305D01*
X4156201Y-1832305D01*
X4161180Y-1827275D01*
X4160723Y-1785315D01*
X4116679Y-1785315D01*
X4116679Y-1740306D01*
X4161688Y-1740306D01*
X4161180Y-1699310D01*
X4156201Y-1694281D01*
G37*
G36*
X4256176Y-1694281D02*
G01*
X4251198Y-1699310D01*
X4251706Y-1740306D01*
X4295698Y-1740306D01*
X4295698Y-1785315D01*
X4251198Y-1785315D01*
X4251198Y-1827275D01*
X4256176Y-1832305D01*
X4371187Y-1832305D01*
X4376216Y-1827275D01*
X4376216Y-1699310D01*
X4371187Y-1694281D01*
G37*
G36*
X5378196Y-294589D02*
G01*
X5368188Y-304596D01*
X5368188Y-341630D01*
X5378196Y-351637D01*
X5408676Y-351637D01*
X5418683Y-361645D01*
X5418683Y-400354D01*
X5408676Y-410362D01*
X5378196Y-410362D01*
X5368188Y-420370D01*
X5368188Y-457403D01*
X5378196Y-467410D01*
X5506720Y-467410D01*
X5516676Y-457403D01*
X5516676Y-304596D01*
X5506720Y-294589D01*
G37*
G36*
X5059680Y-294589D02*
G01*
X5049723Y-304596D01*
X5049723Y-457403D01*
X5059680Y-467410D01*
X5188204Y-467410D01*
X5198211Y-457403D01*
X5198211Y-420370D01*
X5188204Y-410362D01*
X5157724Y-410362D01*
X5147716Y-400354D01*
X5147716Y-361645D01*
X5157724Y-351637D01*
X5188204Y-351637D01*
X5198211Y-341630D01*
X5198211Y-304596D01*
X5188204Y-294589D01*
G37*
G36*
X4920996Y-1564589D02*
G01*
X4910988Y-1574596D01*
X4910988Y-1611630D01*
X4920996Y-1621637D01*
X4951476Y-1621637D01*
X4961483Y-1631645D01*
X4961483Y-1670354D01*
X4951476Y-1680362D01*
X4920996Y-1680362D01*
X4910988Y-1690370D01*
X4910988Y-1727403D01*
X4920996Y-1737410D01*
X5049520Y-1737410D01*
X5059476Y-1727403D01*
X5059476Y-1574596D01*
X5049520Y-1564589D01*
G37*
G36*
X4602480Y-1564589D02*
G01*
X4592523Y-1574596D01*
X4592523Y-1727403D01*
X4602480Y-1737410D01*
X4731004Y-1737410D01*
X4741011Y-1727403D01*
X4741011Y-1690370D01*
X4731004Y-1680362D01*
X4700524Y-1680362D01*
X4690516Y-1670354D01*
X4690516Y-1631645D01*
X4700524Y-1621637D01*
X4731004Y-1621637D01*
X4741011Y-1611630D01*
X4741011Y-1574596D01*
X4731004Y-1564589D01*
G37*
G36*
X548132Y-1854707D02*
G01*
X548132Y-1884680D01*
X663143Y-1884680D01*
X663143Y-1854707D01*
G37*
G36*
X548132Y-2154682D02*
G01*
X548132Y-2184654D01*
X663143Y-2184654D01*
X663143Y-2154682D01*
G37*
G36*
X548030Y-1694688D02*
G01*
X548030Y-1754682D01*
X663041Y-1754682D01*
X663041Y-1694688D01*
G37*
G36*
X548030Y-2054707D02*
G01*
X548030Y-2084679D01*
X663041Y-2084679D01*
X663041Y-2054707D01*
G37*
G36*
X548030Y-2104694D02*
G01*
X548030Y-2134717D01*
X663041Y-2134717D01*
X663041Y-2104694D01*
G37*
G36*
X548030Y-2004720D02*
G01*
X548030Y-2034692D01*
X663041Y-2034692D01*
X663041Y-2004720D01*
G37*
G36*
X548030Y-2204720D02*
G01*
X548030Y-2234692D01*
X663041Y-2234692D01*
X663041Y-2204720D01*
G37*
G36*
X548030Y-1954682D02*
G01*
X548030Y-1984705D01*
X663041Y-1984705D01*
X663041Y-1954682D01*
G37*
G36*
X548030Y-2334717D02*
G01*
X548030Y-2394712D01*
X663041Y-2394712D01*
X663041Y-2334717D01*
G37*
G36*
X548030Y-1774698D02*
G01*
X548030Y-1834692D01*
X663041Y-1834692D01*
X663041Y-1774698D01*
G37*
G36*
X548030Y-1904695D02*
G01*
X548030Y-1934718D01*
X663041Y-1934718D01*
X663041Y-1904695D01*
G37*
G36*
X499008Y-1557680D02*
G01*
X493522Y-1557985D01*
X488086Y-1558798D01*
X482803Y-1560118D01*
X477621Y-1561998D01*
X472693Y-1564386D01*
X468020Y-1567230D01*
X463651Y-1570583D01*
X459638Y-1574292D01*
X455980Y-1578406D01*
X452780Y-1582877D01*
X450037Y-1587601D01*
X447801Y-1592580D01*
X446074Y-1597812D01*
X444804Y-1603146D01*
X444144Y-1608582D01*
X443992Y-1614068D01*
X444398Y-1619554D01*
X445363Y-1624939D01*
X446836Y-1630222D01*
X448868Y-1635302D01*
X451358Y-1640179D01*
X454355Y-1644802D01*
X457758Y-1649069D01*
X461568Y-1653032D01*
X465785Y-1656537D01*
X470306Y-1659636D01*
X475132Y-1662277D01*
X480161Y-1664360D01*
X485444Y-1665986D01*
X490778Y-1667103D01*
X496265Y-1667611D01*
X598982Y-1667713D01*
X604469Y-1667408D01*
X609904Y-1666595D01*
X615188Y-1665274D01*
X620369Y-1663395D01*
X625297Y-1661007D01*
X629970Y-1658162D01*
X634339Y-1654810D01*
X638352Y-1651101D01*
X642010Y-1646986D01*
X645210Y-1642516D01*
X647954Y-1637792D01*
X650189Y-1632813D01*
X651916Y-1627581D01*
X653186Y-1622247D01*
X653846Y-1616811D01*
X653999Y-1611325D01*
X653592Y-1605838D01*
X652627Y-1600454D01*
X651154Y-1595170D01*
X649122Y-1590090D01*
X646633Y-1585214D01*
X643636Y-1580591D01*
X640232Y-1576324D01*
X636422Y-1572361D01*
X632206Y-1568856D01*
X627684Y-1565757D01*
X622858Y-1563166D01*
X617829Y-1561033D01*
X612546Y-1559407D01*
X607212Y-1558290D01*
X601726Y-1557782D01*
G37*
G36*
X499008Y-2421686D02*
G01*
X493522Y-2421991D01*
X488086Y-2422804D01*
X482803Y-2424125D01*
X477621Y-2426004D01*
X472693Y-2428392D01*
X468020Y-2431237D01*
X463651Y-2434590D01*
X459638Y-2438298D01*
X455980Y-2442413D01*
X452780Y-2446883D01*
X450037Y-2451608D01*
X447801Y-2456586D01*
X446074Y-2461818D01*
X444804Y-2467152D01*
X444144Y-2472588D01*
X443992Y-2478074D01*
X444398Y-2483561D01*
X445363Y-2488946D01*
X446836Y-2494229D01*
X448868Y-2499309D01*
X451358Y-2504186D01*
X454355Y-2508808D01*
X457758Y-2513076D01*
X461568Y-2517038D01*
X465785Y-2520543D01*
X470306Y-2523642D01*
X475132Y-2526233D01*
X480161Y-2528366D01*
X485444Y-2529992D01*
X490778Y-2531110D01*
X496265Y-2531618D01*
X598982Y-2531719D01*
X604469Y-2531414D01*
X609904Y-2530602D01*
X615188Y-2529281D01*
X620369Y-2527401D01*
X625297Y-2525014D01*
X629970Y-2522169D01*
X634339Y-2518816D01*
X638352Y-2515108D01*
X642010Y-2510993D01*
X645210Y-2506522D01*
X647954Y-2501798D01*
X650189Y-2496820D01*
X651916Y-2491587D01*
X653186Y-2486253D01*
X653846Y-2480818D01*
X653999Y-2475331D01*
X653592Y-2469845D01*
X652627Y-2464460D01*
X651154Y-2459177D01*
X649122Y-2454097D01*
X646633Y-2449220D01*
X643636Y-2444597D01*
X640232Y-2440330D01*
X636422Y-2436368D01*
X632206Y-2432862D01*
X627684Y-2429764D01*
X622858Y-2427122D01*
X617829Y-2425039D01*
X612546Y-2423414D01*
X607212Y-2422296D01*
X601726Y-2421788D01*
G37*
G36*
X95961Y-1557680D02*
G01*
X90525Y-1557985D01*
X85090Y-1558798D01*
X79756Y-1560118D01*
X74625Y-1561998D01*
X69697Y-1564386D01*
X65024Y-1567230D01*
X60655Y-1570583D01*
X56591Y-1574292D01*
X52984Y-1578406D01*
X49784Y-1582877D01*
X47040Y-1587601D01*
X44805Y-1592580D01*
X43027Y-1597812D01*
X41808Y-1603146D01*
X41148Y-1608582D01*
X40995Y-1614068D01*
X41402Y-1619554D01*
X42367Y-1624939D01*
X43840Y-1630222D01*
X45872Y-1635302D01*
X48361Y-1640179D01*
X51308Y-1644802D01*
X54762Y-1649069D01*
X58572Y-1653032D01*
X62788Y-1656537D01*
X67310Y-1659636D01*
X72136Y-1662277D01*
X77165Y-1664360D01*
X82397Y-1665986D01*
X87782Y-1667103D01*
X93268Y-1667611D01*
X165963Y-1667713D01*
X171450Y-1667408D01*
X176885Y-1666595D01*
X182219Y-1665274D01*
X187350Y-1663395D01*
X192278Y-1661007D01*
X196951Y-1658162D01*
X201320Y-1654810D01*
X205384Y-1651101D01*
X208991Y-1646986D01*
X212191Y-1642516D01*
X214934Y-1637792D01*
X217170Y-1632813D01*
X218948Y-1627581D01*
X220167Y-1622247D01*
X220827Y-1616811D01*
X220979Y-1611325D01*
X220573Y-1605838D01*
X219608Y-1600454D01*
X218135Y-1595170D01*
X216103Y-1590090D01*
X213614Y-1585214D01*
X210667Y-1580591D01*
X207213Y-1576324D01*
X203403Y-1572361D01*
X199186Y-1568856D01*
X194665Y-1565757D01*
X189839Y-1563166D01*
X184810Y-1561033D01*
X179578Y-1559407D01*
X174193Y-1558290D01*
X168706Y-1557782D01*
G37*
G36*
X95961Y-2421686D02*
G01*
X90525Y-2421991D01*
X85090Y-2422804D01*
X79756Y-2424125D01*
X74625Y-2426004D01*
X69697Y-2428392D01*
X65024Y-2431237D01*
X60655Y-2434590D01*
X56591Y-2438298D01*
X52984Y-2442413D01*
X49784Y-2446883D01*
X47040Y-2451608D01*
X44805Y-2456586D01*
X43027Y-2461818D01*
X41808Y-2467152D01*
X41148Y-2472588D01*
X40995Y-2478074D01*
X41402Y-2483561D01*
X42367Y-2488946D01*
X43840Y-2494229D01*
X45872Y-2499309D01*
X48361Y-2504186D01*
X51308Y-2508808D01*
X54762Y-2513076D01*
X58572Y-2517038D01*
X62788Y-2520543D01*
X67310Y-2523642D01*
X72136Y-2526233D01*
X77165Y-2528366D01*
X82397Y-2529992D01*
X87782Y-2531110D01*
X93268Y-2531618D01*
X165963Y-2531719D01*
X171450Y-2531414D01*
X176885Y-2530602D01*
X182219Y-2529281D01*
X187350Y-2527401D01*
X192278Y-2525014D01*
X196951Y-2522169D01*
X201320Y-2518816D01*
X205384Y-2515108D01*
X208991Y-2510993D01*
X212191Y-2506522D01*
X214934Y-2501798D01*
X217170Y-2496820D01*
X218948Y-2491587D01*
X220167Y-2486253D01*
X220827Y-2480818D01*
X220979Y-2475331D01*
X220573Y-2469845D01*
X219608Y-2464460D01*
X218135Y-2459177D01*
X216103Y-2454097D01*
X213614Y-2449220D01*
X210667Y-2444597D01*
X207213Y-2440330D01*
X203403Y-2436368D01*
X199186Y-2432862D01*
X194665Y-2429764D01*
X189839Y-2427122D01*
X184810Y-2425039D01*
X179578Y-2423414D01*
X174193Y-2422296D01*
X168706Y-2421788D01*
G37*
G36*
X548030Y-2254707D02*
G01*
X548030Y-2314702D01*
X663041Y-2314702D01*
X663041Y-2254707D01*
G37*
G36*
X744118Y-2685491D02*
G01*
X739089Y-2690520D01*
X739089Y-2770479D01*
X744118Y-2775508D01*
X824077Y-2775508D01*
X829106Y-2770479D01*
X829106Y-2747721D01*
X792073Y-2747721D01*
X792073Y-2714701D01*
X829106Y-2714701D01*
X829106Y-2690520D01*
X824077Y-2685491D01*
G37*
G36*
X903122Y-2685491D02*
G01*
X898093Y-2690520D01*
X898093Y-2713278D01*
X935126Y-2713278D01*
X935126Y-2746298D01*
X898093Y-2746298D01*
X898093Y-2770479D01*
X903122Y-2775508D01*
X983081Y-2775508D01*
X988110Y-2770479D01*
X988110Y-2690520D01*
X983081Y-2685491D01*
G37*
G36*
X744118Y-2520391D02*
G01*
X739089Y-2525420D01*
X739089Y-2605379D01*
X744118Y-2610408D01*
X824077Y-2610408D01*
X829106Y-2605379D01*
X829106Y-2582621D01*
X792073Y-2582621D01*
X792073Y-2549601D01*
X829106Y-2549601D01*
X829106Y-2525420D01*
X824077Y-2520391D01*
G37*
G36*
X903122Y-2520391D02*
G01*
X898093Y-2525420D01*
X898093Y-2548178D01*
X935126Y-2548178D01*
X935126Y-2581198D01*
X898093Y-2581198D01*
X898093Y-2605379D01*
X903122Y-2610408D01*
X983081Y-2610408D01*
X988110Y-2605379D01*
X988110Y-2525420D01*
X983081Y-2520391D01*
G37*
G36*
X756818Y-2164791D02*
G01*
X751789Y-2169820D01*
X751789Y-2249779D01*
X756818Y-2254808D01*
X836777Y-2254808D01*
X841806Y-2249779D01*
X841806Y-2227021D01*
X804773Y-2227021D01*
X804773Y-2194001D01*
X841806Y-2194001D01*
X841806Y-2169820D01*
X836777Y-2164791D01*
G37*
G36*
X915822Y-2164791D02*
G01*
X910793Y-2169820D01*
X910793Y-2192578D01*
X947826Y-2192578D01*
X947826Y-2225598D01*
X910793Y-2225598D01*
X910793Y-2249779D01*
X915822Y-2254808D01*
X995781Y-2254808D01*
X1000810Y-2249779D01*
X1000810Y-2169820D01*
X995781Y-2164791D01*
G37*
G36*
X915822Y-1872691D02*
G01*
X910793Y-1877720D01*
X910793Y-1900478D01*
X947826Y-1900478D01*
X947826Y-1933498D01*
X910793Y-1933498D01*
X910793Y-1957679D01*
X915822Y-1962708D01*
X995781Y-1962708D01*
X1000810Y-1957679D01*
X1000810Y-1877720D01*
X995781Y-1872691D01*
G37*
G36*
X756818Y-1872691D02*
G01*
X751789Y-1877720D01*
X751789Y-1957679D01*
X756818Y-1962708D01*
X836777Y-1962708D01*
X841806Y-1957679D01*
X841806Y-1934921D01*
X804773Y-1934921D01*
X804773Y-1901901D01*
X841806Y-1901901D01*
X841806Y-1877720D01*
X836777Y-1872691D01*
G37*
G36*
X547522Y-1351991D02*
G01*
X542493Y-1357020D01*
X542493Y-1379778D01*
X579526Y-1379778D01*
X579526Y-1412798D01*
X542493Y-1412798D01*
X542493Y-1436979D01*
X547522Y-1442008D01*
X627481Y-1442008D01*
X632510Y-1436979D01*
X632510Y-1357020D01*
X627481Y-1351991D01*
G37*
G36*
X388518Y-1351991D02*
G01*
X383489Y-1357020D01*
X383489Y-1436979D01*
X388518Y-1442008D01*
X468477Y-1442008D01*
X473506Y-1436979D01*
X473506Y-1414221D01*
X436473Y-1414221D01*
X436473Y-1381201D01*
X473506Y-1381201D01*
X473506Y-1357020D01*
X468477Y-1351991D01*
G37*
G36*
X5183022Y-2126691D02*
G01*
X5177993Y-2131720D01*
X5177993Y-2154478D01*
X5214975Y-2154478D01*
X5214975Y-2187498D01*
X5177993Y-2187498D01*
X5177993Y-2211679D01*
X5183022Y-2216708D01*
X5262981Y-2216708D01*
X5268010Y-2211679D01*
X5268010Y-2131720D01*
X5262981Y-2126691D01*
G37*
G36*
X5024018Y-2126691D02*
G01*
X5018989Y-2131720D01*
X5018989Y-2211679D01*
X5024018Y-2216708D01*
X5103977Y-2216708D01*
X5109006Y-2211679D01*
X5109006Y-2188921D01*
X5072024Y-2188921D01*
X5072024Y-2155901D01*
X5109006Y-2155901D01*
X5109006Y-2131720D01*
X5103977Y-2126691D01*
G37*
G36*
X534822Y-856691D02*
G01*
X529793Y-861720D01*
X529793Y-884478D01*
X566826Y-884478D01*
X566826Y-917498D01*
X529793Y-917498D01*
X529793Y-941679D01*
X534822Y-946708D01*
X614781Y-946708D01*
X619810Y-941679D01*
X619810Y-861720D01*
X614781Y-856691D01*
G37*
G36*
X375818Y-856691D02*
G01*
X370789Y-861720D01*
X370789Y-941679D01*
X375818Y-946708D01*
X455777Y-946708D01*
X460806Y-941679D01*
X460806Y-918921D01*
X423773Y-918921D01*
X423773Y-885901D01*
X460806Y-885901D01*
X460806Y-861720D01*
X455777Y-856691D01*
G37*
G36*
X4211218Y-2101291D02*
G01*
X4206189Y-2106320D01*
X4206189Y-2186279D01*
X4211218Y-2191308D01*
X4291177Y-2191308D01*
X4296206Y-2186279D01*
X4296206Y-2163521D01*
X4259224Y-2163521D01*
X4259224Y-2130501D01*
X4296206Y-2130501D01*
X4296206Y-2106320D01*
X4291177Y-2101291D01*
G37*
G36*
X4370222Y-2101291D02*
G01*
X4365193Y-2106320D01*
X4365193Y-2129078D01*
X4402175Y-2129078D01*
X4402175Y-2162098D01*
X4365193Y-2162098D01*
X4365193Y-2186279D01*
X4370222Y-2191308D01*
X4450181Y-2191308D01*
X4455210Y-2186279D01*
X4455210Y-2106320D01*
X4450181Y-2101291D01*
G37*
G36*
X1611020Y-1704289D02*
G01*
X1605991Y-1709318D01*
X1605991Y-1789277D01*
X1611020Y-1794306D01*
X1633778Y-1794306D01*
X1633778Y-1757273D01*
X1666798Y-1757273D01*
X1666798Y-1794306D01*
X1690979Y-1794306D01*
X1696008Y-1789277D01*
X1696008Y-1709318D01*
X1690979Y-1704289D01*
G37*
G36*
X1611020Y-1863293D02*
G01*
X1605991Y-1868322D01*
X1605991Y-1948281D01*
X1611020Y-1953310D01*
X1690979Y-1953310D01*
X1696008Y-1948281D01*
X1696008Y-1868322D01*
X1690979Y-1863293D01*
X1668221Y-1863293D01*
X1668221Y-1900326D01*
X1635201Y-1900326D01*
X1635201Y-1863293D01*
G37*
G36*
X5024018Y-1974291D02*
G01*
X5018989Y-1979320D01*
X5018989Y-2059279D01*
X5024018Y-2064308D01*
X5103977Y-2064308D01*
X5109006Y-2059279D01*
X5109006Y-2036521D01*
X5072024Y-2036521D01*
X5072024Y-2003501D01*
X5109006Y-2003501D01*
X5109006Y-1979320D01*
X5103977Y-1974291D01*
G37*
G36*
X5183022Y-1974291D02*
G01*
X5177993Y-1979320D01*
X5177993Y-2002078D01*
X5214975Y-2002078D01*
X5214975Y-2035098D01*
X5177993Y-2035098D01*
X5177993Y-2059279D01*
X5183022Y-2064308D01*
X5262981Y-2064308D01*
X5268010Y-2059279D01*
X5268010Y-1979320D01*
X5262981Y-1974291D01*
G37*
G36*
X4179722Y-1542491D02*
G01*
X4174693Y-1547520D01*
X4174693Y-1570278D01*
X4211675Y-1570278D01*
X4211675Y-1603298D01*
X4174693Y-1603298D01*
X4174693Y-1627479D01*
X4179722Y-1632508D01*
X4259681Y-1632508D01*
X4264710Y-1627479D01*
X4264710Y-1547520D01*
X4259681Y-1542491D01*
G37*
G36*
X4020718Y-1542491D02*
G01*
X4015689Y-1547520D01*
X4015689Y-1627479D01*
X4020718Y-1632508D01*
X4100677Y-1632508D01*
X4105706Y-1627479D01*
X4105706Y-1604721D01*
X4068724Y-1604721D01*
X4068724Y-1571701D01*
X4105706Y-1571701D01*
X4105706Y-1547520D01*
X4100677Y-1542491D01*
G37*
G36*
X3592220Y-1621993D02*
G01*
X3587191Y-1627022D01*
X3587191Y-1706981D01*
X3592220Y-1712010D01*
X3672179Y-1712010D01*
X3677208Y-1706981D01*
X3677208Y-1627022D01*
X3672179Y-1621993D01*
X3649421Y-1621993D01*
X3649421Y-1659026D01*
X3616401Y-1659026D01*
X3616401Y-1621993D01*
G37*
G36*
X3592220Y-1462989D02*
G01*
X3587191Y-1468018D01*
X3587191Y-1547977D01*
X3592220Y-1553006D01*
X3614978Y-1553006D01*
X3614978Y-1515973D01*
X3647998Y-1515973D01*
X3647998Y-1553006D01*
X3672179Y-1553006D01*
X3677208Y-1547977D01*
X3677208Y-1468018D01*
X3672179Y-1462989D01*
G37*
G36*
X5246522Y-132791D02*
G01*
X5241493Y-137820D01*
X5241493Y-160578D01*
X5278475Y-160578D01*
X5278475Y-193598D01*
X5241493Y-193598D01*
X5241493Y-217779D01*
X5246522Y-222808D01*
X5326481Y-222808D01*
X5331510Y-217779D01*
X5331510Y-137820D01*
X5326481Y-132791D01*
G37*
G36*
X5087518Y-132791D02*
G01*
X5082489Y-137820D01*
X5082489Y-217779D01*
X5087518Y-222808D01*
X5167477Y-222808D01*
X5172506Y-217779D01*
X5172506Y-195021D01*
X5135524Y-195021D01*
X5135524Y-162001D01*
X5172506Y-162001D01*
X5172506Y-137820D01*
X5167477Y-132791D01*
G37*
G36*
X5221122Y-1796491D02*
G01*
X5216093Y-1801520D01*
X5216093Y-1824278D01*
X5253075Y-1824278D01*
X5253075Y-1857298D01*
X5216093Y-1857298D01*
X5216093Y-1881479D01*
X5221122Y-1886508D01*
X5301081Y-1886508D01*
X5306110Y-1881479D01*
X5306110Y-1801520D01*
X5301081Y-1796491D01*
G37*
G36*
X5062118Y-1796491D02*
G01*
X5057089Y-1801520D01*
X5057089Y-1881479D01*
X5062118Y-1886508D01*
X5142077Y-1886508D01*
X5147106Y-1881479D01*
X5147106Y-1858721D01*
X5110124Y-1858721D01*
X5110124Y-1825701D01*
X5147106Y-1825701D01*
X5147106Y-1801520D01*
X5142077Y-1796491D01*
G37*
G36*
X4700422Y-1796491D02*
G01*
X4695393Y-1801520D01*
X4695393Y-1824278D01*
X4732375Y-1824278D01*
X4732375Y-1857298D01*
X4695393Y-1857298D01*
X4695393Y-1881479D01*
X4700422Y-1886508D01*
X4780381Y-1886508D01*
X4785410Y-1881479D01*
X4785410Y-1801520D01*
X4780381Y-1796491D01*
G37*
G36*
X4541418Y-1796491D02*
G01*
X4536389Y-1801520D01*
X4536389Y-1881479D01*
X4541418Y-1886508D01*
X4621377Y-1886508D01*
X4626406Y-1881479D01*
X4626406Y-1858721D01*
X4589424Y-1858721D01*
X4589424Y-1825701D01*
X4626406Y-1825701D01*
X4626406Y-1801520D01*
X4621377Y-1796491D01*
G37*
G36*
X4370222Y-1923491D02*
G01*
X4365193Y-1928520D01*
X4365193Y-1951278D01*
X4402175Y-1951278D01*
X4402175Y-1984298D01*
X4365193Y-1984298D01*
X4365193Y-2008479D01*
X4370222Y-2013508D01*
X4450181Y-2013508D01*
X4455210Y-2008479D01*
X4455210Y-1928520D01*
X4450181Y-1923491D01*
G37*
G36*
X4211218Y-1923491D02*
G01*
X4206189Y-1928520D01*
X4206189Y-2008479D01*
X4211218Y-2013508D01*
X4291177Y-2013508D01*
X4296206Y-2008479D01*
X4296206Y-1985721D01*
X4259224Y-1985721D01*
X4259224Y-1952701D01*
X4296206Y-1952701D01*
X4296206Y-1928520D01*
X4291177Y-1923491D01*
G37*
G36*
X2855620Y-821893D02*
G01*
X2850591Y-826922D01*
X2850591Y-906881D01*
X2855620Y-911910D01*
X2935579Y-911910D01*
X2940608Y-906881D01*
X2940608Y-826922D01*
X2935579Y-821893D01*
X2912821Y-821893D01*
X2912821Y-858926D01*
X2879801Y-858926D01*
X2879801Y-821893D01*
G37*
G36*
X2855620Y-662889D02*
G01*
X2850591Y-667918D01*
X2850591Y-747877D01*
X2855620Y-752906D01*
X2878378Y-752906D01*
X2878378Y-715873D01*
X2911398Y-715873D01*
X2911398Y-752906D01*
X2935579Y-752906D01*
X2940608Y-747877D01*
X2940608Y-667918D01*
X2935579Y-662889D01*
G37*
D10*
G01*
X2425700Y-1834997D03*
G01*
X2425700Y-1975002D03*
G01*
X2870200Y-1631797D03*
G01*
X2870200Y-1771802D03*
G01*
X3886200Y-1517497D03*
G01*
X3886200Y-1657502D03*
D11*
G01*
X285902Y-1397000D03*
G01*
X145897Y-1397000D03*
G01*
X273202Y-901700D03*
G01*
X133197Y-901700D03*
D12*
G01*
X860653Y-1663700D03*
G01*
X1095146Y-1663700D03*
G01*
X3845153Y-2374900D03*
G01*
X4079646Y-2374900D03*
G01*
X1857146Y-1549400D03*
G01*
X1622653Y-1549400D03*
G01*
X4721453Y-2387600D03*
G01*
X4955946Y-2387600D03*
D13*
G01*
X1384909Y-2152395D03*
G01*
X1384909Y-2057400D03*
G01*
X1384909Y-1962404D03*
G01*
X1155090Y-1962404D03*
G01*
X1155090Y-2057400D03*
G01*
X1155090Y-2152395D03*
D14*
G01*
X4877123Y-317500D03*
D15*
G01*
X4139869Y-317500D03*
D16*
G01*
X3862400Y-2699486D03*
G01*
X4062399Y-2699486D03*
D17*
G01*
X3627399Y-3269487D03*
G01*
X4297400Y-3269487D03*
D16*
G01*
X4751400Y-2699486D03*
G01*
X4951399Y-2699486D03*
D17*
G01*
X4516399Y-3269487D03*
G01*
X5186400Y-3269487D03*
D18*
G01*
X3479800Y-264109D03*
G01*
X3479800Y-1209090D03*
D19*
G01*
X1484299Y-1745995D03*
G01*
X1484299Y-1556004D03*
G01*
X1284300Y-1651000D03*
D20*
G01*
X512902Y-1168400D03*
G01*
X172897Y-1168400D03*
G01*
X512902Y-673100D03*
G01*
X172897Y-673100D03*
D17*
G01*
X2435199Y-3269487D03*
D16*
G01*
X3070199Y-2699486D03*
G01*
X2870200Y-2699486D03*
G01*
X2670200Y-2699486D03*
D17*
G01*
X3305200Y-3269487D03*
D19*
G01*
X2690799Y-1796795D03*
G01*
X2690799Y-1606804D03*
G01*
X2490800Y-1701800D03*
D21*
G01*
X4116527Y-1998014D03*
G01*
X4116527Y-2063013D03*
G01*
X4116527Y-2127986D03*
G01*
X4116527Y-2193010D03*
D22*
G01*
X3892054Y-2095309D03*
D21*
G01*
X4929327Y-1998014D03*
G01*
X4929327Y-2063013D03*
G01*
X4929327Y-2127986D03*
G01*
X4929327Y-2193010D03*
D22*
G01*
X4704854Y-2095309D03*
D23*
G01*
X801395Y-149301D03*
G01*
X801395Y-299288D03*
G01*
X801395Y-449300D03*
G01*
X801395Y-599287D03*
G01*
X801395Y-749300D03*
G01*
X801395Y-899287D03*
G01*
X801395Y-1049299D03*
G01*
X801395Y-1199286D03*
G01*
X801395Y-1349298D03*
G01*
X2551404Y-1349298D03*
G01*
X2551404Y-1199286D03*
G01*
X2551404Y-1049299D03*
G01*
X2551404Y-899287D03*
G01*
X2551404Y-749300D03*
G01*
X2551404Y-599287D03*
G01*
X2551404Y-449300D03*
G01*
X2551404Y-299288D03*
G01*
X2551404Y-149301D03*
D24*
G01*
X1662404Y-659282D03*
G01*
X1662404Y-769289D03*
G01*
X1662404Y-879297D03*
G01*
X1772386Y-659282D03*
G01*
X1772386Y-769289D03*
G01*
X1772386Y-879297D03*
G01*
X1882394Y-879297D03*
G01*
X1882394Y-769289D03*
G01*
X1882394Y-659282D03*
D25*
G01*
X913757Y-3368725D03*
D26*
G01*
X1343779Y-2981248D03*
D27*
G01*
X1243830Y-2981248D03*
D26*
G01*
X1143881Y-2981248D03*
G01*
X1043805Y-2981248D03*
D28*
G01*
X1473827Y-3368725D03*
D29*
G01*
X4292600Y-1074420D03*
D30*
G01*
X4483100Y-777239D03*
G01*
X4356100Y-777239D03*
G01*
X4229100Y-777239D03*
G01*
X4102100Y-777239D03*
G01*
X4483100Y-1381760D03*
G01*
X4356100Y-1381760D03*
G01*
X4229100Y-1381760D03*
G01*
X4102100Y-1381760D03*
D31*
G01*
X2648204Y-2100198D03*
G01*
X2743200Y-2100198D03*
G01*
X2838195Y-2100198D03*
G01*
X2838195Y-2370201D03*
G01*
X2743200Y-2370201D03*
G01*
X2648204Y-2370201D03*
D32*
G01*
X1955800Y-3327400D03*
G01*
X1752600Y-3327400D03*
G01*
X2159000Y-3327400D03*
D33*
G01*
X2806700Y-359028D03*
D34*
G01*
X2806700Y-148970D03*
D35*
G01*
X622300Y-3276600D03*
D36*
G01*
X215900Y-2844800D03*
M02*
