G04 Layer: TopSolderMaskLayer*
G04 EasyEDA v6.5.48, 2025-01-13 21:26:02*
G04 3b747f30557b4d858c8bbb2b11bd1c5f,f99730456eb041dfa0a19156df6b2b6d,10*
G04 Gerber Generator version 0.2*
G04 Scale: 100 percent, Rotated: No, Reflected: No *
G04 Dimensions in millimeters *
G04 leading zeros omitted , absolute positions ,4 integer and 5 decimal *
%FSLAX45Y45*%
%MOMM*%

%AMMACRO1*4,1,8,-0.4711,-0.4508,-0.5008,-0.421,-0.5008,0.4211,-0.4711,0.4508,0.471,0.4508,0.5008,0.4211,0.5008,-0.421,0.471,-0.4508,-0.4711,-0.4508,0*%
%AMMACRO2*4,1,8,-1.5207,-1.05,-1.55,-1.0207,-1.55,1.0207,-1.5207,1.05,1.5207,1.05,1.55,1.0207,1.55,-1.0207,1.5207,-1.05,-1.5207,-1.05,0*%
%AMMACRO3*4,1,8,-0.4211,-0.5008,-0.4508,-0.471,-0.4508,0.4711,-0.4211,0.5008,0.421,0.5008,0.4508,0.4711,0.4508,-0.471,0.421,-0.5008,-0.4211,-0.5008,0*%
%AMMACRO4*4,1,8,-0.7261,-0.7258,-0.7558,-0.696,-0.7558,0.6961,-0.7261,0.7258,0.726,0.7258,0.7558,0.6961,0.7558,-0.696,0.726,-0.7258,-0.7261,-0.7258,0*%
%AMMACRO5*4,1,8,-0.5211,-0.4258,-0.5508,-0.396,-0.5508,0.3961,-0.5211,0.4258,0.521,0.4258,0.5508,0.3961,0.5508,-0.396,0.521,-0.4258,-0.5211,-0.4258,0*%
%AMMACRO6*4,1,8,-0.557,-0.3168,-0.5868,-0.287,-0.5868,0.287,-0.557,0.3168,0.557,0.3168,0.5868,0.287,0.5868,-0.287,0.557,-0.3168,-0.557,-0.3168,0*%
%AMMACRO7*4,1,8,-1.0998,-1.6708,-1.1296,-1.641,-1.1296,1.6411,-1.0998,1.6708,1.0998,1.6708,1.1296,1.6411,1.1296,-1.641,1.0998,-1.6708,-1.0998,-1.6708,0*%
%AMMACRO8*4,1,8,-0.5207,-1.8,-0.55,-1.7707,-0.55,1.7707,-0.5207,1.8,0.5207,1.8,0.55,1.7707,0.55,-1.7707,0.5207,-1.8,-0.5207,-1.8,0*%
%AMMACRO9*4,1,8,-0.7707,-1.8,-0.8,-1.7707,-0.8,1.7707,-0.7707,1.8,0.7707,1.8,0.8,1.7707,0.8,-1.7707,0.7707,-1.8,-0.7707,-1.8,0*%
%AMMACRO10*4,1,8,-2.0711,-2.0758,-2.1008,-2.046,-2.1008,2.0461,-2.0711,2.0758,2.071,2.0758,2.1008,2.0461,2.1008,-2.046,2.071,-2.0758,-2.0711,-2.0758,0*%
%AMMACRO11*4,1,8,-0.646,-0.4008,-0.6758,-0.371,-0.6758,0.3711,-0.646,0.4008,0.646,0.4008,0.6758,0.3711,0.6758,-0.371,0.646,-0.4008,-0.646,-0.4008,0*%
%AMMACRO12*4,1,8,-0.4211,-0.9008,-0.4508,-0.871,-0.4508,0.8711,-0.4211,0.9008,0.421,0.9008,0.4508,0.8711,0.4508,-0.871,0.421,-0.9008,-0.4211,-0.9008,0*%
%AMMACRO13*4,1,8,-0.3957,-0.225,-0.425,-0.1957,-0.425,0.1957,-0.3957,0.225,0.3957,0.225,0.425,0.1957,0.425,-0.1957,0.3957,-0.225,-0.3957,-0.225,0*%
%AMMACRO14*4,1,8,-1.0207,-0.55,-1.05,-0.5207,-1.05,0.5207,-1.0207,0.55,1.0207,0.55,1.05,0.5207,1.05,-0.5207,1.0207,-0.55,-1.0207,-0.55,0*%
%AMMACRO15*4,1,8,-0.3707,-0.4,-0.4,-0.3707,-0.4,0.3707,-0.3707,0.4,0.3707,0.4,0.4,0.3707,0.4,-0.3707,0.3707,-0.4,-0.3707,-0.4,0*%
%AMMACRO16*4,1,8,-0.6205,-0.9512,-0.6502,-0.9215,-0.6502,0.9215,-0.6205,0.9512,0.6205,0.9512,0.6502,0.9215,0.6502,-0.9215,0.6205,-0.9512,-0.6205,-0.9512,0*%
%AMMACRO17*4,1,8,-0.3208,-0.8255,-0.3505,-0.7957,-0.3505,0.7958,-0.3208,0.8255,0.3208,0.8255,0.3505,0.7958,0.3505,-0.7957,0.3208,-0.8255,-0.3208,-0.8255,0*%
%AMMACRO18*4,1,8,-0.322,-0.8255,-0.3518,-0.7957,-0.3518,0.7958,-0.322,0.8255,0.322,0.8255,0.3518,0.7958,0.3518,-0.7957,0.322,-0.8255,-0.322,-0.8255,0*%
%AMMACRO19*4,1,8,-0.6218,-0.9512,-0.6515,-0.9215,-0.6515,0.9215,-0.6218,0.9512,0.6217,0.9512,0.6515,0.9215,0.6515,-0.9215,0.6217,-0.9512,-0.6218,-0.9512,0*%
%AMMACRO20*4,1,8,-1.6707,-1.2,-1.7,-1.1707,-1.7,1.1707,-1.6707,1.2,1.6707,1.2,1.7,1.1707,1.7,-1.1707,1.6707,-1.2,-1.6707,-1.2,0*%
%AMMACRO21*4,1,8,-0.7635,-0.9148,-0.7933,-0.885,-0.7933,0.8851,-0.7635,0.9148,0.7635,0.9148,0.7933,0.8851,0.7933,-0.885,0.7635,-0.9148,-0.7635,-0.9148,0*%
%AMMACRO22*4,1,8,-0.3211,-0.601,-0.351,-0.5711,-0.351,0.5711,-0.3211,0.601,0.3211,0.601,0.351,0.5711,0.351,-0.5711,0.3211,-0.601,-0.3211,-0.601,0*%
%AMMACRO23*4,1,8,-0.596,-0.2008,-0.6258,-0.171,-0.6258,0.1711,-0.596,0.2008,0.596,0.2008,0.6258,0.1711,0.6258,-0.171,0.596,-0.2008,-0.596,-0.2008,0*%
%AMMACRO24*4,1,8,-0.8041,-0.8636,-0.8636,-0.8041,-0.8636,0.8041,-0.8041,0.8636,0.8041,0.8636,0.8636,0.8041,0.8636,-0.8041,0.8041,-0.8636,-0.8041,-0.8636,0*%
%AMMACRO25*4,1,8,-0.7208,-0.5508,-0.7506,-0.521,-0.7506,0.5211,-0.7208,0.5508,0.7208,0.5508,0.7506,0.5211,0.7506,-0.521,0.7208,-0.5508,-0.7208,-0.5508,0*%
%AMMACRO26*4,1,8,-1.0207,-1.55,-1.05,-1.5207,-1.05,1.5207,-1.0207,1.55,1.0207,1.55,1.05,1.5207,1.05,-1.5207,1.0207,-1.55,-1.0207,-1.55,0*%
%AMMACRO27*4,1,8,-0.4243,-0.4828,-0.454,-0.453,-0.454,0.4531,-0.4243,0.4828,0.4243,0.4828,0.454,0.4531,0.454,-0.453,0.4243,-0.4828,-0.4243,-0.4828,0*%
%AMMACRO28*4,1,8,-0.4531,-0.454,-0.4828,-0.4243,-0.4828,0.4243,-0.4531,0.454,0.453,0.454,0.4828,0.4243,0.4828,-0.4243,0.453,-0.454,-0.4531,-0.454,0*%
%AMMACRO29*4,1,8,-0.3585,-0.1908,-0.3883,-0.161,-0.3883,0.1611,-0.3585,0.1908,0.3585,0.1908,0.3883,0.1611,0.3883,-0.161,0.3585,-0.1908,-0.3585,-0.1908,0*%
%AMMACRO30*4,1,8,-0.1611,-0.3883,-0.1908,-0.3585,-0.1908,0.3585,-0.1611,0.3883,0.161,0.3883,0.1908,0.3585,0.1908,-0.3585,0.161,-0.3883,-0.1611,-0.3883,0*%
%AMMACRO31*4,1,8,-0.3711,-0.5008,-0.4008,-0.471,-0.4008,0.4711,-0.3711,0.5008,0.371,0.5008,0.4008,0.4711,0.4008,-0.471,0.371,-0.5008,-0.3711,-0.5008,0*%
%AMMACRO32*4,1,8,-0.6961,-0.7558,-0.7258,-0.726,-0.7258,0.7261,-0.6961,0.7558,0.696,0.7558,0.7258,0.7261,0.7258,-0.726,0.696,-0.7558,-0.6961,-0.7558,0*%
%AMMACRO33*4,1,8,-0.5207,-0.35,-0.55,-0.3207,-0.55,0.3207,-0.5207,0.35,0.5207,0.35,0.55,0.3207,0.55,-0.3207,0.5207,-0.35,-0.5207,-0.35,0*%
%AMMACRO34*4,1,8,-0.5208,-0.3501,-0.5501,-0.3207,-0.55,0.3207,-0.5207,0.3501,0.5207,0.35,0.55,0.3207,0.5501,-0.3207,0.5208,-0.35,-0.5208,-0.3501,0*%
%AMMACRO35*4,1,8,-0.5207,-0.35,-0.55,-0.3207,-0.55,0.3208,-0.5207,0.35,0.5207,0.35,0.55,0.3208,0.55,-0.3207,0.5207,-0.35,-0.5207,-0.35,0*%
%AMMACRO36*4,1,8,0.5207,-0.35,-0.5207,-0.3499,-0.55,-0.3206,-0.55,0.3207,-0.5207,0.35,0.5207,0.35,0.55,0.3207,0.55,-0.3207,0.5207,-0.35,0*%
%AMMACRO37*4,1,8,0.5207,-0.3501,-0.5207,-0.35,-0.55,-0.3207,-0.55,0.3207,-0.5207,0.35,0.5207,0.3501,0.55,0.3207,0.55,-0.3207,0.5207,-0.3501,0*%
%ADD10C,0.2032*%
%ADD11MACRO1*%
%ADD12MACRO2*%
%ADD13O,1.0015981999999999X0.5496052*%
%ADD14MACRO3*%
%ADD15MACRO4*%
%ADD16C,2.6016*%
%ADD17C,1.9016*%
%ADD18MACRO5*%
%ADD19MACRO6*%
%ADD20MACRO7*%
%ADD21MACRO8*%
%ADD22MACRO9*%
%ADD23MACRO10*%
%ADD24MACRO11*%
%ADD25MACRO12*%
%ADD26MACRO13*%
%ADD27MACRO14*%
%ADD28MACRO15*%
%ADD29MACRO16*%
%ADD30MACRO17*%
%ADD31MACRO18*%
%ADD32MACRO19*%
%ADD33MACRO20*%
%ADD34O,0.8000238000000001X2.3000208000000004*%
%ADD35MACRO21*%
%ADD36MACRO22*%
%ADD37MACRO23*%
%ADD38O,2.2015958X1.2015978000000003*%
%ADD39O,1.9015964X1.2015978000000003*%
%ADD40MACRO24*%
%ADD41MACRO25*%
%ADD42MACRO26*%
%ADD43MACRO27*%
%ADD44MACRO28*%
%ADD45MACRO29*%
%ADD46MACRO30*%
%ADD47MACRO31*%
%ADD48MACRO32*%
%ADD49MACRO33*%
%ADD50MACRO34*%
%ADD51MACRO35*%
%ADD52MACRO36*%
%ADD53MACRO37*%
%ADD54C,0.0138*%

%LPD*%
D10*
X5814568Y-2717800D02*
G01*
X5900674Y-2717800D01*
X5900674Y-2717800D02*
G01*
X5900674Y-2668778D01*
X5843270Y-2641600D02*
G01*
X5884163Y-2641600D01*
X5896609Y-2637536D01*
X5900674Y-2629407D01*
X5900674Y-2617215D01*
X5896609Y-2609087D01*
X5884163Y-2596642D01*
X5843270Y-2596642D02*
G01*
X5900674Y-2596642D01*
X5814568Y-2569718D02*
G01*
X5900674Y-2569718D01*
X5843270Y-2528823D02*
G01*
X5884163Y-2569718D01*
X5867908Y-2553462D02*
G01*
X5900674Y-2524760D01*
X5843270Y-2448560D02*
G01*
X5900674Y-2448560D01*
X5855715Y-2448560D02*
G01*
X5847334Y-2456687D01*
X5843270Y-2465070D01*
X5843270Y-2477262D01*
X5847334Y-2485389D01*
X5855715Y-2493518D01*
X5867908Y-2497836D01*
X5876036Y-2497836D01*
X5888227Y-2493518D01*
X5896609Y-2485389D01*
X5900674Y-2477262D01*
X5900674Y-2465070D01*
X5896609Y-2456687D01*
X5888227Y-2448560D01*
X5855715Y-2376678D02*
G01*
X5847334Y-2380742D01*
X5843270Y-2392934D01*
X5843270Y-2405379D01*
X5847334Y-2417571D01*
X5855715Y-2421636D01*
X5863843Y-2417571D01*
X5867908Y-2409444D01*
X5871972Y-2388870D01*
X5876036Y-2380742D01*
X5884163Y-2376678D01*
X5888227Y-2376678D01*
X5896609Y-2380742D01*
X5900674Y-2392934D01*
X5900674Y-2405379D01*
X5896609Y-2417571D01*
X5888227Y-2421636D01*
X5814568Y-2286507D02*
G01*
X5900674Y-2286507D01*
X5814568Y-2286507D02*
G01*
X5814568Y-2249678D01*
X5818886Y-2237486D01*
X5822950Y-2233421D01*
X5831077Y-2229357D01*
X5839206Y-2229357D01*
X5847334Y-2233421D01*
X5851397Y-2237486D01*
X5855715Y-2249678D01*
X5855715Y-2286507D02*
G01*
X5855715Y-2249678D01*
X5859779Y-2237486D01*
X5863843Y-2233421D01*
X5871972Y-2229357D01*
X5884163Y-2229357D01*
X5892291Y-2233421D01*
X5896609Y-2237486D01*
X5900674Y-2249678D01*
X5900674Y-2286507D01*
X5814568Y-2202434D02*
G01*
X5900674Y-2202434D01*
X5843270Y-2154936D02*
G01*
X5847334Y-2163063D01*
X5855715Y-2171192D01*
X5867908Y-2175255D01*
X5876036Y-2175255D01*
X5888227Y-2171192D01*
X5896609Y-2163063D01*
X5900674Y-2154936D01*
X5900674Y-2142744D01*
X5896609Y-2134362D01*
X5888227Y-2126234D01*
X5876036Y-2122170D01*
X5867908Y-2122170D01*
X5855715Y-2126234D01*
X5847334Y-2134362D01*
X5843270Y-2142744D01*
X5843270Y-2154936D01*
X5855715Y-2045970D02*
G01*
X5847334Y-2054352D01*
X5843270Y-2062479D01*
X5843270Y-2074671D01*
X5847334Y-2082800D01*
X5855715Y-2091181D01*
X5867908Y-2095245D01*
X5876036Y-2095245D01*
X5888227Y-2091181D01*
X5896609Y-2082800D01*
X5900674Y-2074671D01*
X5900674Y-2062479D01*
X5896609Y-2054352D01*
X5888227Y-2045970D01*
X5814568Y-2019045D02*
G01*
X5900674Y-2019045D01*
X5859779Y-2019045D02*
G01*
X5847334Y-2006854D01*
X5843270Y-1998726D01*
X5843270Y-1986279D01*
X5847334Y-1978152D01*
X5859779Y-1974087D01*
X5900674Y-1974087D01*
X5867908Y-1947163D02*
G01*
X5867908Y-1897887D01*
X5859779Y-1897887D01*
X5851397Y-1901952D01*
X5847334Y-1906270D01*
X5843270Y-1914397D01*
X5843270Y-1926589D01*
X5847334Y-1934718D01*
X5855715Y-1943100D01*
X5867908Y-1947163D01*
X5876036Y-1947163D01*
X5888227Y-1943100D01*
X5896609Y-1934718D01*
X5900674Y-1926589D01*
X5900674Y-1914397D01*
X5896609Y-1906270D01*
X5888227Y-1897887D01*
X5843270Y-1870963D02*
G01*
X5900674Y-1870963D01*
X5867908Y-1870963D02*
G01*
X5855715Y-1866900D01*
X5847334Y-1858771D01*
X5843270Y-1850644D01*
X5843270Y-1838197D01*
X5636768Y-2730500D02*
G01*
X5722874Y-2697734D01*
X5636768Y-2664968D02*
G01*
X5722874Y-2697734D01*
X5653277Y-2575052D02*
G01*
X5649213Y-2566923D01*
X5636768Y-2554478D01*
X5722874Y-2554478D01*
X5702300Y-2523489D02*
G01*
X5706363Y-2527554D01*
X5710427Y-2523489D01*
X5706363Y-2519426D01*
X5702300Y-2523489D01*
X5657341Y-2488437D02*
G01*
X5653277Y-2488437D01*
X5645150Y-2484120D01*
X5641086Y-2480055D01*
X5636768Y-2471928D01*
X5636768Y-2455671D01*
X5641086Y-2447289D01*
X5645150Y-2443226D01*
X5653277Y-2439162D01*
X5661406Y-2439162D01*
X5669534Y-2443226D01*
X5681979Y-2451607D01*
X5722874Y-2492502D01*
X5722874Y-2435097D01*
D11*
G01*
X2260600Y-2470000D03*
G01*
X2260600Y-2609999D03*
D12*
G01*
X5765801Y-2908301D03*
D13*
G01*
X2019604Y-2418689D03*
G01*
X2019604Y-2338704D03*
G01*
X2019604Y-2258695D03*
G01*
X2019604Y-2178710D03*
G01*
X1739595Y-2178710D03*
G01*
X1739595Y-2258695D03*
G01*
X1739595Y-2338704D03*
G01*
X1739595Y-2418689D03*
D11*
G01*
X3886200Y-1517500D03*
G01*
X3886200Y-1657499D03*
D14*
G01*
X285899Y-1397000D03*
G01*
X145900Y-1397000D03*
G01*
X273199Y-901700D03*
G01*
X133200Y-901700D03*
D15*
G01*
X4303702Y-1765300D03*
G01*
X4103697Y-1765300D03*
D16*
G01*
X4732400Y-1342212D03*
G01*
X4732400Y-842213D03*
D17*
G01*
X5732399Y-542213D03*
G01*
X5732399Y-1642211D03*
D18*
G01*
X860644Y-1663700D03*
G01*
X1095150Y-1663700D03*
G01*
X3845144Y-2374900D03*
G01*
X4079650Y-2374900D03*
G01*
X1857155Y-1549400D03*
G01*
X1622649Y-1549400D03*
G01*
X4721444Y-2387600D03*
G01*
X4955950Y-2387600D03*
D19*
G01*
X1384909Y-2152396D03*
G01*
X1384909Y-2057400D03*
G01*
X1384909Y-1962403D03*
G01*
X1155090Y-1962403D03*
G01*
X1155090Y-2057400D03*
G01*
X1155090Y-2152396D03*
D20*
G01*
X4877123Y-317500D03*
G01*
X4139876Y-317500D03*
D21*
G01*
X3862400Y-2699489D03*
G01*
X4062399Y-2699489D03*
D22*
G01*
X3627405Y-3269489D03*
G01*
X4297396Y-3269489D03*
D21*
G01*
X4751400Y-2699489D03*
G01*
X4951399Y-2699489D03*
D22*
G01*
X4516405Y-3269489D03*
G01*
X5186396Y-3269489D03*
G36*
X5118100Y-2418079D02*
G01*
X5117602Y-2418054D01*
X5117109Y-2417983D01*
X5116624Y-2417861D01*
X5116156Y-2417693D01*
X5115704Y-2417480D01*
X5115278Y-2417224D01*
X5114876Y-2416926D01*
X5114508Y-2416591D01*
X5114173Y-2416223D01*
X5113875Y-2415821D01*
X5113619Y-2415395D01*
X5113406Y-2414943D01*
X5113238Y-2414475D01*
X5113116Y-2413990D01*
X5113045Y-2413497D01*
X5113020Y-2413000D01*
X5113020Y-2311400D01*
X5113045Y-2310902D01*
X5113116Y-2310409D01*
X5113238Y-2309924D01*
X5113406Y-2309456D01*
X5113619Y-2309004D01*
X5113875Y-2308578D01*
X5114173Y-2308176D01*
X5114508Y-2307808D01*
X5114876Y-2307473D01*
X5115278Y-2307175D01*
X5115704Y-2306919D01*
X5116156Y-2306706D01*
X5116624Y-2306538D01*
X5117109Y-2306416D01*
X5117602Y-2306345D01*
X5118100Y-2306320D01*
X5168900Y-2306320D01*
X5169468Y-2306353D01*
X5170030Y-2306446D01*
X5170578Y-2306604D01*
X5171104Y-2306822D01*
X5171602Y-2307099D01*
X5172067Y-2307427D01*
X5172491Y-2307808D01*
X5223291Y-2358608D01*
X5223626Y-2358976D01*
X5223924Y-2359378D01*
X5224180Y-2359804D01*
X5224393Y-2360256D01*
X5224561Y-2360724D01*
X5224683Y-2361209D01*
X5224754Y-2361702D01*
X5224779Y-2362200D01*
X5224754Y-2362697D01*
X5224683Y-2363190D01*
X5224561Y-2363675D01*
X5224393Y-2364143D01*
X5224180Y-2364595D01*
X5223924Y-2365021D01*
X5223626Y-2365423D01*
X5223291Y-2365791D01*
X5172491Y-2416591D01*
X5172067Y-2416972D01*
X5171602Y-2417300D01*
X5171104Y-2417577D01*
X5170578Y-2417795D01*
X5170030Y-2417953D01*
X5169468Y-2418046D01*
X5168900Y-2418079D01*
G37*
G36*
X5194300Y-2418079D02*
G01*
X5193822Y-2418057D01*
X5193347Y-2417991D01*
X5192882Y-2417879D01*
X5192430Y-2417724D01*
X5191993Y-2417526D01*
X5191577Y-2417290D01*
X5191185Y-2417013D01*
X5190822Y-2416703D01*
X5190490Y-2416360D01*
X5190190Y-2415987D01*
X5189928Y-2415585D01*
X5189702Y-2415164D01*
X5189519Y-2414719D01*
X5189380Y-2414262D01*
X5189283Y-2413795D01*
X5189230Y-2413320D01*
X5189222Y-2412839D01*
X5189260Y-2412362D01*
X5189341Y-2411892D01*
X5189468Y-2411430D01*
X5189636Y-2410983D01*
X5189847Y-2410551D01*
X5190098Y-2410145D01*
X5190385Y-2409761D01*
X5190708Y-2409408D01*
X5237916Y-2362200D01*
X5190708Y-2314991D01*
X5190385Y-2314638D01*
X5190098Y-2314254D01*
X5189847Y-2313848D01*
X5189636Y-2313416D01*
X5189468Y-2312969D01*
X5189341Y-2312507D01*
X5189260Y-2312037D01*
X5189222Y-2311560D01*
X5189230Y-2311079D01*
X5189283Y-2310604D01*
X5189380Y-2310137D01*
X5189519Y-2309680D01*
X5189702Y-2309235D01*
X5189928Y-2308814D01*
X5190190Y-2308412D01*
X5190490Y-2308039D01*
X5190822Y-2307696D01*
X5191185Y-2307386D01*
X5191577Y-2307109D01*
X5191993Y-2306873D01*
X5192430Y-2306675D01*
X5192882Y-2306520D01*
X5193347Y-2306408D01*
X5193822Y-2306342D01*
X5194300Y-2306320D01*
X5295900Y-2306320D01*
X5296397Y-2306345D01*
X5296890Y-2306416D01*
X5297375Y-2306538D01*
X5297843Y-2306706D01*
X5298295Y-2306919D01*
X5298721Y-2307175D01*
X5299123Y-2307473D01*
X5299491Y-2307808D01*
X5299826Y-2308176D01*
X5300124Y-2308578D01*
X5300380Y-2309004D01*
X5300593Y-2309456D01*
X5300761Y-2309924D01*
X5300883Y-2310409D01*
X5300954Y-2310902D01*
X5300979Y-2311400D01*
X5300979Y-2413000D01*
X5300954Y-2413497D01*
X5300883Y-2413990D01*
X5300761Y-2414475D01*
X5300593Y-2414943D01*
X5300380Y-2415395D01*
X5300124Y-2415821D01*
X5299826Y-2416223D01*
X5299491Y-2416591D01*
X5299123Y-2416926D01*
X5298721Y-2417224D01*
X5298295Y-2417480D01*
X5297843Y-2417693D01*
X5297375Y-2417861D01*
X5296890Y-2417983D01*
X5296397Y-2418054D01*
X5295900Y-2418079D01*
G37*
G36*
X5118100Y-2595879D02*
G01*
X5117602Y-2595854D01*
X5117109Y-2595783D01*
X5116624Y-2595661D01*
X5116156Y-2595493D01*
X5115704Y-2595280D01*
X5115278Y-2595024D01*
X5114876Y-2594726D01*
X5114508Y-2594391D01*
X5114173Y-2594023D01*
X5113875Y-2593621D01*
X5113619Y-2593195D01*
X5113406Y-2592743D01*
X5113238Y-2592275D01*
X5113116Y-2591790D01*
X5113045Y-2591297D01*
X5113020Y-2590800D01*
X5113020Y-2489200D01*
X5113045Y-2488702D01*
X5113116Y-2488209D01*
X5113238Y-2487724D01*
X5113406Y-2487256D01*
X5113619Y-2486804D01*
X5113875Y-2486378D01*
X5114173Y-2485976D01*
X5114508Y-2485608D01*
X5114876Y-2485273D01*
X5115278Y-2484975D01*
X5115704Y-2484719D01*
X5116156Y-2484506D01*
X5116624Y-2484338D01*
X5117109Y-2484216D01*
X5117602Y-2484145D01*
X5118100Y-2484120D01*
X5168900Y-2484120D01*
X5169468Y-2484153D01*
X5170030Y-2484246D01*
X5170578Y-2484404D01*
X5171104Y-2484622D01*
X5171602Y-2484899D01*
X5172067Y-2485227D01*
X5172491Y-2485608D01*
X5223291Y-2536408D01*
X5223626Y-2536776D01*
X5223924Y-2537178D01*
X5224180Y-2537604D01*
X5224393Y-2538056D01*
X5224561Y-2538524D01*
X5224683Y-2539009D01*
X5224754Y-2539502D01*
X5224779Y-2540000D01*
X5224754Y-2540497D01*
X5224683Y-2540990D01*
X5224561Y-2541475D01*
X5224393Y-2541943D01*
X5224180Y-2542395D01*
X5223924Y-2542821D01*
X5223626Y-2543223D01*
X5223291Y-2543591D01*
X5172491Y-2594391D01*
X5172067Y-2594772D01*
X5171602Y-2595100D01*
X5171104Y-2595377D01*
X5170578Y-2595595D01*
X5170030Y-2595753D01*
X5169468Y-2595846D01*
X5168900Y-2595879D01*
G37*
G36*
X5194300Y-2595879D02*
G01*
X5193822Y-2595857D01*
X5193347Y-2595791D01*
X5192882Y-2595679D01*
X5192430Y-2595524D01*
X5191993Y-2595326D01*
X5191577Y-2595090D01*
X5191185Y-2594813D01*
X5190822Y-2594503D01*
X5190490Y-2594160D01*
X5190190Y-2593787D01*
X5189928Y-2593385D01*
X5189702Y-2592964D01*
X5189519Y-2592519D01*
X5189380Y-2592062D01*
X5189283Y-2591595D01*
X5189230Y-2591120D01*
X5189222Y-2590639D01*
X5189260Y-2590162D01*
X5189341Y-2589692D01*
X5189468Y-2589230D01*
X5189636Y-2588783D01*
X5189847Y-2588351D01*
X5190098Y-2587945D01*
X5190385Y-2587561D01*
X5190708Y-2587208D01*
X5237916Y-2540000D01*
X5190708Y-2492791D01*
X5190385Y-2492438D01*
X5190098Y-2492054D01*
X5189847Y-2491648D01*
X5189636Y-2491216D01*
X5189468Y-2490769D01*
X5189341Y-2490307D01*
X5189260Y-2489837D01*
X5189222Y-2489360D01*
X5189230Y-2488879D01*
X5189283Y-2488404D01*
X5189380Y-2487937D01*
X5189519Y-2487480D01*
X5189702Y-2487035D01*
X5189928Y-2486614D01*
X5190190Y-2486212D01*
X5190490Y-2485839D01*
X5190822Y-2485496D01*
X5191185Y-2485186D01*
X5191577Y-2484909D01*
X5191993Y-2484673D01*
X5192430Y-2484475D01*
X5192882Y-2484320D01*
X5193347Y-2484208D01*
X5193822Y-2484142D01*
X5194300Y-2484120D01*
X5295900Y-2484120D01*
X5296397Y-2484145D01*
X5296890Y-2484216D01*
X5297375Y-2484338D01*
X5297843Y-2484506D01*
X5298295Y-2484719D01*
X5298721Y-2484975D01*
X5299123Y-2485273D01*
X5299491Y-2485608D01*
X5299826Y-2485976D01*
X5300124Y-2486378D01*
X5300380Y-2486804D01*
X5300593Y-2487256D01*
X5300761Y-2487724D01*
X5300883Y-2488209D01*
X5300954Y-2488702D01*
X5300979Y-2489200D01*
X5300979Y-2590800D01*
X5300954Y-2591297D01*
X5300883Y-2591790D01*
X5300761Y-2592275D01*
X5300593Y-2592743D01*
X5300380Y-2593195D01*
X5300124Y-2593621D01*
X5299826Y-2594023D01*
X5299491Y-2594391D01*
X5299123Y-2594726D01*
X5298721Y-2595024D01*
X5298295Y-2595280D01*
X5297843Y-2595493D01*
X5297375Y-2595661D01*
X5296890Y-2595783D01*
X5296397Y-2595854D01*
X5295900Y-2595879D01*
G37*
G36*
X4191000Y-2595879D02*
G01*
X4190502Y-2595854D01*
X4190009Y-2595783D01*
X4189524Y-2595661D01*
X4189056Y-2595493D01*
X4188604Y-2595280D01*
X4188178Y-2595024D01*
X4187776Y-2594726D01*
X4187408Y-2594391D01*
X4187073Y-2594023D01*
X4186775Y-2593621D01*
X4186519Y-2593195D01*
X4186306Y-2592743D01*
X4186138Y-2592275D01*
X4186016Y-2591790D01*
X4185945Y-2591297D01*
X4185920Y-2590800D01*
X4185920Y-2489200D01*
X4185945Y-2488702D01*
X4186016Y-2488209D01*
X4186138Y-2487724D01*
X4186306Y-2487256D01*
X4186519Y-2486804D01*
X4186775Y-2486378D01*
X4187073Y-2485976D01*
X4187408Y-2485608D01*
X4187776Y-2485273D01*
X4188178Y-2484975D01*
X4188604Y-2484719D01*
X4189056Y-2484506D01*
X4189524Y-2484338D01*
X4190009Y-2484216D01*
X4190502Y-2484145D01*
X4191000Y-2484120D01*
X4241800Y-2484120D01*
X4242368Y-2484153D01*
X4242930Y-2484246D01*
X4243478Y-2484404D01*
X4244004Y-2484622D01*
X4244502Y-2484899D01*
X4244967Y-2485227D01*
X4245391Y-2485608D01*
X4296191Y-2536408D01*
X4296526Y-2536776D01*
X4296824Y-2537178D01*
X4297080Y-2537604D01*
X4297293Y-2538056D01*
X4297461Y-2538524D01*
X4297583Y-2539009D01*
X4297654Y-2539502D01*
X4297679Y-2540000D01*
X4297654Y-2540497D01*
X4297583Y-2540990D01*
X4297461Y-2541475D01*
X4297293Y-2541943D01*
X4297080Y-2542395D01*
X4296824Y-2542821D01*
X4296526Y-2543223D01*
X4296191Y-2543591D01*
X4245391Y-2594391D01*
X4244967Y-2594772D01*
X4244502Y-2595100D01*
X4244004Y-2595377D01*
X4243478Y-2595595D01*
X4242930Y-2595753D01*
X4242368Y-2595846D01*
X4241800Y-2595879D01*
G37*
G36*
X4267200Y-2595879D02*
G01*
X4266722Y-2595857D01*
X4266247Y-2595791D01*
X4265782Y-2595679D01*
X4265330Y-2595524D01*
X4264893Y-2595326D01*
X4264477Y-2595090D01*
X4264085Y-2594813D01*
X4263722Y-2594503D01*
X4263390Y-2594160D01*
X4263090Y-2593787D01*
X4262828Y-2593385D01*
X4262602Y-2592964D01*
X4262419Y-2592519D01*
X4262280Y-2592062D01*
X4262183Y-2591595D01*
X4262130Y-2591120D01*
X4262122Y-2590639D01*
X4262160Y-2590162D01*
X4262241Y-2589692D01*
X4262368Y-2589230D01*
X4262536Y-2588783D01*
X4262747Y-2588351D01*
X4262998Y-2587945D01*
X4263285Y-2587561D01*
X4263608Y-2587208D01*
X4310816Y-2540000D01*
X4263608Y-2492791D01*
X4263285Y-2492438D01*
X4262998Y-2492054D01*
X4262747Y-2491648D01*
X4262536Y-2491216D01*
X4262368Y-2490769D01*
X4262241Y-2490307D01*
X4262160Y-2489837D01*
X4262122Y-2489360D01*
X4262130Y-2488879D01*
X4262183Y-2488404D01*
X4262280Y-2487937D01*
X4262419Y-2487480D01*
X4262602Y-2487035D01*
X4262828Y-2486614D01*
X4263090Y-2486212D01*
X4263390Y-2485839D01*
X4263722Y-2485496D01*
X4264085Y-2485186D01*
X4264477Y-2484909D01*
X4264893Y-2484673D01*
X4265330Y-2484475D01*
X4265782Y-2484320D01*
X4266247Y-2484208D01*
X4266722Y-2484142D01*
X4267200Y-2484120D01*
X4368800Y-2484120D01*
X4369297Y-2484145D01*
X4369790Y-2484216D01*
X4370275Y-2484338D01*
X4370743Y-2484506D01*
X4371195Y-2484719D01*
X4371621Y-2484975D01*
X4372023Y-2485273D01*
X4372391Y-2485608D01*
X4372726Y-2485976D01*
X4373024Y-2486378D01*
X4373280Y-2486804D01*
X4373493Y-2487256D01*
X4373661Y-2487724D01*
X4373783Y-2488209D01*
X4373854Y-2488702D01*
X4373879Y-2489200D01*
X4373879Y-2590800D01*
X4373854Y-2591297D01*
X4373783Y-2591790D01*
X4373661Y-2592275D01*
X4373493Y-2592743D01*
X4373280Y-2593195D01*
X4373024Y-2593621D01*
X4372726Y-2594023D01*
X4372391Y-2594391D01*
X4372023Y-2594726D01*
X4371621Y-2595024D01*
X4371195Y-2595280D01*
X4370743Y-2595493D01*
X4370275Y-2595661D01*
X4369790Y-2595783D01*
X4369297Y-2595854D01*
X4368800Y-2595879D01*
G37*
G36*
X4191000Y-2405379D02*
G01*
X4190502Y-2405354D01*
X4190009Y-2405283D01*
X4189524Y-2405161D01*
X4189056Y-2404993D01*
X4188604Y-2404780D01*
X4188178Y-2404524D01*
X4187776Y-2404226D01*
X4187408Y-2403891D01*
X4187073Y-2403523D01*
X4186775Y-2403121D01*
X4186519Y-2402695D01*
X4186306Y-2402243D01*
X4186138Y-2401775D01*
X4186016Y-2401290D01*
X4185945Y-2400797D01*
X4185920Y-2400300D01*
X4185920Y-2298700D01*
X4185945Y-2298202D01*
X4186016Y-2297709D01*
X4186138Y-2297224D01*
X4186306Y-2296756D01*
X4186519Y-2296304D01*
X4186775Y-2295878D01*
X4187073Y-2295476D01*
X4187408Y-2295108D01*
X4187776Y-2294773D01*
X4188178Y-2294475D01*
X4188604Y-2294219D01*
X4189056Y-2294006D01*
X4189524Y-2293838D01*
X4190009Y-2293716D01*
X4190502Y-2293645D01*
X4191000Y-2293620D01*
X4241800Y-2293620D01*
X4242368Y-2293653D01*
X4242930Y-2293746D01*
X4243478Y-2293904D01*
X4244004Y-2294122D01*
X4244502Y-2294399D01*
X4244967Y-2294727D01*
X4245391Y-2295108D01*
X4296191Y-2345908D01*
X4296526Y-2346276D01*
X4296824Y-2346678D01*
X4297080Y-2347104D01*
X4297293Y-2347556D01*
X4297461Y-2348024D01*
X4297583Y-2348509D01*
X4297654Y-2349002D01*
X4297679Y-2349500D01*
X4297654Y-2349997D01*
X4297583Y-2350490D01*
X4297461Y-2350975D01*
X4297293Y-2351443D01*
X4297080Y-2351895D01*
X4296824Y-2352321D01*
X4296526Y-2352723D01*
X4296191Y-2353091D01*
X4245391Y-2403891D01*
X4244967Y-2404272D01*
X4244502Y-2404600D01*
X4244004Y-2404877D01*
X4243478Y-2405095D01*
X4242930Y-2405253D01*
X4242368Y-2405346D01*
X4241800Y-2405379D01*
G37*
G36*
X4267200Y-2405379D02*
G01*
X4266722Y-2405357D01*
X4266247Y-2405291D01*
X4265782Y-2405179D01*
X4265330Y-2405024D01*
X4264893Y-2404826D01*
X4264477Y-2404590D01*
X4264085Y-2404313D01*
X4263722Y-2404003D01*
X4263390Y-2403660D01*
X4263090Y-2403287D01*
X4262828Y-2402885D01*
X4262602Y-2402464D01*
X4262419Y-2402019D01*
X4262280Y-2401562D01*
X4262183Y-2401095D01*
X4262130Y-2400620D01*
X4262122Y-2400139D01*
X4262160Y-2399662D01*
X4262241Y-2399192D01*
X4262368Y-2398730D01*
X4262536Y-2398283D01*
X4262747Y-2397851D01*
X4262998Y-2397445D01*
X4263285Y-2397061D01*
X4263608Y-2396708D01*
X4310816Y-2349500D01*
X4263608Y-2302291D01*
X4263285Y-2301938D01*
X4262998Y-2301554D01*
X4262747Y-2301148D01*
X4262536Y-2300716D01*
X4262368Y-2300269D01*
X4262241Y-2299807D01*
X4262160Y-2299337D01*
X4262122Y-2298860D01*
X4262130Y-2298379D01*
X4262183Y-2297904D01*
X4262280Y-2297437D01*
X4262419Y-2296980D01*
X4262602Y-2296535D01*
X4262828Y-2296114D01*
X4263090Y-2295712D01*
X4263390Y-2295339D01*
X4263722Y-2294996D01*
X4264085Y-2294686D01*
X4264477Y-2294409D01*
X4264893Y-2294173D01*
X4265330Y-2293975D01*
X4265782Y-2293820D01*
X4266247Y-2293708D01*
X4266722Y-2293642D01*
X4267200Y-2293620D01*
X4368800Y-2293620D01*
X4369297Y-2293645D01*
X4369790Y-2293716D01*
X4370275Y-2293838D01*
X4370743Y-2294006D01*
X4371195Y-2294219D01*
X4371621Y-2294475D01*
X4372023Y-2294773D01*
X4372391Y-2295108D01*
X4372726Y-2295476D01*
X4373024Y-2295878D01*
X4373280Y-2296304D01*
X4373493Y-2296756D01*
X4373661Y-2297224D01*
X4373783Y-2297709D01*
X4373854Y-2298202D01*
X4373879Y-2298700D01*
X4373879Y-2400300D01*
X4373854Y-2400797D01*
X4373783Y-2401290D01*
X4373661Y-2401775D01*
X4373493Y-2402243D01*
X4373280Y-2402695D01*
X4373024Y-2403121D01*
X4372726Y-2403523D01*
X4372391Y-2403891D01*
X4372023Y-2404226D01*
X4371621Y-2404524D01*
X4371195Y-2404780D01*
X4370743Y-2404993D01*
X4370275Y-2405161D01*
X4369790Y-2405283D01*
X4369297Y-2405354D01*
X4368800Y-2405379D01*
G37*
D23*
G01*
X3479800Y-264100D03*
G01*
X3479800Y-1209099D03*
D24*
G01*
X1484299Y-1745996D03*
G01*
X1484299Y-1556005D03*
G01*
X1284300Y-1651001D03*
D25*
G01*
X512902Y-1168401D03*
G01*
X172897Y-1168401D03*
G01*
X512902Y-673101D03*
G01*
X172897Y-673101D03*
D22*
G01*
X2435205Y-3269489D03*
D21*
G01*
X3070199Y-2699489D03*
G01*
X2870200Y-2699489D03*
G01*
X2670200Y-2699489D03*
D22*
G01*
X3305196Y-3269489D03*
D26*
G01*
X4116539Y-1998002D03*
G01*
X4116539Y-2063000D03*
G01*
X4116539Y-2127999D03*
G01*
X4116539Y-2192997D03*
G36*
X3825674Y-2222738D02*
G01*
X3825184Y-2222715D01*
X3824698Y-2222642D01*
X3824221Y-2222522D01*
X3823759Y-2222357D01*
X3823317Y-2222149D01*
X3822895Y-2221895D01*
X3822501Y-2221603D01*
X3822138Y-2221273D01*
X3821808Y-2220909D01*
X3821516Y-2220516D01*
X3821262Y-2220094D01*
X3821054Y-2219652D01*
X3820888Y-2219190D01*
X3820769Y-2218712D01*
X3820695Y-2218227D01*
X3820680Y-2217912D01*
X3765649Y-2217912D01*
X3765158Y-2217889D01*
X3764673Y-2217816D01*
X3764196Y-2217696D01*
X3763733Y-2217531D01*
X3763291Y-2217323D01*
X3762870Y-2217069D01*
X3762476Y-2216777D01*
X3762113Y-2216447D01*
X3761783Y-2216083D01*
X3761491Y-2215690D01*
X3761237Y-2215268D01*
X3761028Y-2214826D01*
X3760863Y-2214364D01*
X3760744Y-2213886D01*
X3760670Y-2213401D01*
X3760647Y-2212911D01*
X3760647Y-2172779D01*
X3760670Y-2172289D01*
X3760744Y-2171804D01*
X3760863Y-2171326D01*
X3761028Y-2170864D01*
X3761237Y-2170422D01*
X3761491Y-2170000D01*
X3761783Y-2169607D01*
X3762113Y-2169243D01*
X3762476Y-2168913D01*
X3762870Y-2168621D01*
X3763291Y-2168367D01*
X3763733Y-2168159D01*
X3764196Y-2167994D01*
X3764673Y-2167874D01*
X3765158Y-2167801D01*
X3765649Y-2167778D01*
X3820673Y-2167778D01*
X3820673Y-2152888D01*
X3765649Y-2152888D01*
X3765158Y-2152865D01*
X3764673Y-2152792D01*
X3764196Y-2152672D01*
X3763733Y-2152507D01*
X3763291Y-2152299D01*
X3762870Y-2152045D01*
X3762476Y-2151753D01*
X3762113Y-2151423D01*
X3761783Y-2151059D01*
X3761491Y-2150666D01*
X3761237Y-2150244D01*
X3761028Y-2149802D01*
X3760863Y-2149340D01*
X3760744Y-2148862D01*
X3760670Y-2148377D01*
X3760647Y-2147887D01*
X3760647Y-2107755D01*
X3760670Y-2107265D01*
X3760744Y-2106780D01*
X3760863Y-2106302D01*
X3761028Y-2105840D01*
X3761237Y-2105398D01*
X3761491Y-2104976D01*
X3761783Y-2104583D01*
X3762113Y-2104219D01*
X3762476Y-2103889D01*
X3762870Y-2103597D01*
X3763291Y-2103343D01*
X3763733Y-2103135D01*
X3764196Y-2102970D01*
X3764673Y-2102850D01*
X3765158Y-2102777D01*
X3765649Y-2102754D01*
X3820673Y-2102754D01*
X3820673Y-2087864D01*
X3765649Y-2087864D01*
X3765158Y-2087841D01*
X3764673Y-2087768D01*
X3764196Y-2087648D01*
X3763733Y-2087483D01*
X3763291Y-2087275D01*
X3762870Y-2087021D01*
X3762476Y-2086729D01*
X3762113Y-2086399D01*
X3761783Y-2086035D01*
X3761491Y-2085642D01*
X3761237Y-2085220D01*
X3761028Y-2084778D01*
X3760863Y-2084316D01*
X3760744Y-2083838D01*
X3760670Y-2083353D01*
X3760647Y-2082863D01*
X3760647Y-2042731D01*
X3760670Y-2042241D01*
X3760744Y-2041756D01*
X3760863Y-2041278D01*
X3761028Y-2040816D01*
X3761237Y-2040374D01*
X3761491Y-2039952D01*
X3761783Y-2039559D01*
X3762113Y-2039195D01*
X3762476Y-2038865D01*
X3762870Y-2038573D01*
X3763291Y-2038319D01*
X3763733Y-2038111D01*
X3764196Y-2037946D01*
X3764673Y-2037826D01*
X3765158Y-2037753D01*
X3765649Y-2037730D01*
X3820673Y-2037730D01*
X3820673Y-2022840D01*
X3765649Y-2022840D01*
X3765158Y-2022817D01*
X3764673Y-2022744D01*
X3764196Y-2022624D01*
X3763733Y-2022459D01*
X3763291Y-2022251D01*
X3762870Y-2021997D01*
X3762476Y-2021705D01*
X3762113Y-2021375D01*
X3761783Y-2021011D01*
X3761491Y-2020618D01*
X3761237Y-2020196D01*
X3761028Y-2019754D01*
X3760863Y-2019292D01*
X3760744Y-2018814D01*
X3760670Y-2018329D01*
X3760647Y-2017839D01*
X3760647Y-1977707D01*
X3760670Y-1977217D01*
X3760744Y-1976732D01*
X3760863Y-1976254D01*
X3761028Y-1975792D01*
X3761237Y-1975350D01*
X3761491Y-1974928D01*
X3761783Y-1974535D01*
X3762113Y-1974171D01*
X3762476Y-1973841D01*
X3762870Y-1973549D01*
X3763291Y-1973295D01*
X3763733Y-1973087D01*
X3764196Y-1972922D01*
X3764673Y-1972802D01*
X3765158Y-1972729D01*
X3765649Y-1972706D01*
X3820680Y-1972706D01*
X3820695Y-1972391D01*
X3820769Y-1971906D01*
X3820888Y-1971428D01*
X3821054Y-1970966D01*
X3821262Y-1970524D01*
X3821516Y-1970102D01*
X3821808Y-1969709D01*
X3822138Y-1969345D01*
X3822501Y-1969015D01*
X3822895Y-1968723D01*
X3823317Y-1968469D01*
X3823759Y-1968261D01*
X3824221Y-1968096D01*
X3824698Y-1967976D01*
X3825184Y-1967903D01*
X3825674Y-1967880D01*
X4018460Y-1967880D01*
X4018950Y-1967903D01*
X4019435Y-1967976D01*
X4019913Y-1968096D01*
X4020375Y-1968261D01*
X4020817Y-1968469D01*
X4021239Y-1968723D01*
X4021632Y-1969015D01*
X4021996Y-1969345D01*
X4022326Y-1969709D01*
X4022618Y-1970102D01*
X4022872Y-1970524D01*
X4023080Y-1970966D01*
X4023245Y-1971428D01*
X4023365Y-1971906D01*
X4023438Y-1972391D01*
X4023461Y-1972881D01*
X4023461Y-2217737D01*
X4023438Y-2218227D01*
X4023365Y-2218712D01*
X4023245Y-2219190D01*
X4023080Y-2219652D01*
X4022872Y-2220094D01*
X4022618Y-2220516D01*
X4022326Y-2220909D01*
X4021996Y-2221273D01*
X4021632Y-2221603D01*
X4021239Y-2221895D01*
X4020817Y-2222149D01*
X4020375Y-2222357D01*
X4019913Y-2222522D01*
X4019435Y-2222642D01*
X4018950Y-2222715D01*
X4018460Y-2222738D01*
G37*
G01*
X4929339Y-1998002D03*
G01*
X4929339Y-2063000D03*
G01*
X4929339Y-2127999D03*
G01*
X4929339Y-2192997D03*
G36*
X4638474Y-2222738D02*
G01*
X4637984Y-2222715D01*
X4637498Y-2222642D01*
X4637021Y-2222522D01*
X4636559Y-2222357D01*
X4636117Y-2222149D01*
X4635695Y-2221895D01*
X4635301Y-2221603D01*
X4634938Y-2221273D01*
X4634608Y-2220909D01*
X4634316Y-2220516D01*
X4634062Y-2220094D01*
X4633854Y-2219652D01*
X4633688Y-2219190D01*
X4633569Y-2218712D01*
X4633495Y-2218227D01*
X4633480Y-2217912D01*
X4578449Y-2217912D01*
X4577958Y-2217889D01*
X4577473Y-2217816D01*
X4576996Y-2217696D01*
X4576533Y-2217531D01*
X4576091Y-2217323D01*
X4575670Y-2217069D01*
X4575276Y-2216777D01*
X4574913Y-2216447D01*
X4574583Y-2216083D01*
X4574291Y-2215690D01*
X4574037Y-2215268D01*
X4573828Y-2214826D01*
X4573663Y-2214364D01*
X4573544Y-2213886D01*
X4573470Y-2213401D01*
X4573447Y-2212911D01*
X4573447Y-2172779D01*
X4573470Y-2172289D01*
X4573544Y-2171804D01*
X4573663Y-2171326D01*
X4573828Y-2170864D01*
X4574037Y-2170422D01*
X4574291Y-2170000D01*
X4574583Y-2169607D01*
X4574913Y-2169243D01*
X4575276Y-2168913D01*
X4575670Y-2168621D01*
X4576091Y-2168367D01*
X4576533Y-2168159D01*
X4576996Y-2167994D01*
X4577473Y-2167874D01*
X4577958Y-2167801D01*
X4578449Y-2167778D01*
X4633473Y-2167778D01*
X4633473Y-2152888D01*
X4578449Y-2152888D01*
X4577958Y-2152865D01*
X4577473Y-2152792D01*
X4576996Y-2152672D01*
X4576533Y-2152507D01*
X4576091Y-2152299D01*
X4575670Y-2152045D01*
X4575276Y-2151753D01*
X4574913Y-2151423D01*
X4574583Y-2151059D01*
X4574291Y-2150666D01*
X4574037Y-2150244D01*
X4573828Y-2149802D01*
X4573663Y-2149340D01*
X4573544Y-2148862D01*
X4573470Y-2148377D01*
X4573447Y-2147887D01*
X4573447Y-2107755D01*
X4573470Y-2107265D01*
X4573544Y-2106780D01*
X4573663Y-2106302D01*
X4573828Y-2105840D01*
X4574037Y-2105398D01*
X4574291Y-2104976D01*
X4574583Y-2104583D01*
X4574913Y-2104219D01*
X4575276Y-2103889D01*
X4575670Y-2103597D01*
X4576091Y-2103343D01*
X4576533Y-2103135D01*
X4576996Y-2102970D01*
X4577473Y-2102850D01*
X4577958Y-2102777D01*
X4578449Y-2102754D01*
X4633473Y-2102754D01*
X4633473Y-2087864D01*
X4578449Y-2087864D01*
X4577958Y-2087841D01*
X4577473Y-2087768D01*
X4576996Y-2087648D01*
X4576533Y-2087483D01*
X4576091Y-2087275D01*
X4575670Y-2087021D01*
X4575276Y-2086729D01*
X4574913Y-2086399D01*
X4574583Y-2086035D01*
X4574291Y-2085642D01*
X4574037Y-2085220D01*
X4573828Y-2084778D01*
X4573663Y-2084316D01*
X4573544Y-2083838D01*
X4573470Y-2083353D01*
X4573447Y-2082863D01*
X4573447Y-2042731D01*
X4573470Y-2042241D01*
X4573544Y-2041756D01*
X4573663Y-2041278D01*
X4573828Y-2040816D01*
X4574037Y-2040374D01*
X4574291Y-2039952D01*
X4574583Y-2039559D01*
X4574913Y-2039195D01*
X4575276Y-2038865D01*
X4575670Y-2038573D01*
X4576091Y-2038319D01*
X4576533Y-2038111D01*
X4576996Y-2037946D01*
X4577473Y-2037826D01*
X4577958Y-2037753D01*
X4578449Y-2037730D01*
X4633473Y-2037730D01*
X4633473Y-2022840D01*
X4578449Y-2022840D01*
X4577958Y-2022817D01*
X4577473Y-2022744D01*
X4576996Y-2022624D01*
X4576533Y-2022459D01*
X4576091Y-2022251D01*
X4575670Y-2021997D01*
X4575276Y-2021705D01*
X4574913Y-2021375D01*
X4574583Y-2021011D01*
X4574291Y-2020618D01*
X4574037Y-2020196D01*
X4573828Y-2019754D01*
X4573663Y-2019292D01*
X4573544Y-2018814D01*
X4573470Y-2018329D01*
X4573447Y-2017839D01*
X4573447Y-1977707D01*
X4573470Y-1977217D01*
X4573544Y-1976732D01*
X4573663Y-1976254D01*
X4573828Y-1975792D01*
X4574037Y-1975350D01*
X4574291Y-1974928D01*
X4574583Y-1974535D01*
X4574913Y-1974171D01*
X4575276Y-1973841D01*
X4575670Y-1973549D01*
X4576091Y-1973295D01*
X4576533Y-1973087D01*
X4576996Y-1972922D01*
X4577473Y-1972802D01*
X4577958Y-1972729D01*
X4578449Y-1972706D01*
X4633480Y-1972706D01*
X4633495Y-1972391D01*
X4633569Y-1971906D01*
X4633688Y-1971428D01*
X4633854Y-1970966D01*
X4634062Y-1970524D01*
X4634316Y-1970102D01*
X4634608Y-1969709D01*
X4634938Y-1969345D01*
X4635301Y-1969015D01*
X4635695Y-1968723D01*
X4636117Y-1968469D01*
X4636559Y-1968261D01*
X4637021Y-1968096D01*
X4637498Y-1967976D01*
X4637984Y-1967903D01*
X4638474Y-1967880D01*
X4831260Y-1967880D01*
X4831750Y-1967903D01*
X4832235Y-1967976D01*
X4832713Y-1968096D01*
X4833175Y-1968261D01*
X4833617Y-1968469D01*
X4834039Y-1968723D01*
X4834432Y-1969015D01*
X4834796Y-1969345D01*
X4835126Y-1969709D01*
X4835418Y-1970102D01*
X4835672Y-1970524D01*
X4835880Y-1970966D01*
X4836045Y-1971428D01*
X4836165Y-1971906D01*
X4836238Y-1972391D01*
X4836261Y-1972881D01*
X4836261Y-2217737D01*
X4836238Y-2218227D01*
X4836165Y-2218712D01*
X4836045Y-2219190D01*
X4835880Y-2219652D01*
X4835672Y-2220094D01*
X4835418Y-2220516D01*
X4835126Y-2220909D01*
X4834796Y-2221273D01*
X4834432Y-2221603D01*
X4834039Y-2221895D01*
X4833617Y-2222149D01*
X4833175Y-2222357D01*
X4832713Y-2222522D01*
X4832235Y-2222642D01*
X4831750Y-2222715D01*
X4831260Y-2222738D01*
G37*
D27*
G01*
X801395Y-149301D03*
G01*
X801395Y-299288D03*
G01*
X801395Y-449300D03*
G01*
X801395Y-599287D03*
G01*
X801395Y-749300D03*
G01*
X801395Y-899286D03*
G01*
X801395Y-1049299D03*
G01*
X801395Y-1199286D03*
G01*
X801395Y-1349298D03*
G01*
X2551404Y-1349298D03*
G01*
X2551404Y-1199286D03*
G01*
X2551404Y-1049299D03*
G01*
X2551404Y-899286D03*
G01*
X2551404Y-749300D03*
G01*
X2551404Y-599287D03*
G01*
X2551404Y-449300D03*
G01*
X2551404Y-299288D03*
G01*
X2551404Y-149301D03*
D28*
G01*
X1662399Y-659292D03*
G01*
X1662399Y-769292D03*
G01*
X1662399Y-879292D03*
G01*
X1772399Y-659292D03*
G01*
X1772399Y-769292D03*
G01*
X1772399Y-879292D03*
G01*
X1882399Y-879292D03*
G01*
X1882399Y-769292D03*
G01*
X1882399Y-659292D03*
D29*
G01*
X913757Y-3368725D03*
D30*
G01*
X1343779Y-2981248D03*
D31*
G01*
X1243830Y-2981248D03*
D30*
G01*
X1143881Y-2981248D03*
G01*
X1043805Y-2981248D03*
D32*
G01*
X1473827Y-3368725D03*
D33*
G01*
X4292600Y-1074419D03*
D34*
G01*
X4483100Y-777239D03*
G01*
X4356100Y-777239D03*
G01*
X4229100Y-777239D03*
G01*
X4102100Y-777239D03*
G01*
X4483100Y-1381760D03*
G01*
X4356100Y-1381760D03*
G01*
X4229100Y-1381760D03*
G01*
X4102100Y-1381760D03*
D35*
G01*
X5442450Y-381000D03*
G01*
X5123949Y-381000D03*
G01*
X4985250Y-1651000D03*
G01*
X4666749Y-1651000D03*
D36*
G01*
X2648203Y-2100192D03*
G01*
X2743200Y-2100192D03*
G01*
X2838196Y-2100192D03*
G01*
X2838196Y-2370203D03*
G01*
X2743200Y-2370203D03*
G01*
X2648203Y-2370203D03*
D37*
G01*
X605519Y-2379701D03*
G01*
X605519Y-2349700D03*
G01*
X605544Y-2299702D03*
G01*
X605539Y-2269699D03*
G01*
X605519Y-2219707D03*
G01*
X605621Y-2169669D03*
G01*
X605519Y-2119707D03*
G01*
X605519Y-2069694D03*
G01*
X605519Y-2019707D03*
G01*
X605519Y-1969695D03*
G01*
X605519Y-1919707D03*
G01*
X605621Y-1869695D03*
G01*
X605519Y-1819702D03*
G01*
X605519Y-1789703D03*
G01*
X605519Y-1739703D03*
G01*
X605519Y-1709703D03*
D38*
G01*
X548995Y-1612696D03*
G01*
X548995Y-2476703D03*
D39*
G01*
X130987Y-2476703D03*
G01*
X130987Y-1612696D03*
D40*
G01*
X1955799Y-3327400D03*
G01*
X1752600Y-3327400D03*
G01*
X2159000Y-3327400D03*
D41*
G01*
X2806700Y-359028D03*
G01*
X2806700Y-148971D03*
D42*
G01*
X622301Y-3276601D03*
D12*
G01*
X215901Y-2844801D03*
D43*
G01*
X788275Y-2730500D03*
G01*
X938924Y-2730500D03*
G01*
X788275Y-2565400D03*
G01*
X938924Y-2565400D03*
G01*
X800975Y-2209800D03*
G01*
X951624Y-2209800D03*
G01*
X951624Y-1917700D03*
G01*
X800975Y-1917700D03*
G01*
X583324Y-1397000D03*
G01*
X432675Y-1397000D03*
G01*
X5218824Y-2171700D03*
G01*
X5068175Y-2171700D03*
G01*
X570624Y-901700D03*
G01*
X419975Y-901700D03*
G01*
X4255375Y-2146300D03*
G01*
X4406024Y-2146300D03*
D44*
G01*
X1651000Y-1753475D03*
G01*
X1651000Y-1904124D03*
D43*
G01*
X5068175Y-2019300D03*
G01*
X5218824Y-2019300D03*
G01*
X4215524Y-1587500D03*
G01*
X4064875Y-1587500D03*
D44*
G01*
X3632200Y-1662824D03*
G01*
X3632200Y-1512175D03*
D43*
G01*
X5282324Y-177800D03*
G01*
X5131675Y-177800D03*
G01*
X5256924Y-1841500D03*
G01*
X5106275Y-1841500D03*
G01*
X4736224Y-1841500D03*
G01*
X4585575Y-1841500D03*
G01*
X4406024Y-1968500D03*
G01*
X4255375Y-1968500D03*
D44*
G01*
X2895600Y-862724D03*
G01*
X2895600Y-712075D03*
D14*
G01*
X1796900Y-2565400D03*
G01*
X1936899Y-2565400D03*
D45*
G01*
X1346987Y-2426893D03*
G01*
X1346987Y-2476906D03*
G01*
X1346987Y-2526893D03*
G01*
X1346987Y-2576906D03*
D46*
G01*
X1423200Y-2603154D03*
G01*
X1473187Y-2603154D03*
G01*
X1523199Y-2603154D03*
D45*
G01*
X1599387Y-2576906D03*
G01*
X1599387Y-2526893D03*
G01*
X1599387Y-2476906D03*
G01*
X1599387Y-2426893D03*
D46*
G01*
X1523199Y-2400645D03*
G01*
X1473187Y-2400645D03*
G01*
X1423200Y-2400645D03*
D47*
G01*
X2434197Y-2568003D03*
G01*
X2544204Y-2568003D03*
G01*
X2544204Y-2384996D03*
G01*
X2434196Y-2384996D03*
D48*
G01*
X2425700Y-2157402D03*
G01*
X2425700Y-1957397D03*
D15*
G01*
X3087697Y-1866900D03*
G01*
X3287702Y-1866900D03*
D49*
G01*
X2595090Y-1739900D03*
D50*
G01*
X2595087Y-1834889D03*
D51*
G01*
X2595095Y-1644909D03*
D52*
G01*
X2815103Y-1834903D03*
D53*
G01*
X2815103Y-1644897D03*
M02*
