G04 Layer: TopLayer*
G04 EasyEDA v6.5.47, 2024-10-31 16:23:14*
G04 d01961b007cd42f0ad862483726119fd,f99730456eb041dfa0a19156df6b2b6d,10*
G04 Gerber Generator version 0.2*
G04 Scale: 100 percent, Rotated: No, Reflected: No *
G04 Dimensions in millimeters *
G04 leading zeros omitted , absolute positions ,4 integer and 5 decimal *
%FSLAX45Y45*%
%MOMM*%

%AMMACRO1*21,1,$1,$2,0,0,$3*%
%AMMACRO2*4,1,5,-0.508,0.508,0,0.508,0.508,0,0,-0.508,-0.508,-0.508,-0.508,0.508,0*%
%AMMACRO3*4,1,5,-0.508,0.508,0.508,0.508,0.508,-0.508,-0.508,-0.508,0,0,-0.508,0.508,0*%
%AMMACRO4*4,1,22,1.2641,-1.2243,-0.6638,-1.2243,-0.6638,-1.176,-1.2641,-1.176,-1.2641,-0.7747,-0.6638,-0.7747,-0.6638,-0.5258,-1.2641,-0.5258,-1.2641,-0.1245,-0.6638,-0.1245,-0.6638,0.1245,-1.2641,0.1245,-1.2641,0.5258,-0.6638,0.5258,-0.6638,0.7747,-1.2641,0.7747,-0.6638,0.7747,-1.2641,0.7747,-1.2641,1.176,-0.6638,1.176,-0.6638,1.2243,1.2641,1.2243,1.2641,-1.2243,0*%
%ADD10C,0.2540*%
%ADD11C,0.6000*%
%ADD12C,0.8000*%
%ADD13C,1.0000*%
%ADD14R,0.9000X0.8000*%
%ADD15R,0.8000X0.9000*%
%ADD16MACRO1,1.35X1.41X90.0000*%
%ADD17R,1.0000X0.7500*%
%ADD18R,1.0720X0.5320*%
%ADD19MACRO1,3.24X2.1575X90.0000*%
%ADD20R,2.1575X3.2400*%
%ADD21R,1.0000X3.5000*%
%ADD22R,1.5000X3.5000*%
%ADD23MACRO2*%
%ADD24MACRO3*%
%ADD25R,4.1000X4.0500*%
%ADD26R,1.2500X0.7000*%
%ADD27R,0.8000X1.7000*%
%ADD28R,0.7500X0.3500*%
%ADD29MACRO4*%
%ADD30R,2.0000X1.0000*%
%ADD31R,0.7000X0.7000*%
%ADD32MACRO1,1.1989X1.8009X0.0000*%
%ADD33MACRO1,0.5994X1.5494X0.0000*%
%ADD34MACRO1,0.602X1.5494X0.0000*%
%ADD35MACRO1,1.2014X1.8009X0.0000*%
%ADD36R,3.3000X2.3000*%
%ADD37O,0.6999986X2.1999956000000003*%
%ADD38MACRO1,1.728X1.485X90.0000*%
%ADD39R,0.6000X1.1000*%
%ADD40R,1.1500X0.3000*%
%ADD41MACRO1,0.3X1.15X-90.0000*%
%ADD42R,1.5240X1.5240*%
%ADD43MACRO1,1X1.3995X90.0000*%
%ADD44R,1.3995X1.0000*%
%ADD45R,2.0000X3.0000*%
%ADD46R,3.0000X2.0000*%
%ADD47MACRO1,0.864X0.8065X-90.0000*%
%ADD48MACRO1,0.864X0.8065X90.0000*%
%ADD49MACRO1,0.864X0.8065X0.0000*%
%ADD50R,0.8640X0.8065*%
%ADD51C,2.5000*%
%ADD52C,1.8000*%
%ADD53O,2.0999958X1.0999978000000001*%
%ADD54O,1.7999964X1.0999978000000001*%
%ADD55C,0.6200*%
%ADD56C,0.0192*%

%LPD*%
G36*
X1229563Y-2819400D02*
G01*
X1225651Y-2818587D01*
X1222298Y-2816352D01*
X1220114Y-2812999D01*
X1219403Y-2809036D01*
X1231696Y-2232456D01*
X1232509Y-2228646D01*
X1234744Y-2225395D01*
X1237996Y-2223262D01*
X1241856Y-2222500D01*
X1945639Y-2222500D01*
X1949551Y-2223262D01*
X1952802Y-2225497D01*
X1955038Y-2228748D01*
X1955800Y-2232660D01*
X1955800Y-2634538D01*
X1955038Y-2638399D01*
X1952802Y-2641701D01*
X1778101Y-2816402D01*
X1774799Y-2818638D01*
X1770938Y-2819400D01*
G37*

%LPD*%
G36*
X5572760Y-3048000D02*
G01*
X5568848Y-3047238D01*
X5565597Y-3045002D01*
X5563362Y-3041751D01*
X5562600Y-3037840D01*
X5562600Y-1957781D01*
X5563362Y-1953920D01*
X5565597Y-1950618D01*
X5568848Y-1948383D01*
X5572760Y-1947621D01*
X5576671Y-1948383D01*
X5579922Y-1950618D01*
X5617108Y-1987804D01*
X5623153Y-1995170D01*
X5630367Y-2001520D01*
X5638596Y-2006600D01*
X5647537Y-2010156D01*
X5656986Y-2012188D01*
X5666638Y-2012645D01*
X5676188Y-2011375D01*
X5685383Y-2008581D01*
X5694019Y-2004212D01*
X5701792Y-1998472D01*
X5708446Y-1991512D01*
X5713831Y-1983536D01*
X5717844Y-1974748D01*
X5720232Y-1965401D01*
X5721096Y-1955800D01*
X5720232Y-1946198D01*
X5717844Y-1936851D01*
X5713831Y-1928063D01*
X5708446Y-1920087D01*
X5701792Y-1913128D01*
X5696610Y-1909165D01*
X5595518Y-1808022D01*
X5593283Y-1804771D01*
X5592521Y-1800860D01*
X5593283Y-1796948D01*
X5595518Y-1793697D01*
X5598820Y-1791462D01*
X5602681Y-1790700D01*
X5963920Y-1790700D01*
X5967831Y-1791462D01*
X5971082Y-1793697D01*
X5973318Y-1796948D01*
X5974080Y-1800860D01*
X5974080Y-3037840D01*
X5973318Y-3041751D01*
X5971082Y-3045002D01*
X5967831Y-3047238D01*
X5963920Y-3048000D01*
G37*

%LPD*%
D10*
X1104900Y-2362200D02*
G01*
X1003300Y-2362200D01*
X938936Y-2426563D01*
X938936Y-2565400D01*
X938936Y-2730500D02*
G01*
X998743Y-2730500D01*
X1043812Y-2775569D01*
X1016000Y-2451100D02*
G01*
X1043812Y-2478912D01*
X1043812Y-2981264D01*
D11*
X788263Y-2730500D02*
G01*
X788263Y-2955310D01*
X779586Y-2963986D01*
X788263Y-2565400D02*
G01*
X788263Y-2730500D01*
X1155700Y-3175000D02*
G01*
X1498600Y-3175000D01*
X2133600Y-2540000D01*
X2133600Y-2336800D01*
X2235200Y-2235200D01*
X2768600Y-2235200D01*
X2838195Y-2165604D01*
X2838195Y-2100326D01*
X779586Y-2963986D02*
G01*
X622300Y-3121273D01*
X622300Y-3276600D01*
D10*
X1562100Y-266700D02*
G01*
X1549400Y-279400D01*
X1549400Y-431800D01*
X1498600Y-482600D01*
X1054100Y-482600D01*
X937412Y-599287D01*
X801395Y-599287D01*
X2806700Y-359029D02*
G01*
X2759329Y-406400D01*
X2730500Y-406400D01*
X2895600Y-862736D02*
G01*
X3035300Y-723036D01*
X3035300Y-190500D01*
X2908300Y-63500D01*
X1320800Y-63500D01*
X1234998Y-149301D01*
X801395Y-149301D01*
X2806700Y-148970D02*
G01*
X2959100Y-301370D01*
X2959100Y-648563D01*
X2895600Y-712063D01*
X3581400Y-1854200D02*
G01*
X2806700Y-1079500D01*
X2806700Y-571500D01*
X2832100Y-571500D01*
X2838195Y-2370201D02*
G01*
X2984500Y-2223896D01*
X2984500Y-2120900D01*
X3022600Y-2082800D01*
X3022600Y-1612900D01*
X2946400Y-1536700D01*
X2552700Y-1536700D01*
X2490800Y-1598599D01*
X2490800Y-1701800D01*
X2730500Y-1320800D02*
G01*
X2692400Y-1282700D01*
X2692400Y-698500D01*
X2593187Y-599287D01*
X2551404Y-599287D01*
X3073400Y-2209800D02*
G01*
X3086100Y-2197100D01*
X3086100Y-1816100D01*
X2159000Y-3327400D02*
G01*
X2222500Y-3263900D01*
X2222500Y-3124200D01*
X3136900Y-3086100D02*
G01*
X2578100Y-3086100D01*
X2374900Y-2882900D01*
X1993900Y-2882900D01*
X1955800Y-2921000D01*
X1955800Y-3327400D01*
X3086100Y-1689100D02*
G01*
X3200400Y-1803400D01*
X3200400Y-2806700D01*
X2551404Y-1349298D02*
G01*
X2662605Y-1460500D01*
X2857500Y-1460500D01*
X2146300Y-2654300D02*
G01*
X1752600Y-3048000D01*
X1752600Y-3327400D01*
X2273300Y-1981200D02*
G01*
X2146300Y-2108200D01*
X2146300Y-2197100D01*
X2551404Y-449300D02*
G01*
X2370099Y-449300D01*
X2057400Y-762000D01*
X2057400Y-1435100D01*
X1879600Y-419100D02*
G01*
X1993900Y-533400D01*
X1993900Y-977900D01*
X1993900Y-977900D01*
X2551429Y-299212D02*
G01*
X1872487Y-299212D01*
X1104900Y-1066800D01*
X1104900Y-1384300D01*
X1485900Y-2057400D02*
G01*
X1384909Y-2057400D01*
X1765300Y-1917700D02*
G01*
X1751736Y-1904136D01*
X1651000Y-1904136D01*
X2870200Y-1771802D02*
G01*
X2870200Y-1854200D01*
X605510Y-1709699D02*
G01*
X613410Y-1701800D01*
X698500Y-1701800D01*
X605510Y-2379700D02*
G01*
X610311Y-2374900D01*
X698500Y-2374900D01*
X605536Y-2299690D02*
G01*
X605536Y-2269693D01*
X860640Y-1663700D02*
G01*
X734631Y-1789709D01*
X605510Y-1789709D01*
X605510Y-1789709D02*
G01*
X1129309Y-1789709D01*
X1257300Y-1917700D01*
X1257300Y-2032000D01*
X1231900Y-2057400D01*
X1155090Y-2057400D01*
D11*
X3632200Y-1512163D02*
G01*
X3582263Y-1562100D01*
X3568700Y-1562100D01*
X2425700Y-2057400D02*
G01*
X2425700Y-1975002D01*
X914400Y-1866900D02*
G01*
X951636Y-1904136D01*
X951636Y-1917700D01*
X711200Y-1460500D02*
G01*
X801395Y-1370304D01*
X801395Y-1349298D01*
X774700Y-1460500D02*
G01*
X801395Y-1433804D01*
X801395Y-1349298D01*
X2425700Y-1834997D02*
G01*
X2381097Y-1879600D01*
X2146300Y-1879600D01*
X2425700Y-1834997D02*
G01*
X2490800Y-1769897D01*
X2490800Y-1701800D02*
G01*
X2490800Y-1769897D01*
X1243837Y-2981197D02*
G01*
X1243329Y-3175000D01*
X2870200Y-1631797D02*
G01*
X2845206Y-1606804D01*
X2690799Y-1606804D01*
X2870200Y-1631797D02*
G01*
X2901797Y-1631797D01*
X2964510Y-1694510D01*
X2964510Y-1973884D01*
X2838195Y-2100198D01*
X2768600Y-2235200D02*
G01*
X2743200Y-2260600D01*
X2743200Y-2370201D01*
X583437Y-1397000D02*
G01*
X469137Y-1511300D01*
X342900Y-1511300D01*
X342900Y-1689100D01*
X177800Y-1854200D01*
X177800Y-2286000D01*
X279400Y-2387600D01*
X279400Y-2463800D01*
X990600Y-3175000D01*
X1155700Y-3175000D01*
X596900Y-1054100D02*
G01*
X622300Y-1028700D01*
X622300Y-444500D01*
X622300Y-190500D02*
G01*
X663498Y-149301D01*
X801395Y-149301D01*
D12*
X101600Y-635000D02*
G01*
X139700Y-673100D01*
X172897Y-673100D01*
X114300Y-990600D02*
G01*
X133197Y-971702D01*
X133197Y-901700D01*
X172897Y-1168400D02*
G01*
X101600Y-1168400D01*
X951636Y-2209800D02*
G01*
X927100Y-2234336D01*
X927100Y-2324100D01*
X1346200Y-2844800D02*
G01*
X1343913Y-2981197D01*
X3098800Y-2476500D02*
G01*
X3070199Y-2505100D01*
X3070199Y-2699499D01*
X3035300Y-2476500D02*
G01*
X3070199Y-2511399D01*
X3070199Y-2699499D01*
D10*
X3098800Y-2476500D02*
G01*
X3070199Y-2505100D01*
X3070199Y-2699499D01*
X3035300Y-2476500D02*
G01*
X3070199Y-2511399D01*
X3070199Y-2699499D01*
X2349500Y-1130300D02*
G01*
X2362200Y-1143000D01*
X2362200Y-1638300D01*
X801395Y-449300D02*
G01*
X831595Y-419100D01*
X1473200Y-419100D01*
X2648204Y-2100198D02*
G01*
X2648204Y-1987295D01*
X2692400Y-1943100D01*
D12*
X1778000Y-965200D02*
G01*
X1772386Y-959586D01*
X1772386Y-879297D01*
X1663700Y-965200D02*
G01*
X1662429Y-879347D01*
X1778000Y-965200D02*
G01*
X1663700Y-965200D01*
X1879600Y-965200D02*
G01*
X1778000Y-965200D01*
X1882394Y-879297D02*
G01*
X1879600Y-882091D01*
X1879600Y-965200D01*
X4877130Y-317500D02*
G01*
X4787900Y-406730D01*
X4787900Y-520700D01*
X4877130Y-317500D02*
G01*
X4864100Y-330530D01*
X4864100Y-520700D01*
X4648200Y-1130300D02*
G01*
X4636983Y-1119083D01*
X4509284Y-1119083D01*
X4597400Y-1079500D02*
G01*
X4592320Y-1074420D01*
X4464621Y-1074420D01*
D13*
X3403600Y-2057400D02*
G01*
X3467648Y-2121448D01*
X3467648Y-2946400D01*
X3479800Y-1209090D02*
G01*
X3454400Y-1234490D01*
X3454400Y-1616786D01*
X2870200Y-2699499D02*
G01*
X2870200Y-2959100D01*
X2882900Y-2946400D01*
X4648200Y-2946400D01*
D12*
X5537200Y-2540000D02*
G01*
X5130800Y-2946400D01*
X4648200Y-2946400D01*
X4572000Y-2870200D01*
X4572000Y-2374900D01*
X4546600Y-2349500D01*
X4348048Y-2349500D01*
X4348048Y-2433751D01*
X4286656Y-2433751D01*
D10*
X5218836Y-2171700D02*
G01*
X5117236Y-2273300D01*
X4965700Y-2273300D01*
X4929352Y-2236952D01*
X4929352Y-2192997D01*
X4457700Y-1714500D02*
G01*
X4483100Y-1739137D01*
X5106268Y-1841500D02*
G01*
X4927600Y-1841500D01*
X4851400Y-1765300D01*
X5282336Y-177800D02*
G01*
X5123941Y-336194D01*
X5123941Y-381000D01*
X4102100Y-1381760D02*
G01*
X4003040Y-1282700D01*
X3771900Y-1282700D01*
X3746500Y-1308100D01*
X3746500Y-1517802D01*
X3886200Y-1657502D01*
X3962400Y-939800D02*
G01*
X3975100Y-927100D01*
X4140200Y-927100D01*
X4229100Y-838200D01*
X4229100Y-777239D01*
X4064863Y-1587500D02*
G01*
X3962400Y-1485036D01*
X3962400Y-1397000D01*
X3873500Y-1358900D02*
G01*
X3886200Y-1371600D01*
X3886200Y-1517497D01*
X4102100Y-777239D02*
G01*
X4091940Y-787400D01*
X3898900Y-787400D01*
D12*
X4139869Y-317500D02*
G01*
X3784600Y-672769D01*
X3784600Y-1041400D01*
X4102100Y-1358900D01*
X4102100Y-1381760D01*
X4292600Y-1074420D02*
G01*
X4464621Y-1074420D01*
X4732400Y-1342199D01*
X4483100Y-777239D02*
G01*
X4483100Y-883920D01*
X4292600Y-1074420D01*
X5123941Y-381000D02*
G01*
X5060441Y-317500D01*
X4877130Y-317500D01*
D10*
X1143000Y-546100D02*
G01*
X939800Y-749300D01*
X801395Y-749300D01*
X5218836Y-2019300D02*
G01*
X5129936Y-1930400D01*
X4902200Y-1930400D01*
X4116552Y-1998002D02*
G01*
X4157002Y-1998002D01*
X4215500Y-2056500D01*
X4406036Y-2056500D01*
X4406036Y-1968500D02*
G01*
X4406036Y-2146300D01*
X4929352Y-1998002D02*
G01*
X5046865Y-1998002D01*
X5068163Y-2019300D01*
D11*
X5068163Y-2171700D02*
G01*
X5068163Y-2019300D01*
X4929352Y-2127999D02*
G01*
X4929352Y-2192997D01*
X4929352Y-2063000D02*
G01*
X4929352Y-2127999D01*
X4116552Y-2127999D02*
G01*
X4134853Y-2146300D01*
X4255363Y-2146300D01*
X4116552Y-2127999D02*
G01*
X4116552Y-2192997D01*
X4116552Y-2063000D02*
G01*
X4116552Y-2127999D01*
X3845140Y-2374900D02*
G01*
X3862400Y-2392159D01*
X3862400Y-2699486D01*
X3960647Y-2095258D02*
G01*
X3845140Y-2210765D01*
X3845140Y-2374900D01*
X4721440Y-2387600D02*
G01*
X4773447Y-2335593D01*
X4773447Y-2095258D01*
X4721440Y-2387600D02*
G01*
X4751400Y-2417559D01*
X4751400Y-2699486D01*
X4079659Y-2374900D02*
G01*
X4105059Y-2349500D01*
X4241800Y-2349500D01*
X4241800Y-2540000D02*
G01*
X4079659Y-2377859D01*
X4079659Y-2374900D01*
X4079659Y-2374900D02*
G01*
X4062399Y-2392159D01*
X4062399Y-2699486D01*
X4955959Y-2387600D02*
G01*
X4951399Y-2392159D01*
X4951399Y-2699486D01*
X4483100Y-2540000D02*
G01*
X4343400Y-2540000D01*
X5664200Y-1955800D02*
G01*
X4732400Y-1024001D01*
X4732400Y-842200D01*
X5270500Y-2362200D02*
G01*
X5435600Y-2362200D01*
X4951399Y-2699486D02*
G01*
X5110886Y-2540000D01*
X5168900Y-2540000D01*
X5168900Y-2362200D02*
G01*
X5105400Y-2425700D01*
X5105400Y-2489200D01*
X5156200Y-2540000D01*
X5168900Y-2540000D01*
D12*
X5257038Y-1841500D02*
G01*
X5537200Y-2121662D01*
X5537200Y-2540000D01*
X5275072Y-2540000D01*
X4666741Y-1651000D02*
G01*
X4736236Y-1720494D01*
X4736236Y-1841500D01*
X4985258Y-1651000D02*
G01*
X5181600Y-1651000D01*
X5256936Y-1726336D01*
X5256936Y-1841500D01*
X4666741Y-1651000D02*
G01*
X4732400Y-1585340D01*
X4732400Y-1342199D01*
X4356100Y-1381760D02*
G01*
X4356100Y-1712899D01*
X4303699Y-1765300D01*
D10*
X3632200Y-1662836D02*
G01*
X3734663Y-1765300D01*
X4103700Y-1765300D01*
X4483100Y-1381760D02*
G01*
X4483100Y-1739036D01*
X4585563Y-1841500D01*
X4229100Y-1381760D02*
G01*
X4215536Y-1395323D01*
X4215536Y-1587500D01*
X4508500Y-190500D02*
G01*
X4622800Y-76200D01*
X4991100Y-76200D01*
X5092700Y-177800D01*
X5131663Y-177800D01*
X4356100Y-777239D02*
G01*
X4381500Y-751839D01*
X4381500Y-635000D01*
D13*
X4229100Y-777239D02*
G01*
X4229100Y-622300D01*
X4381500Y-469900D01*
X4508500Y-469900D01*
X4732274Y-693673D01*
X4732274Y-842263D01*
X4732400Y-842200D02*
G01*
X4981257Y-842200D01*
X5442458Y-381000D01*
X4139869Y-317500D02*
G01*
X4086479Y-264109D01*
X3479800Y-264109D01*
D10*
X1104900Y-2362200D02*
G01*
X1143888Y-2401188D01*
X1143888Y-2981261D01*
X2551404Y-149301D02*
G01*
X1895398Y-149301D01*
X1041400Y-1003300D01*
X1016000Y-1028700D01*
X1016000Y-1498600D01*
X2298700Y-2349500D02*
G01*
X2425700Y-2476500D01*
X2425700Y-2844800D01*
X2552700Y-2971800D01*
X2794000Y-2971800D01*
X2870200Y-2895600D01*
X2870200Y-2699499D01*
X1857159Y-1549400D02*
G01*
X1917700Y-1609940D01*
X1917700Y-1778000D01*
X2648204Y-2370201D02*
G01*
X2670200Y-2392197D01*
X2670200Y-2699499D01*
X2690799Y-1796795D02*
G01*
X2512593Y-1975002D01*
X2425700Y-1975002D01*
X2870200Y-1771802D02*
G01*
X2845206Y-1796795D01*
X2690799Y-1796795D01*
X2690799Y-1606804D02*
G01*
X2715793Y-1631797D01*
X2870200Y-1631797D01*
X2006600Y-1612900D02*
G01*
X2006600Y-1549400D01*
X1905000Y-1447800D01*
X1724240Y-1447800D01*
X1622640Y-1549400D01*
X2425700Y-1834997D02*
G01*
X2381097Y-1879600D01*
X2146300Y-1879600D01*
X2425700Y-1834997D02*
G01*
X2490800Y-1769897D01*
X2490800Y-1701800D01*
X1772386Y-769289D02*
G01*
X1772386Y-879297D01*
X1662404Y-659282D02*
G01*
X1772386Y-659282D01*
X1662404Y-659282D02*
G01*
X1662404Y-769289D01*
X1772386Y-769289D02*
G01*
X1662404Y-769289D01*
X1882394Y-659282D02*
G01*
X1882394Y-769289D01*
X1772386Y-659282D02*
G01*
X1882394Y-659282D01*
X1772386Y-769289D02*
G01*
X1772386Y-659282D01*
X1882394Y-769289D02*
G01*
X1772386Y-769289D01*
X1882394Y-879297D02*
G01*
X1882394Y-769289D01*
X1772386Y-879297D02*
G01*
X1882394Y-879297D01*
X1662404Y-879297D02*
G01*
X1772386Y-879297D01*
X1662404Y-769289D02*
G01*
X1662404Y-879297D01*
X596900Y-1054100D02*
G01*
X570636Y-1027836D01*
X570636Y-901700D01*
X583336Y-1397000D02*
G01*
X635000Y-1345336D01*
X635000Y-1282700D01*
X133197Y-901700D02*
G01*
X172897Y-941400D01*
X172897Y-1168400D01*
X172897Y-673100D02*
G01*
X133197Y-712800D01*
X133197Y-901700D01*
X801395Y-299288D02*
G01*
X589711Y-299288D01*
X508000Y-381000D01*
X512902Y-385902D01*
X512902Y-673100D01*
X512902Y-673100D02*
G01*
X419963Y-766038D01*
X419963Y-901700D01*
X273202Y-901700D02*
G01*
X419963Y-901700D01*
X285902Y-1397000D02*
G01*
X432663Y-1397000D01*
X432663Y-1397000D02*
G01*
X512902Y-1316761D01*
X512902Y-1168400D01*
X172897Y-1168400D02*
G01*
X145897Y-1195400D01*
X145897Y-1397000D01*
X512902Y-1168400D02*
G01*
X543788Y-1199286D01*
X801395Y-1199286D01*
X1857247Y-1549400D02*
G01*
X1651000Y-1753362D01*
X1484299Y-1556004D02*
G01*
X1490903Y-1549400D01*
X1622640Y-1549400D01*
X1484299Y-1745995D02*
G01*
X1491767Y-1753463D01*
X1651000Y-1753463D01*
X1284300Y-1651000D02*
G01*
X1271600Y-1663700D01*
X1095159Y-1663700D01*
X1524000Y-2146300D02*
G01*
X1517904Y-2152395D01*
X1384909Y-2152395D01*
X2551404Y-749300D02*
G01*
X2349500Y-749300D01*
X2184400Y-914400D01*
X2171700Y-927100D01*
X2171700Y-1625600D01*
X1752600Y-2044700D01*
X1676400Y-2044700D01*
X605510Y-2119706D02*
G01*
X1122400Y-2119706D01*
X1155090Y-2152395D01*
X1155192Y-1962404D02*
G01*
X1072895Y-1962404D01*
X1003300Y-2032000D01*
X787400Y-2032000D01*
X722629Y-1969770D01*
X605536Y-1969770D01*
X800963Y-2209800D02*
G01*
X791057Y-2219705D01*
X605510Y-2219705D01*
X800862Y-1917700D02*
G01*
X605536Y-1919731D01*
X605510Y-2019706D02*
G01*
X698906Y-2019706D01*
X711200Y-2032000D01*
X711200Y-2095500D01*
X686993Y-2119706D01*
X605510Y-2119706D01*
X605536Y-1969770D02*
G01*
X519429Y-1969770D01*
X495300Y-1993900D01*
X495300Y-2057400D01*
X508507Y-2069592D01*
X605536Y-2069592D01*
X801395Y-1049299D02*
G01*
X855700Y-1049299D01*
X1003300Y-901700D01*
X801395Y-1199286D02*
G01*
X932586Y-1199286D01*
X952500Y-1219200D01*
X2551404Y-449300D02*
G01*
X2584704Y-482600D01*
X2781300Y-482600D01*
X3124200Y-482600D02*
G01*
X3187700Y-482600D01*
X3251200Y-546100D01*
X3441700Y-546100D01*
X1155700Y-762000D02*
G01*
X1041400Y-762000D01*
X904112Y-899287D01*
X801395Y-899287D01*
X2057400Y-419100D02*
G01*
X2057400Y-596900D01*
X2082800Y-622300D01*
X1663700Y-152400D02*
G01*
X1663700Y-292100D01*
X1612900Y-342900D01*
X4255261Y-1968500D02*
G01*
X4204461Y-1917700D01*
X3479800Y-1917700D01*
X2743200Y-1181100D01*
X2743200Y-609600D01*
X1384807Y-1962404D02*
G01*
X1492504Y-1962404D01*
X1638300Y-2108200D01*
X1803400Y-2108200D01*
X2247900Y-1663700D01*
X2247900Y-990600D01*
X2339340Y-899413D01*
X2551429Y-899413D01*
X605536Y-1789684D02*
G01*
X572515Y-1789684D01*
X533400Y-1828800D01*
X355600Y-1828800D01*
X304800Y-1879600D01*
X304800Y-2209800D01*
X364744Y-2269744D01*
X605536Y-2269744D01*
X431800Y-2844800D02*
G01*
X215900Y-2844800D01*
X4089400Y-3060700D02*
G01*
X4102341Y-3047758D01*
X4102341Y-2946400D01*
X2743200Y-2370201D02*
G01*
X2743200Y-2425700D01*
X2794000Y-2476500D01*
X2921000Y-2476500D01*
X3009900Y-2387600D01*
X3035300Y-2362200D01*
X3124200Y-2362200D01*
X3289300Y-2552700D02*
G01*
X3327400Y-2514600D01*
X3327400Y-2311400D01*
X4255008Y-2212339D02*
G01*
X4255261Y-2146300D01*
X4953000Y-2235200D02*
G01*
X4929327Y-2211527D01*
X4929327Y-2193010D01*
D14*
G01*
X2425700Y-1834997D03*
G01*
X2425700Y-1975002D03*
G01*
X2870200Y-1631797D03*
G01*
X2870200Y-1771802D03*
G01*
X3886200Y-1517497D03*
G01*
X3886200Y-1657502D03*
D15*
G01*
X285902Y-1397000D03*
G01*
X145897Y-1397000D03*
G01*
X273202Y-901700D03*
G01*
X133197Y-901700D03*
D16*
G01*
X4303702Y-1765300D03*
G01*
X4103697Y-1765300D03*
D17*
G01*
X860653Y-1663700D03*
G01*
X1095146Y-1663700D03*
G01*
X3845153Y-2374900D03*
G01*
X4079646Y-2374900D03*
G01*
X1857146Y-1549400D03*
G01*
X1622653Y-1549400D03*
G01*
X4721453Y-2387600D03*
G01*
X4955946Y-2387600D03*
D18*
G01*
X1384909Y-2152395D03*
G01*
X1384909Y-2057400D03*
G01*
X1384909Y-1962404D03*
G01*
X1155090Y-1962404D03*
G01*
X1155090Y-2057400D03*
G01*
X1155090Y-2152395D03*
D19*
G01*
X4877123Y-317500D03*
D20*
G01*
X4139869Y-317500D03*
D21*
G01*
X3862400Y-2699486D03*
G01*
X4062399Y-2699486D03*
D22*
G01*
X3627399Y-3269487D03*
G01*
X4297400Y-3269487D03*
D21*
G01*
X4751400Y-2699486D03*
G01*
X4951399Y-2699486D03*
D22*
G01*
X4516399Y-3269487D03*
G01*
X5186400Y-3269487D03*
D23*
G01*
X5168900Y-2362200D03*
D24*
G01*
X5245100Y-2362200D03*
D23*
G01*
X5168900Y-2540000D03*
D24*
G01*
X5245100Y-2540000D03*
D23*
G01*
X4241800Y-2540000D03*
D24*
G01*
X4318000Y-2540000D03*
D23*
G01*
X4241800Y-2349500D03*
D24*
G01*
X4318000Y-2349500D03*
D25*
G01*
X3479800Y-264109D03*
G01*
X3479800Y-1209090D03*
D26*
G01*
X1484299Y-1745995D03*
G01*
X1484299Y-1556004D03*
G01*
X1284300Y-1651000D03*
D27*
G01*
X512902Y-1168400D03*
G01*
X172897Y-1168400D03*
G01*
X512902Y-673100D03*
G01*
X172897Y-673100D03*
D22*
G01*
X2435199Y-3269487D03*
D21*
G01*
X3070199Y-2699486D03*
G01*
X2870200Y-2699486D03*
G01*
X2670200Y-2699486D03*
D22*
G01*
X3305200Y-3269487D03*
D26*
G01*
X2690799Y-1796795D03*
G01*
X2690799Y-1606804D03*
G01*
X2490800Y-1701800D03*
D28*
G01*
X4116527Y-1998014D03*
G01*
X4116527Y-2063013D03*
G01*
X4116527Y-2127986D03*
G01*
X4116527Y-2193010D03*
D29*
G01*
X3892054Y-2095309D03*
D28*
G01*
X4929327Y-1998014D03*
G01*
X4929327Y-2063013D03*
G01*
X4929327Y-2127986D03*
G01*
X4929327Y-2193010D03*
D29*
G01*
X4704854Y-2095309D03*
D30*
G01*
X801395Y-149301D03*
G01*
X801395Y-299288D03*
G01*
X801395Y-449300D03*
G01*
X801395Y-599287D03*
G01*
X801395Y-749300D03*
G01*
X801395Y-899287D03*
G01*
X801395Y-1049299D03*
G01*
X801395Y-1199286D03*
G01*
X801395Y-1349298D03*
G01*
X2551404Y-1349298D03*
G01*
X2551404Y-1199286D03*
G01*
X2551404Y-1049299D03*
G01*
X2551404Y-899287D03*
G01*
X2551404Y-749300D03*
G01*
X2551404Y-599287D03*
G01*
X2551404Y-449300D03*
G01*
X2551404Y-299288D03*
G01*
X2551404Y-149301D03*
D31*
G01*
X1662404Y-659282D03*
G01*
X1662404Y-769289D03*
G01*
X1662404Y-879297D03*
G01*
X1772386Y-659282D03*
G01*
X1772386Y-769289D03*
G01*
X1772386Y-879297D03*
G01*
X1882394Y-879297D03*
G01*
X1882394Y-769289D03*
G01*
X1882394Y-659282D03*
D32*
G01*
X913757Y-3368725D03*
D33*
G01*
X1343779Y-2981248D03*
D34*
G01*
X1243830Y-2981248D03*
D33*
G01*
X1143881Y-2981248D03*
G01*
X1043805Y-2981248D03*
D35*
G01*
X1473827Y-3368725D03*
D36*
G01*
X4292600Y-1074420D03*
D37*
G01*
X4483100Y-777239D03*
G01*
X4356100Y-777239D03*
G01*
X4229100Y-777239D03*
G01*
X4102100Y-777239D03*
G01*
X4483100Y-1381760D03*
G01*
X4356100Y-1381760D03*
G01*
X4229100Y-1381760D03*
G01*
X4102100Y-1381760D03*
D38*
G01*
X5442450Y-381000D03*
G01*
X5123949Y-381000D03*
G01*
X4985250Y-1651000D03*
G01*
X4666749Y-1651000D03*
D39*
G01*
X2648204Y-2100198D03*
G01*
X2743200Y-2100198D03*
G01*
X2838195Y-2100198D03*
G01*
X2838195Y-2370201D03*
G01*
X2743200Y-2370201D03*
G01*
X2648204Y-2370201D03*
D40*
G01*
X605510Y-2379700D03*
G01*
X605510Y-2349703D03*
G01*
X605536Y-2299690D03*
D41*
G01*
X605539Y-2269699D03*
D40*
G01*
X605510Y-2219705D03*
G01*
X605612Y-2169668D03*
G01*
X605510Y-2119706D03*
G01*
X605510Y-2069693D03*
G01*
X605510Y-2019706D03*
G01*
X605510Y-1969693D03*
G01*
X605510Y-1919706D03*
G01*
X605612Y-1869694D03*
G01*
X605510Y-1819706D03*
G01*
X605510Y-1789709D03*
G01*
X605510Y-1739696D03*
G01*
X605510Y-1709699D03*
D42*
G01*
X1955800Y-3327400D03*
G01*
X1752600Y-3327400D03*
G01*
X2159000Y-3327400D03*
D43*
G01*
X2806700Y-359028D03*
D44*
G01*
X2806700Y-148970D03*
D45*
G01*
X622300Y-3276600D03*
D46*
G01*
X215900Y-2844800D03*
D47*
G01*
X788275Y-2730500D03*
G01*
X938924Y-2730500D03*
G01*
X788275Y-2565400D03*
G01*
X938924Y-2565400D03*
G01*
X800975Y-2209800D03*
G01*
X951624Y-2209800D03*
D48*
G01*
X951624Y-1917700D03*
G01*
X800975Y-1917700D03*
G01*
X583324Y-1397000D03*
G01*
X432675Y-1397000D03*
G01*
X5218824Y-2171700D03*
G01*
X5068175Y-2171700D03*
G01*
X570624Y-901700D03*
G01*
X419975Y-901700D03*
D47*
G01*
X4255375Y-2146300D03*
G01*
X4406024Y-2146300D03*
D49*
G01*
X1651000Y-1753475D03*
D50*
G01*
X1651000Y-1904136D03*
D47*
G01*
X5068175Y-2019300D03*
G01*
X5218824Y-2019300D03*
D48*
G01*
X4215524Y-1587500D03*
G01*
X4064875Y-1587500D03*
D49*
G01*
X3632200Y-1662824D03*
D50*
G01*
X3632200Y-1512163D03*
D48*
G01*
X5282324Y-177800D03*
G01*
X5131675Y-177800D03*
G01*
X5256924Y-1841500D03*
G01*
X5106275Y-1841500D03*
G01*
X4736224Y-1841500D03*
G01*
X4585575Y-1841500D03*
G01*
X4406024Y-1968500D03*
G01*
X4255375Y-1968500D03*
D49*
G01*
X2895600Y-862724D03*
D50*
G01*
X2895600Y-712063D03*
D51*
G01*
X4732400Y-1342212D03*
G01*
X4732400Y-842213D03*
D52*
G01*
X5732399Y-542213D03*
G01*
X5732399Y-1642211D03*
D53*
G01*
X548995Y-1612696D03*
G01*
X548995Y-2476703D03*
D54*
G01*
X130987Y-2476703D03*
G01*
X130987Y-1612696D03*
D55*
G01*
X1676400Y-2044700D03*
G01*
X1524000Y-2146300D03*
G01*
X635000Y-1282700D03*
G01*
X596900Y-1054100D03*
G01*
X2146300Y-1879600D03*
G01*
X2006600Y-1612900D03*
G01*
X1917700Y-1778000D03*
G01*
X2298700Y-2349500D03*
G01*
X1016000Y-1498600D03*
G01*
X1016000Y-2451100D03*
G01*
X1104900Y-1384300D03*
G01*
X1104900Y-2362200D03*
G01*
X4381500Y-635000D03*
G01*
X4508500Y-190500D03*
G01*
X5435600Y-2362200D03*
G01*
X5664200Y-1955800D03*
G01*
X4483100Y-2540000D03*
G01*
X2743200Y-609600D03*
G01*
X1155700Y-762000D03*
G01*
X4902200Y-1930400D03*
G01*
X3581400Y-1854200D03*
G01*
X2832100Y-571500D03*
G01*
X1143000Y-546100D03*
G01*
X3898900Y-787400D03*
G01*
X3873500Y-1358900D03*
G01*
X3962400Y-1397000D03*
G01*
X3962400Y-939800D03*
G01*
X4787900Y-520700D03*
G01*
X4864100Y-520700D03*
G01*
X4851400Y-1765300D03*
G01*
X4457700Y-1714500D03*
G01*
X3454400Y-1616786D03*
G01*
X3403600Y-2057400D03*
G01*
X4597400Y-1079500D03*
G01*
X4648200Y-1130300D03*
G01*
X3568700Y-1562100D03*
G01*
X3035300Y-2476500D03*
G01*
X3098800Y-2476500D03*
G01*
X2870200Y-1854200D03*
G01*
X2425700Y-2057400D03*
G01*
X1765300Y-1917700D03*
G01*
X1485900Y-2057400D03*
G01*
X927100Y-2324100D03*
G01*
X914400Y-1866900D03*
G01*
X698500Y-1701800D03*
G01*
X698500Y-2374900D03*
G01*
X711200Y-1460500D03*
G01*
X774700Y-1460500D03*
G01*
X152400Y-1485900D03*
G01*
X101600Y-1168400D03*
G01*
X114300Y-990600D03*
G01*
X101600Y-635000D03*
G01*
X1663700Y-965200D03*
G01*
X1778000Y-965200D03*
G01*
X1879600Y-965200D03*
G01*
X2692400Y-1943100D03*
G01*
X1473200Y-419100D03*
G01*
X1879600Y-419100D03*
G01*
X1993900Y-977900D03*
G01*
X2349500Y-1130300D03*
G01*
X2362200Y-1638300D03*
G01*
X1346200Y-2844800D03*
G01*
X622300Y-444500D03*
G01*
X622300Y-190500D03*
G01*
X2057400Y-1435100D03*
G01*
X2273300Y-1981200D03*
G01*
X2146300Y-2197100D03*
G01*
X2146300Y-2654300D03*
G01*
X2857500Y-1460500D03*
G01*
X3086100Y-1689100D03*
G01*
X3200400Y-2806700D03*
G01*
X3136900Y-3086100D03*
G01*
X2222500Y-3124200D03*
G01*
X3073400Y-2209800D03*
G01*
X3086100Y-1816100D03*
G01*
X2730500Y-1320800D03*
G01*
X2730500Y-406400D03*
G01*
X1562100Y-266700D03*
G01*
X1003300Y-901700D03*
G01*
X952500Y-1219200D03*
G01*
X1079500Y-406400D03*
G01*
X2781300Y-482600D03*
G01*
X3124200Y-482600D03*
G01*
X3441700Y-546100D03*
G01*
X1663700Y-152400D03*
G01*
X2057400Y-419100D03*
G01*
X2159000Y-812800D03*
G01*
X2082800Y-622300D03*
G01*
X2349500Y-622300D03*
G01*
X1282700Y-622300D03*
G01*
X1612900Y-342900D03*
G01*
X431800Y-2844800D03*
G01*
X4089400Y-3060700D03*
G01*
X3124200Y-2362200D03*
G01*
X3289300Y-2552700D03*
G01*
X3327400Y-2311400D03*
G01*
X4254881Y-2212365D03*
G01*
X4953000Y-2235200D03*
M02*
