G04 Layer: TopSilkscreenLayer*
G04 EasyEDA v6.5.47, 2024-10-31 16:23:14*
G04 d01961b007cd42f0ad862483726119fd,f99730456eb041dfa0a19156df6b2b6d,10*
G04 Gerber Generator version 0.2*
G04 Scale: 100 percent, Rotated: No, Reflected: No *
G04 Dimensions in millimeters *
G04 leading zeros omitted , absolute positions ,4 integer and 5 decimal *
%FSLAX45Y45*%
%MOMM*%

%ADD10C,0.1524*%
%ADD11C,0.2032*%
%ADD12C,0.1530*%
%ADD13C,0.2540*%
%ADD14C,0.1520*%
%ADD15C,0.1500*%
%ADD16C,0.1000*%
%ADD17C,0.2000*%
%ADD18C,0.1200*%
%ADD19C,0.3000*%
%ADD20C,0.5000*%
%ADD21C,0.0135*%

%LPD*%
D10*
X4128515Y-736600D02*
G01*
X4019550Y-736600D01*
X4019550Y-736600D02*
G01*
X4019550Y-798829D01*
X4107688Y-833120D02*
G01*
X4113022Y-843534D01*
X4128515Y-859281D01*
X4019550Y-859281D01*
D11*
X1100363Y365632D02*
G01*
X1026449Y171830D01*
X1100363Y365632D02*
G01*
X1174277Y171830D01*
X1054135Y236346D02*
G01*
X1146591Y236346D01*
X1235237Y365632D02*
G01*
X1235237Y171830D01*
X1235237Y365632D02*
G01*
X1364523Y171830D01*
X1364523Y365632D02*
G01*
X1364523Y171830D01*
X1489999Y365632D02*
G01*
X1489999Y171830D01*
X1425483Y365632D02*
G01*
X1554769Y365632D01*
X1615729Y365632D02*
G01*
X1615729Y171830D01*
X1615729Y365632D02*
G01*
X1735871Y365632D01*
X1615729Y273430D02*
G01*
X1689643Y273430D01*
X1615729Y171830D02*
G01*
X1735871Y171830D01*
X1796831Y365632D02*
G01*
X1796831Y171830D01*
X1796831Y365632D02*
G01*
X1926117Y171830D01*
X1926117Y365632D02*
G01*
X1926117Y171830D01*
X1987077Y365632D02*
G01*
X1987077Y171830D01*
X1987077Y365632D02*
G01*
X2116363Y171830D01*
X2116363Y365632D02*
G01*
X2116363Y171830D01*
X2251237Y365632D02*
G01*
X2177323Y171830D01*
X2251237Y365632D02*
G01*
X2325151Y171830D01*
X2205009Y236346D02*
G01*
X2297211Y236346D01*
D12*
X1727200Y-3134105D02*
G01*
X1734565Y-3130550D01*
X1745487Y-3119628D01*
X1745487Y-3196081D01*
X1933956Y-3137915D02*
G01*
X1933956Y-3134105D01*
X1937765Y-3126994D01*
X1941322Y-3123184D01*
X1948688Y-3119628D01*
X1963165Y-3119628D01*
X1970277Y-3123184D01*
X1974088Y-3126994D01*
X1977643Y-3134105D01*
X1977643Y-3141471D01*
X1974088Y-3148837D01*
X1966722Y-3159760D01*
X1930400Y-3196081D01*
X1981200Y-3196081D01*
X2140965Y-3119628D02*
G01*
X2180843Y-3119628D01*
X2159000Y-3148837D01*
X2169922Y-3148837D01*
X2177288Y-3152394D01*
X2180843Y-3155950D01*
X2184400Y-3166871D01*
X2184400Y-3174237D01*
X2180843Y-3185160D01*
X2173477Y-3192526D01*
X2162809Y-3196081D01*
X2151888Y-3196081D01*
X2140965Y-3192526D01*
X2137156Y-3188715D01*
X2133600Y-3181604D01*
D10*
X595884Y-3062986D02*
G01*
X595884Y-3005836D01*
X637539Y-3037078D01*
X637539Y-3021329D01*
X642620Y-3011170D01*
X647700Y-3005836D01*
X663447Y-3000755D01*
X673862Y-3000755D01*
X689355Y-3005836D01*
X699770Y-3016250D01*
X704850Y-3031744D01*
X704850Y-3047492D01*
X699770Y-3062986D01*
X694689Y-3068320D01*
X684276Y-3073400D01*
X595884Y-2966465D02*
G01*
X704850Y-2924810D01*
X595884Y-2883154D02*
G01*
X704850Y-2924810D01*
X595884Y-2838450D02*
G01*
X595884Y-2781300D01*
X637539Y-2812542D01*
X637539Y-2797047D01*
X642620Y-2786634D01*
X647700Y-2781300D01*
X663447Y-2776220D01*
X673862Y-2776220D01*
X689355Y-2781300D01*
X699770Y-2791713D01*
X704850Y-2807462D01*
X704850Y-2822955D01*
X699770Y-2838450D01*
X694689Y-2843784D01*
X684276Y-2848863D01*
X293878Y-2577592D02*
G01*
X288544Y-2567178D01*
X278129Y-2556763D01*
X267970Y-2551684D01*
X247142Y-2551684D01*
X236728Y-2556763D01*
X226313Y-2567178D01*
X220979Y-2577592D01*
X215900Y-2593339D01*
X215900Y-2619247D01*
X220979Y-2634742D01*
X226313Y-2645155D01*
X236728Y-2655570D01*
X247142Y-2660650D01*
X267970Y-2660650D01*
X278129Y-2655570D01*
X288544Y-2645155D01*
X293878Y-2634742D01*
X293878Y-2619247D01*
X267970Y-2619247D02*
G01*
X293878Y-2619247D01*
X328168Y-2551684D02*
G01*
X328168Y-2660650D01*
X328168Y-2551684D02*
G01*
X400812Y-2660650D01*
X400812Y-2551684D02*
G01*
X400812Y-2660650D01*
X435102Y-2551684D02*
G01*
X435102Y-2660650D01*
X435102Y-2551684D02*
G01*
X471423Y-2551684D01*
X487171Y-2556763D01*
X497586Y-2567178D01*
X502665Y-2577592D01*
X508000Y-2593339D01*
X508000Y-2619247D01*
X502665Y-2634742D01*
X497586Y-2645155D01*
X487171Y-2655570D01*
X471423Y-2660650D01*
X435102Y-2660650D01*
G36*
X1055420Y-1708708D02*
G01*
X1055420Y-1743964D01*
X1085900Y-1743964D01*
X1085900Y-1708708D01*
G37*
G36*
X1055420Y-1583436D02*
G01*
X1055420Y-1618691D01*
X1085900Y-1618691D01*
X1085900Y-1583436D01*
G37*
G36*
X4039920Y-2419908D02*
G01*
X4039920Y-2455164D01*
X4070400Y-2455164D01*
X4070400Y-2419908D01*
G37*
G36*
X4039920Y-2294636D02*
G01*
X4039920Y-2329891D01*
X4070400Y-2329891D01*
X4070400Y-2294636D01*
G37*
G36*
X1631899Y-1469136D02*
G01*
X1631899Y-1504391D01*
X1662379Y-1504391D01*
X1662379Y-1469136D01*
G37*
G36*
X1631899Y-1594408D02*
G01*
X1631899Y-1629664D01*
X1662379Y-1629664D01*
X1662379Y-1594408D01*
G37*
G36*
X4916220Y-2432608D02*
G01*
X4916220Y-2467864D01*
X4946700Y-2467864D01*
X4946700Y-2432608D01*
G37*
G36*
X4916220Y-2307336D02*
G01*
X4916220Y-2342591D01*
X4946700Y-2342591D01*
X4946700Y-2307336D01*
G37*
G36*
X4072788Y-7264D02*
G01*
X4072788Y-140258D01*
X4118508Y-140258D01*
X4118508Y-7264D01*
G37*
G36*
X4072788Y-494741D02*
G01*
X4072788Y-627735D01*
X4118508Y-627735D01*
X4118508Y-494741D01*
G37*
D13*
X2385722Y-1765998D02*
G01*
X2465725Y-1765998D01*
X2354737Y-1876973D02*
G01*
X2354737Y-1796976D01*
X2496703Y-1876973D02*
G01*
X2496703Y-1796976D01*
X2354155Y-1934563D02*
G01*
X2354155Y-2014562D01*
X2385138Y-2045545D02*
G01*
X2465136Y-2045545D01*
X2496116Y-1934563D02*
G01*
X2496116Y-2014562D01*
X2830222Y-1562798D02*
G01*
X2910225Y-1562798D01*
X2799237Y-1673773D02*
G01*
X2799237Y-1593776D01*
X2941203Y-1673773D02*
G01*
X2941203Y-1593776D01*
X2798655Y-1731363D02*
G01*
X2798655Y-1811362D01*
X2829638Y-1842345D02*
G01*
X2909636Y-1842345D01*
X2940616Y-1731363D02*
G01*
X2940616Y-1811362D01*
X3846222Y-1448498D02*
G01*
X3926225Y-1448498D01*
X3815237Y-1559473D02*
G01*
X3815237Y-1479476D01*
X3957203Y-1559473D02*
G01*
X3957203Y-1479476D01*
X3814655Y-1617063D02*
G01*
X3814655Y-1697062D01*
X3845638Y-1728045D02*
G01*
X3925636Y-1728045D01*
X3956616Y-1617063D02*
G01*
X3956616Y-1697062D01*
X354901Y-1357022D02*
G01*
X354901Y-1437025D01*
X243926Y-1326037D02*
G01*
X323923Y-1326037D01*
X243926Y-1468003D02*
G01*
X323923Y-1468003D01*
X186336Y-1325455D02*
G01*
X106337Y-1325455D01*
X75354Y-1356438D02*
G01*
X75354Y-1436436D01*
X186336Y-1467416D02*
G01*
X106337Y-1467416D01*
X342201Y-861722D02*
G01*
X342201Y-941725D01*
X231226Y-830737D02*
G01*
X311223Y-830737D01*
X231226Y-972703D02*
G01*
X311223Y-972703D01*
X173636Y-830155D02*
G01*
X93637Y-830155D01*
X62654Y-861138D02*
G01*
X62654Y-941136D01*
X173636Y-972116D02*
G01*
X93637Y-972116D01*
D10*
X4384819Y-1674939D02*
G01*
X4243819Y-1674939D01*
X4243819Y-1855660D02*
G01*
X4384819Y-1855660D01*
X4400059Y-1840420D02*
G01*
X4400059Y-1690179D01*
X4022580Y-1674939D02*
G01*
X4163580Y-1674939D01*
X4163580Y-1855660D02*
G01*
X4022580Y-1855660D01*
X4007340Y-1840420D02*
G01*
X4007340Y-1690179D01*
D13*
X5880481Y-1600212D02*
G01*
X6047359Y-1597164D01*
X6041516Y-584212D01*
X5887338Y-584212D01*
X4851400Y-1244600D02*
G01*
X4927600Y-1244600D01*
X4927600Y-1206500D01*
X5130800Y-1206500D01*
X5130800Y-965200D01*
X4927600Y-965200D01*
X4927600Y-939800D01*
X4851400Y-939800D01*
X4864100Y-749300D02*
G01*
X4927600Y-749300D01*
X4927600Y-711200D01*
X5130800Y-711200D01*
X5130800Y-584200D01*
X5227700Y-584212D01*
X4864100Y-1435100D02*
G01*
X4927600Y-1435100D01*
X4927600Y-1473200D01*
X5118100Y-1473200D01*
X5118100Y-1600200D01*
X5227700Y-1600212D01*
X5627392Y-584212D02*
G01*
X5227700Y-584212D01*
X5627392Y-1600212D02*
G01*
X5227700Y-1600212D01*
X5588332Y-427212D02*
G01*
X5887410Y-427212D01*
X5590872Y-1757212D02*
G01*
X5880432Y-1757212D01*
X5887410Y-584212D02*
G01*
X5887410Y-427212D01*
X5880432Y-1757212D02*
G01*
X5880432Y-1600212D01*
X5588332Y-584212D02*
G01*
X5588332Y-427212D01*
X5590872Y-1757212D02*
G01*
X5590872Y-1600212D01*
D14*
X887775Y-1591078D02*
G01*
X887775Y-1611701D01*
X887775Y-1736321D02*
G01*
X887775Y-1716699D01*
D10*
X1063020Y-1736321D02*
G01*
X887775Y-1736321D01*
X1063020Y-1591078D02*
G01*
X887775Y-1591078D01*
X1022576Y-1736321D02*
G01*
X1022576Y-1591078D01*
D14*
X3872275Y-2302278D02*
G01*
X3872275Y-2322901D01*
X3872275Y-2447521D02*
G01*
X3872275Y-2427899D01*
D10*
X4047520Y-2447521D02*
G01*
X3872275Y-2447521D01*
X4047520Y-2302278D02*
G01*
X3872275Y-2302278D01*
X4007076Y-2447521D02*
G01*
X4007076Y-2302278D01*
D14*
X1830024Y-1622021D02*
G01*
X1830024Y-1601398D01*
X1830024Y-1476778D02*
G01*
X1830024Y-1496400D01*
D10*
X1654779Y-1476778D02*
G01*
X1830024Y-1476778D01*
X1654779Y-1622021D02*
G01*
X1830024Y-1622021D01*
X1695223Y-1476778D02*
G01*
X1695223Y-1622021D01*
D14*
X4748575Y-2314978D02*
G01*
X4748575Y-2335601D01*
X4748575Y-2460221D02*
G01*
X4748575Y-2440599D01*
D10*
X4923820Y-2460221D02*
G01*
X4748575Y-2460221D01*
X4923820Y-2314978D02*
G01*
X4748575Y-2314978D01*
X4883376Y-2460221D02*
G01*
X4883376Y-2314978D01*
X1358920Y-1903481D02*
G01*
X1181079Y-1903481D01*
X1358920Y-2211318D02*
G01*
X1181079Y-2211318D01*
D13*
X4457700Y-317500D02*
G01*
X4559300Y-368300D01*
X4559300Y-368300D02*
G01*
X4559300Y-266700D01*
X4559300Y-266700D02*
G01*
X4457700Y-317500D01*
X4457700Y-317500D02*
G01*
X4457700Y-368300D01*
X4457700Y-368300D02*
G01*
X4457700Y-266700D01*
X4610100Y-317500D02*
G01*
X4406900Y-317500D01*
D10*
X4110880Y-14876D02*
G01*
X4906119Y-14876D01*
X4110880Y-620123D02*
G01*
X4906119Y-620123D01*
X4258071Y-14876D02*
G01*
X4258071Y-620123D01*
X4906119Y-14876D02*
G01*
X4906119Y-135178D01*
X4906119Y-620123D02*
G01*
X4906119Y-499821D01*
D13*
X3978826Y-3431987D02*
G01*
X4199282Y-3431987D01*
X3978826Y-3431987D02*
G01*
X3725519Y-3431987D01*
X4267309Y-2814792D02*
G01*
X4135513Y-2814792D01*
X4362411Y-2664891D02*
G01*
X4267311Y-2664891D01*
X4267311Y-2664891D02*
G01*
X4267311Y-2814792D01*
X4362414Y-2664891D02*
G01*
X4362414Y-3064278D01*
X3935514Y-2814792D02*
G01*
X3989285Y-2814792D01*
X3784490Y-2814792D02*
G01*
X3789286Y-2814792D01*
X3557602Y-3074266D02*
G01*
X3557602Y-2664891D01*
X3557602Y-2664891D02*
G01*
X3652702Y-2664891D01*
X3652702Y-2814792D01*
X3784490Y-2814792D01*
X4867826Y-3431987D02*
G01*
X5088282Y-3431987D01*
X4867826Y-3431987D02*
G01*
X4614519Y-3431987D01*
X5156309Y-2814792D02*
G01*
X5024513Y-2814792D01*
X5251411Y-2664891D02*
G01*
X5156311Y-2664891D01*
X5156311Y-2664891D02*
G01*
X5156311Y-2814792D01*
X5251414Y-2664891D02*
G01*
X5251414Y-3064278D01*
X4824514Y-2814792D02*
G01*
X4878285Y-2814792D01*
X4673490Y-2814792D02*
G01*
X4678286Y-2814792D01*
X4446602Y-3074266D02*
G01*
X4446602Y-2664891D01*
X4446602Y-2664891D02*
G01*
X4541702Y-2664891D01*
X4541702Y-2814792D01*
X4673490Y-2814792D01*
D11*
X5092700Y-2286000D02*
G01*
X5321300Y-2286000D01*
X5321300Y-2438400D01*
X5092700Y-2438400D01*
X5092700Y-2286000D01*
X5092700Y-2463800D02*
G01*
X5321300Y-2463800D01*
X5321300Y-2616200D01*
X5092700Y-2616200D01*
X5092700Y-2463800D01*
X4165600Y-2463800D02*
G01*
X4394200Y-2463800D01*
X4394200Y-2616200D01*
X4165600Y-2616200D01*
X4165600Y-2463800D01*
X4165600Y-2273300D02*
G01*
X4394200Y-2273300D01*
X4394200Y-2425700D01*
X4165600Y-2425700D01*
X4165600Y-2273300D01*
D13*
X2979798Y-1311597D02*
G01*
X2979800Y-161602D01*
X3979801Y-161602D02*
G01*
X3979799Y-1311597D01*
X3979801Y-161602D02*
G01*
X3707914Y-161602D01*
X3251685Y-161602D02*
G01*
X2979800Y-161602D01*
X2979798Y-1311597D02*
G01*
X3251685Y-1311597D01*
X3707914Y-1311597D02*
G01*
X3979799Y-1311597D01*
D10*
X1456921Y-1498379D02*
G01*
X1311678Y-1498379D01*
X1311678Y-1601541D01*
X1456921Y-1803620D02*
G01*
X1311678Y-1803620D01*
X1311678Y-1700458D01*
X1456921Y-1605460D02*
G01*
X1456921Y-1696539D01*
D13*
X192900Y-1043401D02*
G01*
X492899Y-1043404D01*
X192900Y-1293403D02*
G01*
X492899Y-1293401D01*
X192900Y-1060284D02*
G01*
X192900Y-1043401D01*
X192900Y-1043401D02*
G01*
X492899Y-1043401D01*
X492899Y-1043401D02*
G01*
X492899Y-1060287D01*
X492899Y-1276515D02*
G01*
X492899Y-1293401D01*
X492899Y-1293401D02*
G01*
X192900Y-1293401D01*
X192900Y-1293401D02*
G01*
X192900Y-1277086D01*
X192900Y-548101D02*
G01*
X492899Y-548104D01*
X192900Y-798103D02*
G01*
X492899Y-798101D01*
X192900Y-564984D02*
G01*
X192900Y-548101D01*
X192900Y-548101D02*
G01*
X492899Y-548101D01*
X492899Y-548101D02*
G01*
X492899Y-564987D01*
X492899Y-781215D02*
G01*
X492899Y-798101D01*
X492899Y-798101D02*
G01*
X192900Y-798101D01*
X192900Y-798101D02*
G01*
X192900Y-781786D01*
X3275109Y-2814792D02*
G01*
X3143313Y-2814792D01*
X3275111Y-2664891D02*
G01*
X3275111Y-2814792D01*
X3370211Y-2664891D02*
G01*
X3275111Y-2664891D01*
X3370214Y-2664891D02*
G01*
X3370214Y-3064278D01*
X2786626Y-3431987D02*
G01*
X3207128Y-3431987D01*
X3183257Y-3431987D02*
G01*
X2533319Y-3431987D01*
X2943313Y-2814792D02*
G01*
X2997085Y-2814792D01*
X2743314Y-2814792D02*
G01*
X2797086Y-2814792D01*
X2592290Y-2814792D02*
G01*
X2597086Y-2814792D01*
X2365402Y-3074266D02*
G01*
X2365402Y-2664891D01*
X2365402Y-2664891D02*
G01*
X2460503Y-2664891D01*
X2460503Y-2814792D01*
X2592290Y-2814792D01*
D10*
X2663421Y-1549179D02*
G01*
X2518178Y-1549179D01*
X2518178Y-1652341D01*
X2663421Y-1854420D02*
G01*
X2518178Y-1854420D01*
X2518178Y-1751258D01*
X2663421Y-1656260D02*
G01*
X2663421Y-1747339D01*
D15*
X4122397Y-1930511D02*
G01*
X3792395Y-1930511D01*
X3792395Y-2260513D02*
G01*
X3792395Y-2230826D01*
D16*
X4122397Y-2260513D02*
G01*
X3792395Y-2260513D01*
X4122397Y-1930511D02*
G01*
X3990162Y-1930412D01*
X3792395Y-1930511D01*
D15*
X3792395Y-1930511D02*
G01*
X3792395Y-1959792D01*
X3792395Y-2260513D02*
G01*
X4122397Y-2260513D01*
X4122397Y-2260513D02*
G01*
X4122397Y-2227930D01*
X4122397Y-1963069D02*
G01*
X4122397Y-1930511D01*
X4935197Y-1930511D02*
G01*
X4605195Y-1930511D01*
X4605195Y-2260513D02*
G01*
X4605195Y-2230826D01*
D16*
X4935197Y-2260513D02*
G01*
X4605195Y-2260513D01*
X4935197Y-1930511D02*
G01*
X4802962Y-1930412D01*
X4605195Y-1930511D01*
D15*
X4605195Y-1930511D02*
G01*
X4605195Y-1959792D01*
X4605195Y-2260513D02*
G01*
X4935197Y-2260513D01*
X4935197Y-2260513D02*
G01*
X4935197Y-2227930D01*
X4935197Y-1963069D02*
G01*
X4935197Y-1930511D01*
D17*
X2576400Y-83875D02*
G01*
X2576400Y560710D01*
X776399Y560710D01*
X776399Y-83875D01*
X776399Y-39291D02*
G01*
X2576400Y-39291D01*
X776399Y-1414703D02*
G01*
X776399Y-1439290D01*
X776399Y-1264709D02*
G01*
X776399Y-1283878D01*
X776399Y-1114709D02*
G01*
X776399Y-1133878D01*
X776399Y-964709D02*
G01*
X776399Y-983879D01*
X776399Y-814704D02*
G01*
X776399Y-833876D01*
X776399Y-664702D02*
G01*
X776399Y-683877D01*
X776399Y-514710D02*
G01*
X776399Y-533877D01*
X776399Y-364708D02*
G01*
X776399Y-383877D01*
X776399Y-214708D02*
G01*
X776399Y-233878D01*
X2576400Y-233878D02*
G01*
X2576400Y-214708D01*
X2576400Y-383877D02*
G01*
X2576400Y-364708D01*
X2576400Y-533877D02*
G01*
X2576400Y-514710D01*
X2576400Y-683877D02*
G01*
X2576400Y-664702D01*
X2576400Y-833876D02*
G01*
X2576400Y-814704D01*
X2576400Y-983879D02*
G01*
X2576400Y-964709D01*
X2576400Y-1133878D02*
G01*
X2576400Y-1114709D01*
X2576400Y-1283878D02*
G01*
X2576400Y-1264709D01*
X776399Y-1439290D02*
G01*
X2576400Y-1439290D01*
X2576400Y-1414703D01*
D18*
X1117592Y-3441687D02*
G01*
X990114Y-3441687D01*
X1117592Y-3441687D02*
G01*
X1397342Y-3441687D01*
X1498592Y-3251187D02*
G01*
X1498592Y-3016237D01*
X1408676Y-3016237D01*
X1448549Y-3136125D02*
G01*
X1498592Y-3136125D01*
X1448549Y-3136125D01*
X1448549Y-3066275D02*
G01*
X1498592Y-3066275D01*
X1448549Y-3066275D01*
X1448549Y-3016237D02*
G01*
X1448549Y-3136125D01*
X1448549Y-3016237D01*
X893691Y-3248710D02*
G01*
X893691Y-3013760D01*
X983861Y-3013760D01*
X943729Y-3013760D02*
G01*
X943729Y-3133648D01*
X943729Y-3013760D01*
X943729Y-3063798D02*
G01*
X893691Y-3063798D01*
X943729Y-3063798D01*
X943729Y-3133648D02*
G01*
X893691Y-3133648D01*
X943729Y-3133648D01*
D13*
X4050812Y-879500D02*
G01*
X4042600Y-879500D01*
X4050809Y-1279499D02*
G01*
X4042600Y-1279499D01*
X4542599Y-879500D02*
G01*
X4542599Y-1279499D01*
X4542599Y-1279499D02*
G01*
X4534390Y-1279499D01*
X4431809Y-1279499D02*
G01*
X4407390Y-1279499D01*
X4304809Y-1279499D02*
G01*
X4280390Y-1279499D01*
X4177809Y-1279499D02*
G01*
X4153390Y-1279499D01*
X4542599Y-879500D02*
G01*
X4534387Y-879500D01*
X4431812Y-879500D02*
G01*
X4407387Y-879500D01*
X4304812Y-879500D02*
G01*
X4280387Y-879500D01*
X4177812Y-879500D02*
G01*
X4153387Y-879500D01*
X4042600Y-879500D02*
G01*
X4042600Y-1019500D01*
X4042600Y-1279499D02*
G01*
X4042600Y-1139499D01*
D10*
X5524319Y-271739D02*
G01*
X5375821Y-271739D01*
X5375821Y-490260D02*
G01*
X5524319Y-490260D01*
X5539559Y-475020D02*
G01*
X5539559Y-286979D01*
X5042080Y-271739D02*
G01*
X5190578Y-271739D01*
X5190578Y-490260D02*
G01*
X5042080Y-490260D01*
X5026840Y-475020D02*
G01*
X5026840Y-286979D01*
X5067119Y-1541739D02*
G01*
X4918621Y-1541739D01*
X4918621Y-1760260D02*
G01*
X5067119Y-1760260D01*
X5082359Y-1745020D02*
G01*
X5082359Y-1556979D01*
X4584880Y-1541739D02*
G01*
X4733378Y-1541739D01*
X4733378Y-1760260D02*
G01*
X4584880Y-1760260D01*
X4569640Y-1745020D02*
G01*
X4569640Y-1556979D01*
D13*
X2588209Y-2325199D02*
G01*
X2588209Y-2145197D01*
X2898211Y-2325199D02*
G01*
X2898211Y-2145197D01*
X242643Y-2491699D02*
G01*
X422338Y-2491699D01*
X19329Y-1597700D02*
G01*
X-130944Y-1597700D01*
X-130944Y-2491699D01*
X19329Y-2491699D01*
X422338Y-1597700D02*
G01*
X242643Y-1597700D01*
D12*
X1651000Y-3225800D02*
G01*
X2260600Y-3225800D01*
X2260600Y-3429000D01*
X1651000Y-3429000D01*
X1651000Y-3225800D01*
D13*
X2756700Y-234000D02*
G01*
X2796700Y-273999D01*
X2806700Y-283999D01*
X2816725Y-273999D01*
X2856725Y-234000D01*
X2756700Y-234000D02*
G01*
X2856725Y-234000D01*
X2908427Y-209677D02*
G01*
X2908427Y-54737D01*
X2705227Y-54737D01*
X2705227Y-209677D01*
X2910966Y-288417D02*
G01*
X2910966Y-435737D01*
X2870327Y-476377D01*
X2743327Y-476377D01*
X2705227Y-438277D01*
X2705227Y-285877D01*
D17*
X492300Y-3456599D02*
G01*
X492300Y-3096600D01*
X752299Y-3096600D01*
X752299Y-3456599D01*
X492300Y-3456599D01*
X35900Y-2714800D02*
G01*
X395899Y-2714800D01*
X395899Y-2974799D01*
X35900Y-2974799D01*
X35900Y-2714800D01*
D10*
X820978Y-2664439D02*
G01*
X725091Y-2664439D01*
X725091Y-2796560D01*
X820978Y-2796560D01*
X906221Y-2664439D02*
G01*
X1002108Y-2664439D01*
X1002108Y-2796560D01*
X906221Y-2796560D01*
X820978Y-2499339D02*
G01*
X725091Y-2499339D01*
X725091Y-2631460D01*
X820978Y-2631460D01*
X906221Y-2499339D02*
G01*
X1002108Y-2499339D01*
X1002108Y-2631460D01*
X906221Y-2631460D01*
X833678Y-2143739D02*
G01*
X737791Y-2143739D01*
X737791Y-2275860D01*
X833678Y-2275860D01*
X918921Y-2143739D02*
G01*
X1014808Y-2143739D01*
X1014808Y-2275860D01*
X918921Y-2275860D01*
X918921Y-1983760D02*
G01*
X1014808Y-1983760D01*
X1014808Y-1851639D01*
X918921Y-1851639D01*
X833678Y-1983760D02*
G01*
X737791Y-1983760D01*
X737791Y-1851639D01*
X833678Y-1851639D01*
X550621Y-1463060D02*
G01*
X646508Y-1463060D01*
X646508Y-1330939D01*
X550621Y-1330939D01*
X465378Y-1463060D02*
G01*
X369491Y-1463060D01*
X369491Y-1330939D01*
X465378Y-1330939D01*
X5186121Y-2237760D02*
G01*
X5282008Y-2237760D01*
X5282008Y-2105639D01*
X5186121Y-2105639D01*
X5100878Y-2237760D02*
G01*
X5004991Y-2237760D01*
X5004991Y-2105639D01*
X5100878Y-2105639D01*
X537921Y-967760D02*
G01*
X633808Y-967760D01*
X633808Y-835639D01*
X537921Y-835639D01*
X452678Y-967760D02*
G01*
X356791Y-967760D01*
X356791Y-835639D01*
X452678Y-835639D01*
X4288078Y-2080239D02*
G01*
X4192191Y-2080239D01*
X4192191Y-2212360D01*
X4288078Y-2212360D01*
X4373321Y-2080239D02*
G01*
X4469208Y-2080239D01*
X4469208Y-2212360D01*
X4373321Y-2212360D01*
X1717060Y-1786178D02*
G01*
X1717060Y-1690291D01*
X1584939Y-1690291D01*
X1584939Y-1786178D01*
X1717060Y-1871421D02*
G01*
X1717060Y-1967308D01*
X1584939Y-1967308D01*
X1584939Y-1871421D01*
X5100878Y-1953239D02*
G01*
X5004991Y-1953239D01*
X5004991Y-2085360D01*
X5100878Y-2085360D01*
X5186121Y-1953239D02*
G01*
X5282008Y-1953239D01*
X5282008Y-2085360D01*
X5186121Y-2085360D01*
X4182821Y-1653560D02*
G01*
X4278708Y-1653560D01*
X4278708Y-1521439D01*
X4182821Y-1521439D01*
X4097578Y-1653560D02*
G01*
X4001691Y-1653560D01*
X4001691Y-1521439D01*
X4097578Y-1521439D01*
X3566139Y-1630121D02*
G01*
X3566139Y-1726008D01*
X3698260Y-1726008D01*
X3698260Y-1630121D01*
X3566139Y-1544878D02*
G01*
X3566139Y-1448991D01*
X3698260Y-1448991D01*
X3698260Y-1544878D01*
X5249621Y-243860D02*
G01*
X5345508Y-243860D01*
X5345508Y-111739D01*
X5249621Y-111739D01*
X5164378Y-243860D02*
G01*
X5068491Y-243860D01*
X5068491Y-111739D01*
X5164378Y-111739D01*
X5224221Y-1907560D02*
G01*
X5320108Y-1907560D01*
X5320108Y-1775439D01*
X5224221Y-1775439D01*
X5138978Y-1907560D02*
G01*
X5043091Y-1907560D01*
X5043091Y-1775439D01*
X5138978Y-1775439D01*
X4703521Y-1907560D02*
G01*
X4799408Y-1907560D01*
X4799408Y-1775439D01*
X4703521Y-1775439D01*
X4618278Y-1907560D02*
G01*
X4522391Y-1907560D01*
X4522391Y-1775439D01*
X4618278Y-1775439D01*
X4373321Y-2034560D02*
G01*
X4469208Y-2034560D01*
X4469208Y-1902439D01*
X4373321Y-1902439D01*
X4288078Y-2034560D02*
G01*
X4192191Y-2034560D01*
X4192191Y-1902439D01*
X4288078Y-1902439D01*
X2829539Y-830021D02*
G01*
X2829539Y-925908D01*
X2961660Y-925908D01*
X2961660Y-830021D01*
X2829539Y-744778D02*
G01*
X2829539Y-648891D01*
X2961660Y-648891D01*
X2961660Y-744778D01*
D13*
G75*
G01*
X2385139Y-2045551D02*
G02*
X2354156Y-2014568I0J30983D01*
G75*
G01*
X2496122Y-2014568D02*
G02*
X2465136Y-2045551I-30983J0D01*
G75*
G01*
X2354737Y-1796981D02*
G02*
X2385723Y-1765999I30983J0D01*
G75*
G01*
X2465720Y-1765999D02*
G02*
X2496703Y-1796981I0J-30982D01*
G75*
G01*
X2829639Y-1842351D02*
G02*
X2798656Y-1811368I0J30983D01*
G75*
G01*
X2940622Y-1811368D02*
G02*
X2909636Y-1842351I-30983J0D01*
G75*
G01*
X2799237Y-1593781D02*
G02*
X2830223Y-1562799I30983J0D01*
G75*
G01*
X2910220Y-1562799D02*
G02*
X2941203Y-1593781I0J-30982D01*
G75*
G01*
X3845639Y-1728051D02*
G02*
X3814656Y-1697068I0J30983D01*
G75*
G01*
X3956622Y-1697068D02*
G02*
X3925636Y-1728051I-30983J0D01*
G75*
G01*
X3815237Y-1479481D02*
G02*
X3846223Y-1448499I30983J0D01*
G75*
G01*
X3926220Y-1448499D02*
G02*
X3957203Y-1479481I0J-30982D01*
G75*
G01*
X75349Y-1356439D02*
G02*
X106332Y-1325456I30983J0D01*
G75*
G01*
X106332Y-1467422D02*
G02*
X75349Y-1436436I0J30983D01*
G75*
G01*
X323919Y-1326037D02*
G02*
X354901Y-1357023I0J-30983D01*
G75*
G01*
X354901Y-1437020D02*
G02*
X323919Y-1468003I-30982J0D01*
G75*
G01*
X62649Y-861139D02*
G02*
X93632Y-830156I30983J0D01*
G75*
G01*
X93632Y-972122D02*
G02*
X62649Y-941136I0J30983D01*
G75*
G01*
X311219Y-830737D02*
G02*
X342201Y-861723I0J-30983D01*
G75*
G01*
X342201Y-941720D02*
G02*
X311219Y-972703I-30982J0D01*
D10*
G75*
G01*
X4384820Y-1855660D02*
G03*
X4400060Y-1840420I0J15240D01*
G75*
G01*
X4400060Y-1690180D02*
G03*
X4384820Y-1674940I-15240J0D01*
G75*
G01*
X4022580Y-1855660D02*
G02*
X4007340Y-1840420I0J15240D01*
G75*
G01*
X4007340Y-1690180D02*
G02*
X4022580Y-1674940I15240J0D01*
D18*
G75*
G01*
X994207Y-2962600D02*
G03*
X993912Y-2966402I-25001J25D01*
D13*
G75*
G01*
X4042664Y-1139444D02*
G03*
X4042664Y-1019556I-7293J59944D01*
D10*
G75*
G01*
X5524320Y-490261D02*
G03*
X5539560Y-475021I0J15240D01*
G75*
G01*
X5539560Y-286979D02*
G03*
X5524320Y-271739I-15240J0D01*
G75*
G01*
X5042080Y-490261D02*
G02*
X5026840Y-475021I0J15240D01*
G75*
G01*
X5026840Y-286979D02*
G02*
X5042080Y-271739I15240J0D01*
G75*
G01*
X5067120Y-1760261D02*
G03*
X5082360Y-1745021I0J15240D01*
G75*
G01*
X5082360Y-1556979D02*
G03*
X5067120Y-1541739I-15240J0D01*
G75*
G01*
X4584880Y-1760261D02*
G02*
X4569640Y-1745021I0J15240D01*
G75*
G01*
X4569640Y-1556979D02*
G02*
X4584880Y-1541739I15240J0D01*
D19*
G75*
G01
X1415161Y-2224227D02*
G03X1415161Y-2224227I-15011J0D01*
D13*
G75*
G01
X3765398Y-2714498D02*
G03X3765398Y-2714498I-30988J0D01*
G75*
G01
X4654398Y-2714498D02*
G03X4654398Y-2714498I-30988J0D01*
G75*
G01
X422910Y-1168400D02*
G03X422910Y-1168400I-80010J0D01*
G75*
G01
X422910Y-673100D02*
G03X422910Y-673100I-80010J0D01*
G75*
G01
X2558999Y-2603525D02*
G03X2558999Y-2603525I-12700J0D01*
G75*
G01
X4165549Y-2248510D02*
G03X4165549Y-2248510I-5004J0D01*
G75*
G01
X4978349Y-2248510D02*
G03X4978349Y-2248510I-5004J0D01*
D20*
G75*
G01
X723494Y-12700D02*
G03X723494Y-12700I-24994J0D01*
D13*
G75*
G01
X4037330Y-1389380D02*
G03X4037330Y-1389380I-19050J0D01*
G75*
G01
X2921000Y-2095500D02*
G03X2921000Y-2095500I-12700J0D01*
M02*
