G04 Layer: BottomLayer*
G04 EasyEDA v6.5.47, 2024-10-31 16:23:14*
G04 d01961b007cd42f0ad862483726119fd,f99730456eb041dfa0a19156df6b2b6d,10*
G04 Gerber Generator version 0.2*
G04 Scale: 100 percent, Rotated: No, Reflected: No *
G04 Dimensions in millimeters *
G04 leading zeros omitted , absolute positions ,4 integer and 5 decimal *
%FSLAX45Y45*%
%MOMM*%

%AMMACRO1*21,1,$1,$2,0,0,$3*%
%ADD10C,0.2540*%
%ADD11C,0.6000*%
%ADD12C,1.0000*%
%ADD13MACRO1,0.864X0.8065X-90.0000*%
%ADD14MACRO1,3X2X90.0000*%
%ADD15O,1.950212X0.5684012*%
%ADD16C,2.5000*%
%ADD17C,1.8000*%
%ADD18O,2.0999958X1.0999978000000001*%
%ADD19O,1.7999964X1.0999978000000001*%
%ADD20C,0.6200*%
%ADD21C,0.0195*%

%LPD*%
G36*
X2827121Y-443992D02*
G01*
X2823159Y-443179D01*
X2811119Y-434187D01*
X2802483Y-429818D01*
X2793644Y-427126D01*
X2790596Y-425551D01*
X2788208Y-423113D01*
X2786786Y-419963D01*
X2786532Y-416559D01*
X2787396Y-406400D01*
X2786532Y-396798D01*
X2784144Y-387451D01*
X2780131Y-378663D01*
X2774746Y-370687D01*
X2768092Y-363728D01*
X2760319Y-357987D01*
X2751683Y-353618D01*
X2742488Y-350824D01*
X2728823Y-348894D01*
X2725318Y-346608D01*
X2618435Y-239775D01*
X2612237Y-234645D01*
X2605532Y-231089D01*
X2598318Y-228904D01*
X2590292Y-228092D01*
X1607921Y-228092D01*
X1603959Y-227279D01*
X1591919Y-218287D01*
X1583283Y-213918D01*
X1574088Y-211124D01*
X1560423Y-209194D01*
X1556918Y-206908D01*
X1551635Y-201676D01*
X1545437Y-196545D01*
X1538732Y-192989D01*
X1531518Y-190804D01*
X1523492Y-189992D01*
X1494993Y-189992D01*
X1491081Y-189230D01*
X1487779Y-186994D01*
X1485595Y-183743D01*
X1484833Y-179832D01*
X1484833Y-66446D01*
X1484071Y-60147D01*
X1482191Y-54711D01*
X1479092Y-49784D01*
X1475028Y-45720D01*
X1473403Y-44653D01*
X1470304Y-41656D01*
X1468729Y-37592D01*
X1469034Y-33274D01*
X1471066Y-29464D01*
X1474571Y-26822D01*
X1478788Y-25908D01*
X3018028Y-25908D01*
X3022244Y-26822D01*
X3025698Y-29362D01*
X3027781Y-33121D01*
X3028086Y-37439D01*
X3024428Y-47447D01*
X3023666Y-53746D01*
X3023666Y-352653D01*
X3024428Y-358952D01*
X3026308Y-364388D01*
X3029407Y-369316D01*
X3033471Y-373380D01*
X3038398Y-376478D01*
X3043834Y-378409D01*
X3050184Y-379120D01*
X3101644Y-379120D01*
X3105302Y-379780D01*
X3108452Y-381762D01*
X3110738Y-384708D01*
X3113989Y-395732D01*
X3117545Y-402386D01*
X3123488Y-409600D01*
X3125419Y-413258D01*
X3125774Y-417372D01*
X3124403Y-421284D01*
X3121609Y-424332D01*
X3117799Y-426008D01*
X3107537Y-428243D01*
X3098596Y-431800D01*
X3090367Y-436880D01*
X3085185Y-441451D01*
X3082036Y-443331D01*
X3078480Y-443992D01*
G37*

%LPD*%
G36*
X1048918Y-507492D02*
G01*
X1045006Y-506730D01*
X1041704Y-504494D01*
X981405Y-444195D01*
X979169Y-440893D01*
X978408Y-436981D01*
X978408Y-401980D01*
X979169Y-398068D01*
X981405Y-394766D01*
X984656Y-392582D01*
X988568Y-391820D01*
X1012698Y-391820D01*
X1016558Y-392582D01*
X1019860Y-394766D01*
X1022045Y-398068D01*
X1022858Y-401980D01*
X1022858Y-411226D01*
X1024483Y-420725D01*
X1027684Y-429818D01*
X1032357Y-438251D01*
X1038453Y-445770D01*
X1045667Y-452120D01*
X1053896Y-457200D01*
X1062837Y-460756D01*
X1072286Y-462788D01*
X1081938Y-463245D01*
X1091488Y-461975D01*
X1100683Y-459181D01*
X1109319Y-454812D01*
X1117092Y-449072D01*
X1123746Y-442112D01*
X1129131Y-434136D01*
X1133144Y-425348D01*
X1135532Y-416001D01*
X1136396Y-406400D01*
X1136091Y-402844D01*
X1136599Y-398678D01*
X1138732Y-395071D01*
X1142085Y-392684D01*
X1146200Y-391820D01*
X1178915Y-391820D01*
X1185265Y-391109D01*
X1190701Y-389178D01*
X1195628Y-386080D01*
X1199692Y-382016D01*
X1202791Y-377088D01*
X1204671Y-371652D01*
X1205433Y-365353D01*
X1205433Y-66446D01*
X1204671Y-60147D01*
X1202791Y-54711D01*
X1199692Y-49784D01*
X1195628Y-45720D01*
X1194003Y-44653D01*
X1190904Y-41656D01*
X1189329Y-37592D01*
X1189634Y-33274D01*
X1191666Y-29464D01*
X1195171Y-26822D01*
X1199388Y-25908D01*
X1239012Y-25908D01*
X1243228Y-26822D01*
X1246733Y-29464D01*
X1248765Y-33274D01*
X1249070Y-37592D01*
X1247495Y-41656D01*
X1244396Y-44653D01*
X1242771Y-45720D01*
X1238707Y-49784D01*
X1235608Y-54711D01*
X1233728Y-60147D01*
X1233017Y-66446D01*
X1233017Y-365353D01*
X1233728Y-371652D01*
X1235608Y-377088D01*
X1238707Y-382016D01*
X1242771Y-386080D01*
X1247698Y-389178D01*
X1253134Y-391109D01*
X1259484Y-391820D01*
X1408379Y-391820D01*
X1412646Y-392734D01*
X1416151Y-395427D01*
X1418183Y-399338D01*
X1418386Y-403707D01*
X1416558Y-414274D01*
X1416558Y-423926D01*
X1418183Y-433425D01*
X1421384Y-442518D01*
X1426057Y-450951D01*
X1432153Y-458470D01*
X1439367Y-464820D01*
X1447596Y-469900D01*
X1456537Y-473456D01*
X1465986Y-475488D01*
X1475638Y-475945D01*
X1485188Y-474675D01*
X1494383Y-471881D01*
X1503019Y-467512D01*
X1515059Y-458520D01*
X1519021Y-457708D01*
X1833880Y-457708D01*
X1837436Y-458368D01*
X1840585Y-460248D01*
X1845767Y-464820D01*
X1853996Y-469900D01*
X1862937Y-473456D01*
X1872386Y-475488D01*
X1882038Y-475945D01*
X1891588Y-474675D01*
X1900783Y-471881D01*
X1909419Y-467512D01*
X1917192Y-461772D01*
X1923846Y-454812D01*
X1929231Y-446836D01*
X1933244Y-438048D01*
X1935632Y-428701D01*
X1936496Y-419100D01*
X1935632Y-409498D01*
X1933244Y-400151D01*
X1929231Y-391363D01*
X1923846Y-383387D01*
X1917192Y-376428D01*
X1909419Y-370687D01*
X1900783Y-366318D01*
X1891588Y-363524D01*
X1882038Y-362254D01*
X1872386Y-362712D01*
X1862937Y-364744D01*
X1853996Y-368300D01*
X1845767Y-373380D01*
X1840585Y-377952D01*
X1837436Y-379831D01*
X1833880Y-380492D01*
X1519021Y-380492D01*
X1515059Y-379679D01*
X1503019Y-370687D01*
X1494383Y-366318D01*
X1491996Y-365607D01*
X1488236Y-363524D01*
X1485696Y-360070D01*
X1484833Y-355854D01*
X1484833Y-315468D01*
X1485595Y-311556D01*
X1487779Y-308305D01*
X1491081Y-306070D01*
X1494993Y-305308D01*
X1516380Y-305308D01*
X1519936Y-305968D01*
X1523085Y-307848D01*
X1528267Y-312420D01*
X1536496Y-317500D01*
X1545437Y-321056D01*
X1554886Y-323088D01*
X1564538Y-323545D01*
X1574088Y-322275D01*
X1583283Y-319481D01*
X1591919Y-315112D01*
X1603959Y-306120D01*
X1607921Y-305308D01*
X2570581Y-305308D01*
X2574493Y-306070D01*
X2577795Y-308305D01*
X2670860Y-401370D01*
X2673045Y-404672D01*
X2673858Y-408533D01*
X2673858Y-411226D01*
X2675483Y-420725D01*
X2678684Y-429818D01*
X2683357Y-438251D01*
X2689453Y-445770D01*
X2696667Y-452120D01*
X2704896Y-457200D01*
X2713837Y-460756D01*
X2717546Y-461568D01*
X2721102Y-463092D01*
X2723794Y-465835D01*
X2725318Y-469392D01*
X2725420Y-473201D01*
X2724658Y-477774D01*
X2724658Y-487426D01*
X2726029Y-495604D01*
X2725826Y-499973D01*
X2723794Y-503885D01*
X2720289Y-506526D01*
X2716022Y-507492D01*
X1188821Y-507492D01*
X1184859Y-506679D01*
X1172819Y-497687D01*
X1164183Y-493318D01*
X1154988Y-490524D01*
X1145438Y-489254D01*
X1135786Y-489712D01*
X1126337Y-491743D01*
X1117396Y-495300D01*
X1109167Y-500380D01*
X1103985Y-504951D01*
X1100836Y-506831D01*
X1097280Y-507492D01*
G37*

%LPD*%
G36*
X200863Y-3474110D02*
G01*
X182422Y-3473145D01*
X165557Y-3470605D01*
X148996Y-3466388D01*
X132943Y-3460597D01*
X117500Y-3453231D01*
X102870Y-3444443D01*
X89204Y-3434232D01*
X76606Y-3422700D01*
X65125Y-3410000D01*
X55016Y-3396284D01*
X46278Y-3381603D01*
X39014Y-3366109D01*
X33324Y-3350056D01*
X29209Y-3333445D01*
X26771Y-3316579D01*
X25908Y-3299155D01*
X25908Y-2545232D01*
X26873Y-2540863D01*
X29667Y-2537358D01*
X33629Y-2535377D01*
X38100Y-2535275D01*
X42214Y-2537104D01*
X52273Y-2544724D01*
X62382Y-2550261D01*
X73202Y-2554274D01*
X84480Y-2556764D01*
X96367Y-2557576D01*
X165608Y-2557576D01*
X177495Y-2556764D01*
X188772Y-2554274D01*
X199593Y-2550261D01*
X209702Y-2544724D01*
X218948Y-2537815D01*
X227126Y-2529636D01*
X234035Y-2520391D01*
X239572Y-2510282D01*
X243586Y-2499461D01*
X246075Y-2488184D01*
X246888Y-2476703D01*
X246075Y-2465171D01*
X243586Y-2453894D01*
X239572Y-2443073D01*
X234035Y-2432964D01*
X227126Y-2423718D01*
X218948Y-2415540D01*
X209702Y-2408631D01*
X199593Y-2403094D01*
X188772Y-2399080D01*
X177495Y-2396642D01*
X165608Y-2395778D01*
X96367Y-2395778D01*
X84480Y-2396642D01*
X73202Y-2399080D01*
X62382Y-2403094D01*
X52273Y-2408631D01*
X42214Y-2416251D01*
X38100Y-2418080D01*
X33629Y-2418029D01*
X29667Y-2416048D01*
X26873Y-2412492D01*
X25908Y-2408174D01*
X25908Y-1681225D01*
X26873Y-1676857D01*
X29667Y-1673352D01*
X33629Y-1671370D01*
X38100Y-1671269D01*
X42214Y-1673098D01*
X52273Y-1680768D01*
X62382Y-1686255D01*
X73202Y-1690319D01*
X84480Y-1692757D01*
X96367Y-1693621D01*
X165608Y-1693621D01*
X177495Y-1692757D01*
X188772Y-1690319D01*
X199593Y-1686255D01*
X209702Y-1680718D01*
X218948Y-1673809D01*
X227126Y-1665681D01*
X234035Y-1656435D01*
X239572Y-1646275D01*
X243586Y-1635455D01*
X246075Y-1624177D01*
X246888Y-1612696D01*
X246075Y-1601165D01*
X243586Y-1589887D01*
X239572Y-1579067D01*
X234035Y-1568958D01*
X227126Y-1559712D01*
X218948Y-1551584D01*
X209702Y-1544624D01*
X199593Y-1539138D01*
X188772Y-1535074D01*
X177495Y-1532636D01*
X165608Y-1531772D01*
X96367Y-1531772D01*
X84480Y-1532636D01*
X73202Y-1535074D01*
X62382Y-1539138D01*
X52273Y-1544624D01*
X42214Y-1552244D01*
X38100Y-1554124D01*
X33629Y-1554022D01*
X29667Y-1552041D01*
X26873Y-1548536D01*
X25908Y-1544167D01*
X25908Y-200863D01*
X26873Y-182422D01*
X29413Y-165557D01*
X33578Y-148996D01*
X39420Y-132943D01*
X46736Y-117500D01*
X55575Y-102870D01*
X65786Y-89204D01*
X77266Y-76606D01*
X89966Y-65125D01*
X103733Y-55016D01*
X118414Y-46278D01*
X133858Y-39014D01*
X149961Y-33324D01*
X166522Y-29209D01*
X183438Y-26771D01*
X200863Y-25908D01*
X680212Y-25908D01*
X684428Y-26822D01*
X687933Y-29464D01*
X689965Y-33274D01*
X690270Y-37592D01*
X688695Y-41656D01*
X685596Y-44653D01*
X683971Y-45720D01*
X679907Y-49784D01*
X676808Y-54711D01*
X674928Y-60147D01*
X674217Y-66446D01*
X674217Y-138226D01*
X673201Y-142595D01*
X670458Y-146100D01*
X666496Y-148082D01*
X662076Y-148234D01*
X658012Y-146405D01*
X652119Y-142087D01*
X643483Y-137718D01*
X634288Y-134924D01*
X624738Y-133654D01*
X615086Y-134112D01*
X605637Y-136144D01*
X596696Y-139700D01*
X588467Y-144780D01*
X581253Y-151130D01*
X575157Y-158648D01*
X570484Y-167081D01*
X567283Y-176174D01*
X565658Y-185674D01*
X565658Y-195326D01*
X566369Y-200609D01*
X566369Y-434390D01*
X565658Y-439674D01*
X565658Y-449326D01*
X567283Y-458825D01*
X570484Y-467918D01*
X575157Y-476351D01*
X581253Y-483870D01*
X588467Y-490220D01*
X596696Y-495300D01*
X605637Y-498856D01*
X615086Y-500888D01*
X624738Y-501345D01*
X634288Y-500075D01*
X643483Y-497281D01*
X652119Y-492912D01*
X658012Y-488594D01*
X662076Y-486765D01*
X666496Y-486918D01*
X670458Y-488899D01*
X673201Y-492404D01*
X674217Y-496773D01*
X674217Y-746353D01*
X674928Y-752652D01*
X676808Y-758088D01*
X679907Y-763016D01*
X683971Y-767080D01*
X688898Y-770178D01*
X694334Y-772109D01*
X700684Y-772820D01*
X899515Y-772820D01*
X902919Y-772414D01*
X905967Y-772515D01*
X908812Y-773531D01*
X911250Y-775360D01*
X926134Y-790244D01*
X928420Y-793750D01*
X929081Y-797915D01*
X928725Y-799287D01*
X930097Y-798931D01*
X934262Y-799592D01*
X937768Y-801878D01*
X974242Y-838352D01*
X976325Y-841349D01*
X977188Y-844905D01*
X976782Y-848512D01*
X975106Y-851763D01*
X972413Y-854202D01*
X969467Y-855980D01*
X962253Y-862330D01*
X956157Y-869848D01*
X951484Y-878281D01*
X948283Y-887374D01*
X946658Y-896874D01*
X946658Y-906526D01*
X948283Y-916025D01*
X951484Y-925118D01*
X956157Y-933551D01*
X962253Y-941069D01*
X969467Y-947419D01*
X977696Y-952500D01*
X986637Y-956056D01*
X996086Y-958087D01*
X1005738Y-958545D01*
X1015288Y-957275D01*
X1024483Y-954481D01*
X1033119Y-950112D01*
X1040892Y-944371D01*
X1047546Y-937412D01*
X1052931Y-929436D01*
X1056944Y-920648D01*
X1058062Y-916178D01*
X1059078Y-913688D01*
X1060754Y-911555D01*
X1081024Y-891235D01*
X1086154Y-885037D01*
X1089710Y-878332D01*
X1091895Y-871118D01*
X1092657Y-863600D01*
X1091895Y-856081D01*
X1089710Y-848868D01*
X1086154Y-842162D01*
X1081024Y-835964D01*
X928979Y-683869D01*
X926795Y-680567D01*
X926033Y-676706D01*
X926033Y-522528D01*
X926795Y-518668D01*
X928979Y-515366D01*
X932281Y-513130D01*
X936193Y-512368D01*
X940053Y-513130D01*
X943356Y-515366D01*
X1001064Y-573024D01*
X1007262Y-578154D01*
X1013968Y-581710D01*
X1021181Y-583895D01*
X1029208Y-584708D01*
X1097280Y-584708D01*
X1100836Y-585368D01*
X1103985Y-587248D01*
X1109167Y-591820D01*
X1117396Y-596900D01*
X1126337Y-600456D01*
X1135786Y-602488D01*
X1145438Y-602945D01*
X1154988Y-601675D01*
X1164183Y-598881D01*
X1172819Y-594512D01*
X1184859Y-585520D01*
X1188821Y-584708D01*
X2677922Y-584708D01*
X2682189Y-585673D01*
X2685694Y-588314D01*
X2687726Y-592226D01*
X2687929Y-596595D01*
X2686558Y-604774D01*
X2686558Y-607466D01*
X2685745Y-611327D01*
X2683560Y-614629D01*
X2628595Y-669594D01*
X2625293Y-671830D01*
X2621381Y-672592D01*
X1156208Y-672592D01*
X1148181Y-673404D01*
X1140968Y-675589D01*
X1134262Y-679145D01*
X1128420Y-683920D01*
X1123645Y-689762D01*
X1120089Y-696468D01*
X1117904Y-703681D01*
X1117092Y-711708D01*
X1117092Y-716026D01*
X1116533Y-719429D01*
X1114856Y-722426D01*
X1108557Y-730148D01*
X1103884Y-738581D01*
X1100683Y-747674D01*
X1099058Y-757174D01*
X1099058Y-766826D01*
X1100683Y-776325D01*
X1103884Y-785418D01*
X1108557Y-793851D01*
X1114653Y-801370D01*
X1121867Y-807720D01*
X1130096Y-812800D01*
X1139037Y-816356D01*
X1148486Y-818388D01*
X1158138Y-818845D01*
X1167688Y-817575D01*
X1176883Y-814781D01*
X1185519Y-810412D01*
X1193292Y-804672D01*
X1199946Y-797712D01*
X1205331Y-789736D01*
X1209344Y-780948D01*
X1211732Y-771601D01*
X1213002Y-756666D01*
X1215136Y-753110D01*
X1218488Y-750671D01*
X1222603Y-749808D01*
X2641092Y-749808D01*
X2649118Y-748995D01*
X2656332Y-746810D01*
X2663037Y-743254D01*
X2669235Y-738124D01*
X2736037Y-671372D01*
X2739288Y-669188D01*
X2743200Y-668426D01*
X2747111Y-669188D01*
X2750362Y-671372D01*
X2791764Y-712724D01*
X2797962Y-717854D01*
X2804668Y-721410D01*
X2811881Y-723595D01*
X2819908Y-724408D01*
X3047492Y-724408D01*
X3055518Y-723595D01*
X3062732Y-721410D01*
X3069437Y-717854D01*
X3075635Y-712724D01*
X3240024Y-548335D01*
X3245154Y-542137D01*
X3248710Y-535432D01*
X3250895Y-528218D01*
X3251708Y-520192D01*
X3251708Y-445008D01*
X3250895Y-436981D01*
X3248710Y-429768D01*
X3245154Y-423062D01*
X3240024Y-416864D01*
X3219653Y-396443D01*
X3217468Y-393141D01*
X3216656Y-389280D01*
X3217468Y-385368D01*
X3219653Y-382066D01*
X3222955Y-379882D01*
X3226816Y-379120D01*
X3249015Y-379120D01*
X3255365Y-378409D01*
X3260801Y-376478D01*
X3265728Y-373380D01*
X3269792Y-369316D01*
X3272891Y-364388D01*
X3274771Y-358952D01*
X3275533Y-352653D01*
X3275533Y-53746D01*
X3274771Y-47447D01*
X3271113Y-37439D01*
X3271418Y-33121D01*
X3273501Y-29362D01*
X3276955Y-26822D01*
X3281172Y-25908D01*
X3297428Y-25908D01*
X3301644Y-26822D01*
X3305098Y-29362D01*
X3307181Y-33121D01*
X3307486Y-37439D01*
X3303828Y-47447D01*
X3303066Y-53746D01*
X3303066Y-352653D01*
X3303828Y-358952D01*
X3305708Y-364388D01*
X3308807Y-369316D01*
X3312871Y-373380D01*
X3317798Y-376478D01*
X3323234Y-378409D01*
X3329584Y-379120D01*
X3380232Y-379120D01*
X3384143Y-379882D01*
X3387394Y-382066D01*
X3389629Y-385368D01*
X3390392Y-389280D01*
X3390392Y-519480D01*
X3389833Y-522833D01*
X3386683Y-531774D01*
X3385058Y-541274D01*
X3385058Y-550926D01*
X3386683Y-560425D01*
X3389884Y-569518D01*
X3394557Y-577951D01*
X3400653Y-585470D01*
X3407867Y-591820D01*
X3416096Y-596900D01*
X3425037Y-600456D01*
X3434486Y-602488D01*
X3444138Y-602945D01*
X3453688Y-601675D01*
X3462883Y-598881D01*
X3471519Y-594512D01*
X3479292Y-588772D01*
X3485946Y-581812D01*
X3491331Y-573836D01*
X3495344Y-565048D01*
X3497732Y-555701D01*
X3498596Y-546100D01*
X3497732Y-536498D01*
X3495344Y-527151D01*
X3491331Y-518363D01*
X3485946Y-510387D01*
X3479292Y-503428D01*
X3471722Y-497840D01*
X3469538Y-495604D01*
X3468115Y-492759D01*
X3467608Y-489661D01*
X3467608Y-389280D01*
X3468370Y-385368D01*
X3470605Y-382066D01*
X3473856Y-379882D01*
X3477768Y-379120D01*
X3528415Y-379120D01*
X3534765Y-378409D01*
X3540201Y-376478D01*
X3545128Y-373380D01*
X3549192Y-369316D01*
X3552291Y-364388D01*
X3554171Y-358952D01*
X3554933Y-352653D01*
X3554933Y-53746D01*
X3554171Y-47447D01*
X3550513Y-37439D01*
X3550818Y-33121D01*
X3552901Y-29362D01*
X3556355Y-26822D01*
X3560572Y-25908D01*
X3576828Y-25908D01*
X3581044Y-26822D01*
X3584498Y-29362D01*
X3586581Y-33121D01*
X3586886Y-37439D01*
X3583228Y-47447D01*
X3582466Y-53746D01*
X3582466Y-352653D01*
X3583228Y-358952D01*
X3585108Y-364388D01*
X3588207Y-369316D01*
X3592271Y-373380D01*
X3597198Y-376478D01*
X3602634Y-378409D01*
X3608984Y-379120D01*
X3659632Y-379120D01*
X3663543Y-379882D01*
X3666794Y-382066D01*
X3669029Y-385368D01*
X3669792Y-389280D01*
X3669792Y-589381D01*
X3669029Y-593293D01*
X3666794Y-596595D01*
X2862529Y-1400911D01*
X2859430Y-1402994D01*
X2855772Y-1403858D01*
X2850286Y-1404112D01*
X2840837Y-1406144D01*
X2831896Y-1409700D01*
X2823667Y-1414780D01*
X2816453Y-1421130D01*
X2810357Y-1428648D01*
X2805684Y-1437081D01*
X2802483Y-1446174D01*
X2801162Y-1453896D01*
X2799486Y-1457960D01*
X2796235Y-1460957D01*
X2792018Y-1462278D01*
X2787650Y-1461719D01*
X2783941Y-1459331D01*
X2772105Y-1447495D01*
X2769870Y-1444193D01*
X2769108Y-1440281D01*
X2769108Y-1366520D01*
X2769819Y-1362710D01*
X2771952Y-1359458D01*
X2774746Y-1356512D01*
X2780131Y-1348536D01*
X2784144Y-1339748D01*
X2786532Y-1330401D01*
X2787396Y-1320800D01*
X2786532Y-1311198D01*
X2784144Y-1301851D01*
X2780131Y-1293063D01*
X2774746Y-1285087D01*
X2768092Y-1278128D01*
X2760319Y-1272387D01*
X2751683Y-1268018D01*
X2742488Y-1265224D01*
X2732938Y-1263954D01*
X2723286Y-1264412D01*
X2713837Y-1266444D01*
X2704896Y-1270000D01*
X2696667Y-1275080D01*
X2689453Y-1281430D01*
X2683357Y-1288948D01*
X2678684Y-1297381D01*
X2675483Y-1306474D01*
X2673858Y-1315974D01*
X2673858Y-1325626D01*
X2675483Y-1335125D01*
X2678684Y-1344218D01*
X2683357Y-1352651D01*
X2689656Y-1360373D01*
X2691333Y-1363370D01*
X2691892Y-1366774D01*
X2691892Y-1459992D01*
X2692704Y-1468018D01*
X2694889Y-1475232D01*
X2698445Y-1481937D01*
X2703576Y-1488135D01*
X3026460Y-1811070D01*
X3028645Y-1814372D01*
X3029458Y-1818233D01*
X3029458Y-1820925D01*
X3031083Y-1830425D01*
X3034284Y-1839518D01*
X3038957Y-1847951D01*
X3045053Y-1855470D01*
X3052267Y-1861820D01*
X3060496Y-1866900D01*
X3069437Y-1870456D01*
X3078886Y-1872488D01*
X3088538Y-1872945D01*
X3098088Y-1871675D01*
X3107283Y-1868881D01*
X3115919Y-1864512D01*
X3123692Y-1858772D01*
X3130346Y-1851812D01*
X3135731Y-1843836D01*
X3139744Y-1835048D01*
X3142132Y-1825701D01*
X3142996Y-1816100D01*
X3142132Y-1806498D01*
X3139744Y-1797151D01*
X3135731Y-1788363D01*
X3130346Y-1780387D01*
X3123692Y-1773428D01*
X3115919Y-1767687D01*
X3107283Y-1763318D01*
X3103981Y-1762302D01*
X3100273Y-1760220D01*
X3097733Y-1756765D01*
X3096818Y-1752600D01*
X3097733Y-1748434D01*
X3100273Y-1744980D01*
X3103981Y-1742897D01*
X3107283Y-1741881D01*
X3115919Y-1737512D01*
X3123692Y-1731772D01*
X3130346Y-1724812D01*
X3135731Y-1716836D01*
X3139744Y-1708048D01*
X3142132Y-1698701D01*
X3142996Y-1689100D01*
X3142132Y-1679498D01*
X3139744Y-1670151D01*
X3135731Y-1661363D01*
X3130346Y-1653387D01*
X3123692Y-1646428D01*
X3115919Y-1640687D01*
X3107283Y-1636318D01*
X3098088Y-1633524D01*
X3084423Y-1631594D01*
X3080918Y-1629308D01*
X2919272Y-1467662D01*
X2917088Y-1464411D01*
X2916326Y-1460500D01*
X2917088Y-1456588D01*
X2919272Y-1453337D01*
X3735324Y-637235D01*
X3740454Y-631037D01*
X3744010Y-624332D01*
X3746195Y-617118D01*
X3747008Y-609092D01*
X3747008Y-389280D01*
X3747770Y-385368D01*
X3750005Y-382066D01*
X3753256Y-379882D01*
X3757168Y-379120D01*
X3807815Y-379120D01*
X3814165Y-378409D01*
X3819601Y-376478D01*
X3824528Y-373380D01*
X3828592Y-369316D01*
X3831691Y-364388D01*
X3833571Y-358952D01*
X3834333Y-352653D01*
X3834333Y-53746D01*
X3833571Y-47447D01*
X3829913Y-37439D01*
X3830218Y-33121D01*
X3832301Y-29362D01*
X3835755Y-26822D01*
X3839972Y-25908D01*
X5799124Y-25908D01*
X5817565Y-26873D01*
X5834430Y-29413D01*
X5850991Y-33578D01*
X5867044Y-39420D01*
X5882487Y-46736D01*
X5897118Y-55575D01*
X5910783Y-65786D01*
X5923381Y-77266D01*
X5934862Y-89966D01*
X5944971Y-103733D01*
X5953709Y-118414D01*
X5960973Y-133858D01*
X5966663Y-149961D01*
X5970778Y-166522D01*
X5973216Y-183438D01*
X5974080Y-200863D01*
X5974080Y-3299155D01*
X5973114Y-3317544D01*
X5970574Y-3334410D01*
X5966409Y-3350971D01*
X5960567Y-3367074D01*
X5953252Y-3382467D01*
X5944412Y-3397097D01*
X5934202Y-3410762D01*
X5922721Y-3423412D01*
X5910021Y-3434842D01*
X5896254Y-3445001D01*
X5881573Y-3453739D01*
X5866130Y-3460953D01*
X5850026Y-3466693D01*
X5833465Y-3470808D01*
X5816549Y-3473246D01*
X5799124Y-3474110D01*
X5333085Y-3474110D01*
X5329174Y-3473297D01*
X5325872Y-3471113D01*
X5323687Y-3467811D01*
X5322925Y-3463950D01*
X5323687Y-3460038D01*
X5325872Y-3456736D01*
X5327192Y-3455415D01*
X5330291Y-3450488D01*
X5332171Y-3445052D01*
X5332933Y-3438753D01*
X5332933Y-3139846D01*
X5332171Y-3133547D01*
X5330291Y-3128111D01*
X5327192Y-3123184D01*
X5323128Y-3119120D01*
X5318201Y-3116021D01*
X5312765Y-3114090D01*
X5306415Y-3113379D01*
X5255768Y-3113379D01*
X5251856Y-3112617D01*
X5248605Y-3110433D01*
X5246370Y-3107131D01*
X5245608Y-3103219D01*
X5245608Y-3067354D01*
X5246370Y-3063443D01*
X5248605Y-3060141D01*
X5252161Y-3056585D01*
X5255463Y-3054400D01*
X5259324Y-3053588D01*
X5309362Y-3053588D01*
X5315712Y-3052876D01*
X5321147Y-3050997D01*
X5326075Y-3047898D01*
X5330139Y-3043834D01*
X5333238Y-3038906D01*
X5335168Y-3033471D01*
X5335879Y-3027121D01*
X5335879Y-2941878D01*
X5335168Y-2935528D01*
X5333238Y-2930093D01*
X5330139Y-2925165D01*
X5326075Y-2921101D01*
X5321147Y-2918002D01*
X5315712Y-2916123D01*
X5309362Y-2915412D01*
X5259324Y-2915412D01*
X5255463Y-2914599D01*
X5252161Y-2912414D01*
X5182971Y-2843276D01*
X5176774Y-2838145D01*
X5170068Y-2834589D01*
X5162854Y-2832404D01*
X5154828Y-2831592D01*
X4699508Y-2831592D01*
X4691481Y-2832404D01*
X4684268Y-2834589D01*
X4677562Y-2838145D01*
X4671364Y-2843276D01*
X4533595Y-2980994D01*
X4530293Y-2983230D01*
X4526381Y-2983992D01*
X4483760Y-2983992D01*
X4479899Y-2983230D01*
X4468825Y-2975559D01*
X4460290Y-2971596D01*
X4450283Y-2968904D01*
X4446422Y-2966872D01*
X4443730Y-2963418D01*
X4442764Y-2959100D01*
X4443730Y-2954782D01*
X4446422Y-2951327D01*
X4450283Y-2949295D01*
X4460290Y-2946603D01*
X4468825Y-2942640D01*
X4476597Y-2937205D01*
X4483303Y-2930499D01*
X4488738Y-2922727D01*
X4492701Y-2914192D01*
X4495190Y-2905048D01*
X4496003Y-2895600D01*
X4495190Y-2886151D01*
X4492701Y-2877007D01*
X4488738Y-2868472D01*
X4483303Y-2860700D01*
X4476597Y-2853994D01*
X4468825Y-2848559D01*
X4460290Y-2844596D01*
X4451146Y-2842158D01*
X4441240Y-2841294D01*
X4303979Y-2841294D01*
X4294073Y-2842158D01*
X4284929Y-2844596D01*
X4276394Y-2848559D01*
X4265320Y-2856230D01*
X4261459Y-2856992D01*
X4108704Y-2856992D01*
X4104944Y-2856280D01*
X4101744Y-2854248D01*
X3493820Y-2283561D01*
X3488588Y-2279396D01*
X3481832Y-2275789D01*
X3474618Y-2273604D01*
X3466592Y-2272792D01*
X3373221Y-2272792D01*
X3369259Y-2271979D01*
X3357219Y-2262987D01*
X3348583Y-2258618D01*
X3339388Y-2255824D01*
X3329838Y-2254554D01*
X3320186Y-2255012D01*
X3310737Y-2257044D01*
X3301796Y-2260600D01*
X3293567Y-2265680D01*
X3286353Y-2272030D01*
X3280257Y-2279548D01*
X3275584Y-2287981D01*
X3272383Y-2297074D01*
X3270758Y-2306574D01*
X3270758Y-2316226D01*
X3272383Y-2325725D01*
X3272942Y-2327452D01*
X3273552Y-2331262D01*
X3272637Y-2335072D01*
X3270351Y-2338222D01*
X3267049Y-2340305D01*
X3263239Y-2340965D01*
X3259429Y-2340152D01*
X3256178Y-2338019D01*
X3133090Y-2214930D01*
X3131058Y-2211984D01*
X3130143Y-2208580D01*
X3129432Y-2200198D01*
X3127044Y-2190851D01*
X3123031Y-2182063D01*
X3117646Y-2174087D01*
X3110992Y-2167128D01*
X3103219Y-2161387D01*
X3094583Y-2157018D01*
X3085388Y-2154224D01*
X3075838Y-2152954D01*
X3066186Y-2153412D01*
X3056737Y-2155444D01*
X3047796Y-2159000D01*
X3039567Y-2164080D01*
X3032353Y-2170430D01*
X3026257Y-2177948D01*
X3021584Y-2186381D01*
X3018383Y-2195474D01*
X3016758Y-2204974D01*
X3016758Y-2214626D01*
X3018383Y-2224125D01*
X3021584Y-2233218D01*
X3026257Y-2241651D01*
X3032353Y-2249170D01*
X3039567Y-2255520D01*
X3047796Y-2260600D01*
X3056737Y-2264156D01*
X3066186Y-2266188D01*
X3071672Y-2266442D01*
X3075330Y-2267305D01*
X3078429Y-2269388D01*
X3103270Y-2294280D01*
X3105505Y-2297582D01*
X3106267Y-2301494D01*
X3105454Y-2305405D01*
X3103219Y-2308707D01*
X3090367Y-2316480D01*
X3083153Y-2322830D01*
X3077057Y-2330348D01*
X3072384Y-2338781D01*
X3069183Y-2347874D01*
X3067558Y-2357374D01*
X3067558Y-2367026D01*
X3069183Y-2376525D01*
X3072384Y-2385618D01*
X3077057Y-2394051D01*
X3083153Y-2401570D01*
X3090367Y-2407920D01*
X3098596Y-2413000D01*
X3107537Y-2416556D01*
X3112109Y-2417978D01*
X3114446Y-2419705D01*
X3230372Y-2535682D01*
X3232251Y-2538272D01*
X3233216Y-2541371D01*
X3233216Y-2544572D01*
X3232658Y-2547874D01*
X3232658Y-2557526D01*
X3234283Y-2567025D01*
X3237484Y-2576118D01*
X3242157Y-2584551D01*
X3248253Y-2592070D01*
X3255467Y-2598420D01*
X3263696Y-2603500D01*
X3272637Y-2607056D01*
X3282086Y-2609088D01*
X3291738Y-2609545D01*
X3301288Y-2608275D01*
X3310483Y-2605481D01*
X3319119Y-2601112D01*
X3323386Y-2597962D01*
X3327450Y-2596184D01*
X3331921Y-2596286D01*
X3335883Y-2598267D01*
X3338626Y-2601772D01*
X3339592Y-2606141D01*
X3339592Y-2976981D01*
X3338829Y-2980893D01*
X3336594Y-2984195D01*
X3208070Y-3112719D01*
X3204362Y-3115056D01*
X3200044Y-3115665D01*
X3195828Y-3114344D01*
X3192576Y-3111398D01*
X3190900Y-3107385D01*
X3191052Y-3102965D01*
X3192932Y-3095701D01*
X3193796Y-3086100D01*
X3192932Y-3076498D01*
X3190544Y-3067151D01*
X3186531Y-3058363D01*
X3181146Y-3050387D01*
X3178352Y-3047441D01*
X3176219Y-3044190D01*
X3175508Y-3040380D01*
X3175508Y-2890418D01*
X3176270Y-2886506D01*
X3178505Y-2883204D01*
X3195218Y-2866491D01*
X3198723Y-2864205D01*
X3212388Y-2862275D01*
X3221583Y-2859481D01*
X3230219Y-2855112D01*
X3237992Y-2849372D01*
X3244646Y-2842412D01*
X3250031Y-2834436D01*
X3254044Y-2825648D01*
X3256432Y-2816301D01*
X3257296Y-2806700D01*
X3256432Y-2797098D01*
X3254044Y-2787751D01*
X3250031Y-2778963D01*
X3244646Y-2770987D01*
X3237992Y-2764028D01*
X3230219Y-2758287D01*
X3221583Y-2753918D01*
X3212388Y-2751124D01*
X3202838Y-2749854D01*
X3193186Y-2750312D01*
X3183737Y-2752344D01*
X3174796Y-2755900D01*
X3166567Y-2760980D01*
X3159353Y-2767330D01*
X3153257Y-2774848D01*
X3148584Y-2783281D01*
X3145383Y-2792374D01*
X3143758Y-2801874D01*
X3143758Y-2804566D01*
X3142945Y-2808427D01*
X3140760Y-2811729D01*
X3109976Y-2842564D01*
X3104845Y-2848762D01*
X3101289Y-2855468D01*
X3099104Y-2862681D01*
X3098292Y-2870708D01*
X3098292Y-3040126D01*
X3097733Y-3043529D01*
X3096056Y-3046526D01*
X3089757Y-3054248D01*
X3085084Y-3062681D01*
X3081883Y-3071774D01*
X3080258Y-3081274D01*
X3080258Y-3090926D01*
X3081883Y-3100425D01*
X3085084Y-3109518D01*
X3089757Y-3117951D01*
X3095853Y-3125470D01*
X3103067Y-3131820D01*
X3111296Y-3136900D01*
X3120237Y-3140456D01*
X3125927Y-3141675D01*
X3129788Y-3143402D01*
X3132582Y-3146552D01*
X3133902Y-3150565D01*
X3133445Y-3154781D01*
X3131312Y-3158439D01*
X3127908Y-3160928D01*
X3123793Y-3161792D01*
X2318918Y-3161792D01*
X2315006Y-3161030D01*
X2311704Y-3158794D01*
X2282190Y-3129330D01*
X2280158Y-3126384D01*
X2279243Y-3122980D01*
X2278532Y-3114598D01*
X2276144Y-3105251D01*
X2272131Y-3096463D01*
X2266746Y-3088487D01*
X2260092Y-3081528D01*
X2252319Y-3075787D01*
X2243683Y-3071418D01*
X2234488Y-3068624D01*
X2224938Y-3067354D01*
X2215286Y-3067812D01*
X2205837Y-3069844D01*
X2198878Y-3072638D01*
X2194966Y-3073349D01*
X2191105Y-3072587D01*
X2187854Y-3070352D01*
X2185670Y-3067050D01*
X2184908Y-3063189D01*
X2184908Y-2700020D01*
X2185619Y-2696210D01*
X2187752Y-2692958D01*
X2190546Y-2690012D01*
X2195931Y-2682036D01*
X2199944Y-2673248D01*
X2202332Y-2663901D01*
X2203196Y-2654300D01*
X2202332Y-2644698D01*
X2199944Y-2635351D01*
X2195931Y-2626563D01*
X2190546Y-2618587D01*
X2187752Y-2615641D01*
X2185619Y-2612390D01*
X2184908Y-2608580D01*
X2184908Y-2242820D01*
X2185619Y-2239010D01*
X2187752Y-2235758D01*
X2190546Y-2232812D01*
X2195931Y-2224836D01*
X2199944Y-2216048D01*
X2202332Y-2206701D01*
X2203196Y-2197100D01*
X2202332Y-2187498D01*
X2199944Y-2178151D01*
X2195931Y-2169363D01*
X2190546Y-2161387D01*
X2183892Y-2154428D01*
X2176119Y-2148687D01*
X2167483Y-2144318D01*
X2158288Y-2141524D01*
X2148738Y-2140254D01*
X2139086Y-2140712D01*
X2129637Y-2142744D01*
X2120696Y-2146300D01*
X2112467Y-2151380D01*
X2105253Y-2157730D01*
X2099157Y-2165248D01*
X2094484Y-2173681D01*
X2091283Y-2182774D01*
X2089657Y-2192274D01*
X2089657Y-2201926D01*
X2091283Y-2211425D01*
X2094484Y-2220518D01*
X2099157Y-2228951D01*
X2105456Y-2236673D01*
X2107133Y-2239670D01*
X2107692Y-2243074D01*
X2107692Y-2608326D01*
X2107133Y-2611729D01*
X2105456Y-2614726D01*
X2099157Y-2622448D01*
X2094484Y-2630881D01*
X2091283Y-2639974D01*
X2089657Y-2649474D01*
X2089657Y-2659126D01*
X2091283Y-2668625D01*
X2094484Y-2677718D01*
X2099157Y-2686151D01*
X2105456Y-2693873D01*
X2107133Y-2696870D01*
X2107692Y-2700274D01*
X2107692Y-3263392D01*
X2108504Y-3271418D01*
X2110689Y-3278632D01*
X2114245Y-3285337D01*
X2119376Y-3291535D01*
X2131364Y-3303524D01*
X2137562Y-3308654D01*
X2144268Y-3312210D01*
X2151481Y-3314395D01*
X2159508Y-3315208D01*
X3720439Y-3315208D01*
X3724300Y-3315970D01*
X3735374Y-3323640D01*
X3743909Y-3327603D01*
X3753053Y-3330041D01*
X3762959Y-3330905D01*
X3900220Y-3330905D01*
X3910126Y-3330041D01*
X3919270Y-3327603D01*
X3927805Y-3323640D01*
X3935577Y-3318205D01*
X3942283Y-3311499D01*
X3947718Y-3303727D01*
X3951681Y-3295192D01*
X3954170Y-3286048D01*
X3954983Y-3276600D01*
X3954170Y-3267151D01*
X3951681Y-3258007D01*
X3947718Y-3249472D01*
X3942283Y-3241700D01*
X3935577Y-3234994D01*
X3927805Y-3229559D01*
X3919270Y-3225596D01*
X3909263Y-3222904D01*
X3905402Y-3220872D01*
X3902710Y-3217418D01*
X3901744Y-3213100D01*
X3902710Y-3208782D01*
X3905402Y-3205327D01*
X3909263Y-3203295D01*
X3919270Y-3200603D01*
X3927805Y-3196640D01*
X3935577Y-3191205D01*
X3942283Y-3184499D01*
X3947718Y-3176727D01*
X3950766Y-3170174D01*
X3886708Y-3170174D01*
X3886708Y-3212134D01*
X3885946Y-3215995D01*
X3883710Y-3219297D01*
X3880408Y-3221482D01*
X3876548Y-3222294D01*
X3786632Y-3222294D01*
X3782771Y-3221482D01*
X3779469Y-3219297D01*
X3777234Y-3215995D01*
X3776472Y-3212134D01*
X3776472Y-3170174D01*
X3712413Y-3170174D01*
X3715461Y-3176727D01*
X3720896Y-3184499D01*
X3727602Y-3191205D01*
X3735374Y-3196640D01*
X3743909Y-3200603D01*
X3753916Y-3203295D01*
X3757777Y-3205327D01*
X3760470Y-3208782D01*
X3761435Y-3213100D01*
X3760470Y-3217418D01*
X3757777Y-3220872D01*
X3753916Y-3222904D01*
X3743909Y-3225596D01*
X3735374Y-3229559D01*
X3724300Y-3237230D01*
X3720439Y-3237992D01*
X3216554Y-3237992D01*
X3212642Y-3237230D01*
X3209340Y-3234994D01*
X3207156Y-3231743D01*
X3206394Y-3227832D01*
X3207156Y-3223920D01*
X3209340Y-3220669D01*
X3492804Y-2937205D01*
X3496106Y-2934970D01*
X3500018Y-2934208D01*
X3720439Y-2934208D01*
X3724300Y-2934970D01*
X3735374Y-2942640D01*
X3743909Y-2946603D01*
X3753916Y-2949295D01*
X3757777Y-2951327D01*
X3760470Y-2954782D01*
X3761435Y-2959100D01*
X3760470Y-2963418D01*
X3757777Y-2966872D01*
X3753916Y-2968904D01*
X3743909Y-2971596D01*
X3735374Y-2975559D01*
X3727602Y-2980994D01*
X3720896Y-2987700D01*
X3715461Y-2995472D01*
X3711498Y-3004007D01*
X3709009Y-3013151D01*
X3708196Y-3022600D01*
X3709009Y-3032048D01*
X3711498Y-3041192D01*
X3715461Y-3049727D01*
X3720896Y-3057499D01*
X3727602Y-3064205D01*
X3735374Y-3069640D01*
X3743909Y-3073603D01*
X3753916Y-3076295D01*
X3757777Y-3078327D01*
X3760470Y-3081782D01*
X3761435Y-3086100D01*
X3760470Y-3090418D01*
X3757777Y-3093872D01*
X3753916Y-3095904D01*
X3743909Y-3098596D01*
X3735374Y-3102559D01*
X3727602Y-3107994D01*
X3720896Y-3114700D01*
X3715461Y-3122472D01*
X3712413Y-3129026D01*
X3776472Y-3129026D01*
X3776472Y-3087065D01*
X3777234Y-3083204D01*
X3779469Y-3079902D01*
X3782771Y-3077718D01*
X3786632Y-3076905D01*
X3827119Y-3076905D01*
X3830980Y-3077718D01*
X3834282Y-3079902D01*
X3842054Y-3087624D01*
X3848252Y-3092754D01*
X3854958Y-3096310D01*
X3862171Y-3098495D01*
X3870198Y-3099308D01*
X3876548Y-3099308D01*
X3880408Y-3100070D01*
X3883710Y-3102305D01*
X3885946Y-3105556D01*
X3886708Y-3109468D01*
X3886708Y-3129026D01*
X3950766Y-3129026D01*
X3947718Y-3122472D01*
X3942689Y-3115310D01*
X3941013Y-3111246D01*
X3941216Y-3106826D01*
X3943197Y-3102914D01*
X3946702Y-3100273D01*
X3951020Y-3099308D01*
X4043679Y-3099308D01*
X4047236Y-3099968D01*
X4050385Y-3101848D01*
X4055567Y-3106420D01*
X4063796Y-3111500D01*
X4072737Y-3115056D01*
X4082186Y-3117088D01*
X4091838Y-3117545D01*
X4101388Y-3116275D01*
X4110583Y-3113481D01*
X4119219Y-3109112D01*
X4126992Y-3103372D01*
X4133646Y-3096412D01*
X4139031Y-3088436D01*
X4143044Y-3079648D01*
X4145432Y-3070301D01*
X4146296Y-3060700D01*
X4145432Y-3051098D01*
X4143044Y-3041751D01*
X4139031Y-3032963D01*
X4133646Y-3024987D01*
X4126992Y-3018028D01*
X4119219Y-3012287D01*
X4110583Y-3007918D01*
X4101388Y-3005124D01*
X4091838Y-3003854D01*
X4082186Y-3004312D01*
X4072737Y-3006344D01*
X4063796Y-3009900D01*
X4055567Y-3014980D01*
X4050385Y-3019552D01*
X4047236Y-3021431D01*
X4043679Y-3022092D01*
X3964228Y-3022092D01*
X3959910Y-3021126D01*
X3956405Y-3018434D01*
X3954424Y-3014472D01*
X3951681Y-3004007D01*
X3947718Y-2995472D01*
X3942283Y-2987700D01*
X3935577Y-2980994D01*
X3927805Y-2975559D01*
X3919270Y-2971596D01*
X3909263Y-2968904D01*
X3905402Y-2966872D01*
X3902710Y-2963418D01*
X3901744Y-2959100D01*
X3902710Y-2954782D01*
X3905402Y-2951327D01*
X3909263Y-2949295D01*
X3919270Y-2946603D01*
X3927805Y-2942640D01*
X3935577Y-2937205D01*
X3942283Y-2930499D01*
X3947718Y-2922727D01*
X3951681Y-2914192D01*
X3954170Y-2905048D01*
X3954983Y-2895600D01*
X3954170Y-2886151D01*
X3951681Y-2877007D01*
X3947718Y-2868472D01*
X3942283Y-2860700D01*
X3935577Y-2853994D01*
X3927805Y-2848559D01*
X3919270Y-2844596D01*
X3910126Y-2842158D01*
X3900220Y-2841294D01*
X3762959Y-2841294D01*
X3753053Y-2842158D01*
X3743909Y-2844596D01*
X3735374Y-2848559D01*
X3724300Y-2856230D01*
X3720439Y-2856992D01*
X3480308Y-2856992D01*
X3472281Y-2857804D01*
X3465068Y-2859989D01*
X3458362Y-2863545D01*
X3452164Y-2868676D01*
X3434130Y-2886659D01*
X3430879Y-2888843D01*
X3426968Y-2889605D01*
X3423056Y-2888843D01*
X3419805Y-2886659D01*
X3417570Y-2883357D01*
X3416808Y-2879445D01*
X3416808Y-2515108D01*
X3415995Y-2507081D01*
X3413810Y-2499868D01*
X3410254Y-2493162D01*
X3405124Y-2486964D01*
X3300984Y-2382824D01*
X3298647Y-2379167D01*
X3298037Y-2374900D01*
X3299256Y-2370785D01*
X3302101Y-2367483D01*
X3306013Y-2365705D01*
X3310331Y-2365705D01*
X3320186Y-2367788D01*
X3329838Y-2368245D01*
X3339388Y-2366975D01*
X3348583Y-2364181D01*
X3357219Y-2359812D01*
X3369259Y-2350820D01*
X3373221Y-2350008D01*
X3447796Y-2350008D01*
X3451555Y-2350719D01*
X3454755Y-2352751D01*
X4062679Y-2923438D01*
X4067911Y-2927604D01*
X4074668Y-2931210D01*
X4081881Y-2933395D01*
X4089908Y-2934208D01*
X4261459Y-2934208D01*
X4265320Y-2934970D01*
X4276394Y-2942640D01*
X4284929Y-2946603D01*
X4294936Y-2949295D01*
X4298797Y-2951327D01*
X4301490Y-2954782D01*
X4302455Y-2959100D01*
X4301490Y-2963418D01*
X4298797Y-2966872D01*
X4294936Y-2968904D01*
X4284929Y-2971596D01*
X4276394Y-2975559D01*
X4268622Y-2980994D01*
X4261916Y-2987700D01*
X4256481Y-2995472D01*
X4252518Y-3004007D01*
X4250080Y-3013151D01*
X4249216Y-3022600D01*
X4250080Y-3032048D01*
X4252518Y-3041192D01*
X4256481Y-3049727D01*
X4261916Y-3057499D01*
X4268622Y-3064205D01*
X4276394Y-3069640D01*
X4284929Y-3073603D01*
X4294936Y-3076295D01*
X4298797Y-3078327D01*
X4301490Y-3081782D01*
X4302455Y-3086100D01*
X4301490Y-3090418D01*
X4298797Y-3093872D01*
X4294936Y-3095904D01*
X4284929Y-3098596D01*
X4276394Y-3102559D01*
X4268622Y-3107994D01*
X4261916Y-3114700D01*
X4256481Y-3122472D01*
X4252518Y-3131007D01*
X4250080Y-3140151D01*
X4249216Y-3149600D01*
X4250080Y-3159048D01*
X4252518Y-3168192D01*
X4256481Y-3176727D01*
X4261916Y-3184499D01*
X4268622Y-3191205D01*
X4276394Y-3196640D01*
X4284929Y-3200603D01*
X4294936Y-3203295D01*
X4298797Y-3205327D01*
X4301490Y-3208782D01*
X4302455Y-3213100D01*
X4301490Y-3217418D01*
X4298797Y-3220872D01*
X4294936Y-3222904D01*
X4284929Y-3225596D01*
X4276394Y-3229559D01*
X4268622Y-3234994D01*
X4261916Y-3241700D01*
X4256481Y-3249472D01*
X4253433Y-3256026D01*
X4317492Y-3256026D01*
X4317492Y-3214065D01*
X4318254Y-3210204D01*
X4320489Y-3206902D01*
X4323791Y-3204718D01*
X4327652Y-3203905D01*
X4417568Y-3203905D01*
X4421428Y-3204718D01*
X4424730Y-3206902D01*
X4426966Y-3210204D01*
X4427728Y-3214065D01*
X4427728Y-3256026D01*
X4491786Y-3256026D01*
X4488738Y-3249472D01*
X4483303Y-3241700D01*
X4476597Y-3234994D01*
X4468825Y-3229559D01*
X4460290Y-3225596D01*
X4450283Y-3222904D01*
X4446422Y-3220872D01*
X4443730Y-3217418D01*
X4442764Y-3213100D01*
X4443730Y-3208782D01*
X4446422Y-3205327D01*
X4450283Y-3203295D01*
X4460290Y-3200603D01*
X4468825Y-3196640D01*
X4479899Y-3188970D01*
X4483760Y-3188208D01*
X4623155Y-3188208D01*
X4631182Y-3187395D01*
X4638395Y-3185210D01*
X4645101Y-3181654D01*
X4651298Y-3176524D01*
X4695444Y-3132429D01*
X4698746Y-3130194D01*
X4702657Y-3129432D01*
X4706518Y-3130194D01*
X4709820Y-3132429D01*
X4712004Y-3135731D01*
X4712817Y-3139592D01*
X4712817Y-3438753D01*
X4713528Y-3445052D01*
X4715408Y-3450488D01*
X4718507Y-3455415D01*
X4719828Y-3456736D01*
X4722012Y-3460038D01*
X4722774Y-3463950D01*
X4722012Y-3467811D01*
X4719828Y-3471113D01*
X4716526Y-3473297D01*
X4712614Y-3474110D01*
G37*

%LPC*%
G36*
X5750001Y-3400907D02*
G01*
X5766917Y-3399942D01*
X5783580Y-3397097D01*
X5799836Y-3392424D01*
X5815482Y-3385972D01*
X5830265Y-3377793D01*
X5844082Y-3367989D01*
X5856681Y-3356711D01*
X5867958Y-3344062D01*
X5877763Y-3330295D01*
X5885942Y-3315462D01*
X5892444Y-3299866D01*
X5897118Y-3283559D01*
X5899962Y-3266897D01*
X5900877Y-3250031D01*
X5899962Y-3233115D01*
X5897118Y-3216452D01*
X5892444Y-3200146D01*
X5885942Y-3184550D01*
X5877763Y-3169716D01*
X5867958Y-3155950D01*
X5856681Y-3143300D01*
X5844082Y-3132023D01*
X5830265Y-3122218D01*
X5815482Y-3114040D01*
X5799836Y-3107588D01*
X5783580Y-3102914D01*
X5766917Y-3100070D01*
X5750001Y-3099104D01*
X5733084Y-3100070D01*
X5716422Y-3102914D01*
X5700166Y-3107588D01*
X5684520Y-3114040D01*
X5669737Y-3122218D01*
X5655919Y-3132023D01*
X5643321Y-3143300D01*
X5632043Y-3155950D01*
X5622239Y-3169716D01*
X5614060Y-3184550D01*
X5607558Y-3200146D01*
X5602884Y-3216452D01*
X5600039Y-3233115D01*
X5599125Y-3250031D01*
X5600039Y-3266897D01*
X5602884Y-3283559D01*
X5607558Y-3299866D01*
X5614060Y-3315462D01*
X5622239Y-3330295D01*
X5632043Y-3344062D01*
X5643321Y-3356711D01*
X5655919Y-3367989D01*
X5669737Y-3377793D01*
X5684520Y-3385972D01*
X5700166Y-3392424D01*
X5716422Y-3397097D01*
X5733084Y-3399942D01*
G37*
G36*
X250037Y-3400907D02*
G01*
X266903Y-3399942D01*
X283565Y-3397097D01*
X299872Y-3392424D01*
X315468Y-3385972D01*
X330301Y-3377793D01*
X344068Y-3367989D01*
X356717Y-3356711D01*
X367995Y-3344062D01*
X377799Y-3330295D01*
X385978Y-3315462D01*
X392430Y-3299866D01*
X397103Y-3283559D01*
X399948Y-3266897D01*
X400913Y-3250031D01*
X399948Y-3233115D01*
X397103Y-3216452D01*
X392430Y-3200146D01*
X385978Y-3184550D01*
X377799Y-3169716D01*
X367995Y-3155950D01*
X356717Y-3143300D01*
X344068Y-3132023D01*
X330301Y-3122218D01*
X315468Y-3114040D01*
X299872Y-3107588D01*
X283565Y-3102914D01*
X266903Y-3100070D01*
X250037Y-3099104D01*
X233121Y-3100070D01*
X216458Y-3102914D01*
X200152Y-3107588D01*
X184556Y-3114040D01*
X169722Y-3122218D01*
X155956Y-3132023D01*
X143306Y-3143300D01*
X132029Y-3155950D01*
X122224Y-3169716D01*
X114046Y-3184550D01*
X107594Y-3200146D01*
X102920Y-3216452D01*
X100076Y-3233115D01*
X99110Y-3250031D01*
X100076Y-3266897D01*
X102920Y-3283559D01*
X107594Y-3299866D01*
X114046Y-3315462D01*
X122224Y-3330295D01*
X132029Y-3344062D01*
X143306Y-3356711D01*
X155956Y-3367989D01*
X169722Y-3377793D01*
X184556Y-3385972D01*
X200152Y-3392424D01*
X216458Y-3397097D01*
X233121Y-3399942D01*
G37*
G36*
X4427728Y-3330905D02*
G01*
X4441240Y-3330905D01*
X4451146Y-3330041D01*
X4460290Y-3327603D01*
X4468825Y-3323640D01*
X4476597Y-3318205D01*
X4483303Y-3311499D01*
X4488738Y-3303727D01*
X4491786Y-3297174D01*
X4427728Y-3297174D01*
G37*
G36*
X4303979Y-3330905D02*
G01*
X4317492Y-3330905D01*
X4317492Y-3297174D01*
X4253433Y-3297174D01*
X4256481Y-3303727D01*
X4261916Y-3311499D01*
X4268622Y-3318205D01*
X4276394Y-3323640D01*
X4284929Y-3327603D01*
X4294073Y-3330041D01*
G37*
G36*
X4485538Y-2596845D02*
G01*
X4493310Y-2595930D01*
X5257596Y-2595930D01*
X5262676Y-2595676D01*
X5267502Y-2595067D01*
X5272278Y-2594000D01*
X5276900Y-2592527D01*
X5281422Y-2590647D01*
X5285740Y-2588412D01*
X5289854Y-2585770D01*
X5293715Y-2582824D01*
X5297474Y-2579370D01*
X5468010Y-2408834D01*
X5473192Y-2404872D01*
X5479846Y-2397912D01*
X5482437Y-2394407D01*
X5703570Y-2173274D01*
X5707024Y-2169515D01*
X5709970Y-2165654D01*
X5712612Y-2161540D01*
X5714847Y-2157222D01*
X5716727Y-2152700D01*
X5718200Y-2148078D01*
X5719267Y-2143302D01*
X5719876Y-2138476D01*
X5720130Y-2133396D01*
X5720130Y-1967280D01*
X5721096Y-1955800D01*
X5720232Y-1946198D01*
X5717844Y-1936851D01*
X5713831Y-1928063D01*
X5708446Y-1920087D01*
X5701792Y-1913128D01*
X5694019Y-1907387D01*
X5685383Y-1903018D01*
X5676188Y-1900224D01*
X5666638Y-1898954D01*
X5656986Y-1899412D01*
X5647537Y-1901443D01*
X5638596Y-1905000D01*
X5630367Y-1910080D01*
X5623153Y-1916430D01*
X5617057Y-1923948D01*
X5612384Y-1932381D01*
X5609183Y-1941474D01*
X5607558Y-1950974D01*
X5607558Y-1960625D01*
X5608269Y-1965909D01*
X5608269Y-2106218D01*
X5607507Y-2110130D01*
X5605322Y-2113432D01*
X5403850Y-2314854D01*
X5394553Y-2322830D01*
X5388508Y-2330196D01*
X5237632Y-2481122D01*
X5234330Y-2483307D01*
X5230418Y-2484069D01*
X4493310Y-2484069D01*
X4485538Y-2483154D01*
X4475886Y-2483612D01*
X4466437Y-2485644D01*
X4457496Y-2489200D01*
X4449267Y-2494280D01*
X4442053Y-2500630D01*
X4435957Y-2508148D01*
X4431284Y-2516581D01*
X4428083Y-2525674D01*
X4426458Y-2535174D01*
X4426458Y-2544826D01*
X4428083Y-2554325D01*
X4431284Y-2563418D01*
X4435957Y-2571851D01*
X4442053Y-2579370D01*
X4449267Y-2585720D01*
X4457496Y-2590800D01*
X4466437Y-2594356D01*
X4475886Y-2596388D01*
G37*
G36*
X499364Y-2557576D02*
G01*
X598627Y-2557576D01*
X610514Y-2556764D01*
X621792Y-2554274D01*
X632561Y-2550261D01*
X642721Y-2544724D01*
X651967Y-2537815D01*
X660095Y-2529636D01*
X667004Y-2520391D01*
X672541Y-2510282D01*
X676605Y-2499461D01*
X679043Y-2488184D01*
X679856Y-2476703D01*
X679043Y-2465171D01*
X676605Y-2453894D01*
X672541Y-2443073D01*
X667004Y-2432964D01*
X660095Y-2423718D01*
X651967Y-2415540D01*
X642721Y-2408631D01*
X632561Y-2403094D01*
X621792Y-2399080D01*
X610514Y-2396642D01*
X598627Y-2395778D01*
X545693Y-2395778D01*
X541629Y-2394915D01*
X538226Y-2392476D01*
X536092Y-2388870D01*
X535584Y-2384704D01*
X536803Y-2380691D01*
X546404Y-2370378D01*
X551992Y-2362149D01*
X556056Y-2353157D01*
X558546Y-2343556D01*
X559409Y-2333701D01*
X558546Y-2323846D01*
X556056Y-2314244D01*
X551992Y-2305253D01*
X546404Y-2297023D01*
X539597Y-2289860D01*
X531622Y-2284018D01*
X522782Y-2279548D01*
X513334Y-2276652D01*
X503478Y-2275382D01*
X493623Y-2275789D01*
X483920Y-2277872D01*
X474726Y-2281580D01*
X466293Y-2286762D01*
X458876Y-2293315D01*
X452678Y-2301036D01*
X447801Y-2309672D01*
X444550Y-2318969D01*
X442874Y-2328773D01*
X442874Y-2338628D01*
X444550Y-2348433D01*
X447801Y-2357729D01*
X452678Y-2366365D01*
X458876Y-2374087D01*
X466293Y-2380640D01*
X470966Y-2383536D01*
X474218Y-2386685D01*
X475742Y-2390902D01*
X475284Y-2395372D01*
X472998Y-2399233D01*
X469239Y-2401671D01*
X465378Y-2403094D01*
X455269Y-2408631D01*
X446024Y-2415540D01*
X437845Y-2423718D01*
X430936Y-2432964D01*
X425399Y-2443073D01*
X421385Y-2453894D01*
X418947Y-2465171D01*
X418084Y-2476703D01*
X418947Y-2488184D01*
X421385Y-2499461D01*
X425399Y-2510282D01*
X430936Y-2520391D01*
X437845Y-2529636D01*
X446024Y-2537815D01*
X455269Y-2544724D01*
X465378Y-2550261D01*
X476199Y-2554274D01*
X487476Y-2556764D01*
G37*
G36*
X1018438Y-2507945D02*
G01*
X1027988Y-2506675D01*
X1037183Y-2503881D01*
X1045819Y-2499512D01*
X1053592Y-2493772D01*
X1060246Y-2486812D01*
X1065631Y-2478836D01*
X1069644Y-2470048D01*
X1072032Y-2460701D01*
X1072896Y-2451100D01*
X1072032Y-2441498D01*
X1069644Y-2432151D01*
X1067308Y-2427020D01*
X1066393Y-2423109D01*
X1067104Y-2419197D01*
X1069238Y-2415794D01*
X1072489Y-2413508D01*
X1076401Y-2412695D01*
X1080363Y-2413406D01*
X1088237Y-2416556D01*
X1097686Y-2418588D01*
X1107338Y-2419045D01*
X1116888Y-2417775D01*
X1126083Y-2414981D01*
X1134719Y-2410612D01*
X1142492Y-2404872D01*
X1149146Y-2397912D01*
X1154531Y-2389936D01*
X1158544Y-2381148D01*
X1160932Y-2371801D01*
X1161796Y-2362200D01*
X1160932Y-2352598D01*
X1158544Y-2343251D01*
X1154531Y-2334463D01*
X1149146Y-2326487D01*
X1146352Y-2323541D01*
X1144219Y-2320290D01*
X1143508Y-2316480D01*
X1143508Y-1430020D01*
X1144219Y-1426210D01*
X1146352Y-1422958D01*
X1149146Y-1420012D01*
X1154531Y-1412036D01*
X1158544Y-1403248D01*
X1160932Y-1393901D01*
X1161796Y-1384300D01*
X1160932Y-1374698D01*
X1158544Y-1365351D01*
X1154531Y-1356563D01*
X1149146Y-1348587D01*
X1142492Y-1341628D01*
X1134719Y-1335887D01*
X1126083Y-1331518D01*
X1116888Y-1328724D01*
X1107338Y-1327454D01*
X1097686Y-1327912D01*
X1088237Y-1329944D01*
X1079296Y-1333500D01*
X1071067Y-1338580D01*
X1063853Y-1344930D01*
X1057757Y-1352448D01*
X1053084Y-1360881D01*
X1049883Y-1369974D01*
X1048258Y-1379474D01*
X1048258Y-1389126D01*
X1049883Y-1398625D01*
X1053084Y-1407718D01*
X1057757Y-1416151D01*
X1064056Y-1423873D01*
X1065733Y-1426870D01*
X1066292Y-1430274D01*
X1066292Y-1445158D01*
X1065326Y-1449527D01*
X1062583Y-1453032D01*
X1058621Y-1455013D01*
X1054150Y-1455115D01*
X1050086Y-1453337D01*
X1045819Y-1450187D01*
X1037183Y-1445818D01*
X1027988Y-1443024D01*
X1018438Y-1441754D01*
X1008786Y-1442212D01*
X999337Y-1444244D01*
X990396Y-1447800D01*
X982167Y-1452880D01*
X974953Y-1459230D01*
X968857Y-1466748D01*
X964184Y-1475181D01*
X960983Y-1484274D01*
X959358Y-1493774D01*
X959358Y-1503426D01*
X960983Y-1512925D01*
X964184Y-1522018D01*
X968857Y-1530451D01*
X975156Y-1538173D01*
X976833Y-1541170D01*
X977392Y-1544574D01*
X977392Y-2405126D01*
X976833Y-2408529D01*
X975156Y-2411526D01*
X968857Y-2419248D01*
X964184Y-2427681D01*
X960983Y-2436774D01*
X959358Y-2446274D01*
X959358Y-2455926D01*
X960983Y-2465425D01*
X964184Y-2474518D01*
X968857Y-2482951D01*
X974953Y-2490470D01*
X982167Y-2496820D01*
X990396Y-2501900D01*
X999337Y-2505456D01*
X1008786Y-2507488D01*
G37*
G36*
X2301138Y-2406345D02*
G01*
X2310688Y-2405075D01*
X2319883Y-2402281D01*
X2328519Y-2397912D01*
X2336292Y-2392172D01*
X2342946Y-2385212D01*
X2348331Y-2377236D01*
X2352344Y-2368448D01*
X2354732Y-2359101D01*
X2355596Y-2349500D01*
X2354732Y-2339898D01*
X2352344Y-2330551D01*
X2348331Y-2321763D01*
X2342946Y-2313787D01*
X2340152Y-2310841D01*
X2338019Y-2307590D01*
X2337308Y-2303780D01*
X2337308Y-2159508D01*
X2336495Y-2151481D01*
X2334310Y-2144268D01*
X2330754Y-2137562D01*
X2325624Y-2131364D01*
X2246884Y-2052624D01*
X2244547Y-2048967D01*
X2243937Y-2044700D01*
X2245156Y-2040585D01*
X2248001Y-2037283D01*
X2251913Y-2035505D01*
X2256231Y-2035505D01*
X2266086Y-2037588D01*
X2275738Y-2038045D01*
X2285288Y-2036775D01*
X2294483Y-2033981D01*
X2303119Y-2029612D01*
X2310892Y-2023872D01*
X2317546Y-2016912D01*
X2322931Y-2008936D01*
X2326944Y-2000148D01*
X2329332Y-1990801D01*
X2330196Y-1981200D01*
X2329332Y-1971598D01*
X2326944Y-1962251D01*
X2322931Y-1953463D01*
X2317546Y-1945487D01*
X2314752Y-1942541D01*
X2312619Y-1939289D01*
X2311908Y-1935480D01*
X2311908Y-1778507D01*
X2311095Y-1770481D01*
X2308910Y-1763268D01*
X2305354Y-1756562D01*
X2300224Y-1750364D01*
X2137105Y-1587195D01*
X2134870Y-1583893D01*
X2134108Y-1579981D01*
X2134108Y-1473708D01*
X2133295Y-1465681D01*
X2131110Y-1458468D01*
X2127554Y-1451762D01*
X2122424Y-1445564D01*
X2117090Y-1440230D01*
X2115058Y-1437284D01*
X2114143Y-1433880D01*
X2113432Y-1425498D01*
X2111044Y-1416151D01*
X2107031Y-1407363D01*
X2101646Y-1399387D01*
X2094992Y-1392428D01*
X2087219Y-1386687D01*
X2078583Y-1382318D01*
X2069388Y-1379524D01*
X2059838Y-1378254D01*
X2050186Y-1378712D01*
X2040737Y-1380744D01*
X2031796Y-1384300D01*
X2023567Y-1389380D01*
X2016353Y-1395730D01*
X2010257Y-1403248D01*
X2005584Y-1411681D01*
X2002383Y-1420774D01*
X2000757Y-1430274D01*
X2000757Y-1439926D01*
X2002383Y-1449425D01*
X2005584Y-1458518D01*
X2010257Y-1466951D01*
X2016353Y-1474470D01*
X2023567Y-1480820D01*
X2031796Y-1485900D01*
X2040737Y-1489456D01*
X2048865Y-1491234D01*
X2052066Y-1492504D01*
X2054656Y-1494790D01*
X2056333Y-1497787D01*
X2056892Y-1501140D01*
X2056892Y-1559458D01*
X2055926Y-1563827D01*
X2053183Y-1567332D01*
X2049221Y-1569313D01*
X2044750Y-1569415D01*
X2040686Y-1567637D01*
X2036419Y-1564487D01*
X2027783Y-1560118D01*
X2018588Y-1557324D01*
X2009038Y-1556054D01*
X1999386Y-1556512D01*
X1989937Y-1558544D01*
X1980996Y-1562100D01*
X1972767Y-1567180D01*
X1965553Y-1573530D01*
X1959457Y-1581048D01*
X1954784Y-1589481D01*
X1951583Y-1598574D01*
X1949957Y-1608074D01*
X1949957Y-1617726D01*
X1951583Y-1627225D01*
X1954784Y-1636318D01*
X1959457Y-1644751D01*
X1965756Y-1652473D01*
X1967433Y-1655470D01*
X1967992Y-1658874D01*
X1967992Y-1724558D01*
X1967026Y-1728927D01*
X1964283Y-1732432D01*
X1960321Y-1734413D01*
X1955850Y-1734515D01*
X1951786Y-1732737D01*
X1947519Y-1729587D01*
X1938883Y-1725218D01*
X1929688Y-1722424D01*
X1920138Y-1721154D01*
X1910486Y-1721612D01*
X1901037Y-1723643D01*
X1892096Y-1727200D01*
X1883867Y-1732280D01*
X1876653Y-1738630D01*
X1870557Y-1746148D01*
X1865884Y-1754581D01*
X1862683Y-1763674D01*
X1861057Y-1773174D01*
X1861057Y-1782825D01*
X1862683Y-1792325D01*
X1865884Y-1801418D01*
X1870557Y-1809851D01*
X1876653Y-1817370D01*
X1883867Y-1823720D01*
X1892096Y-1828800D01*
X1901037Y-1832356D01*
X1910486Y-1834388D01*
X1915972Y-1834642D01*
X1919630Y-1835505D01*
X1922729Y-1837588D01*
X2257094Y-2172004D01*
X2259330Y-2175306D01*
X2260092Y-2179218D01*
X2260092Y-2303526D01*
X2259533Y-2306929D01*
X2257856Y-2309926D01*
X2251557Y-2317648D01*
X2246884Y-2326081D01*
X2243683Y-2335174D01*
X2242058Y-2344674D01*
X2242058Y-2354326D01*
X2243683Y-2363825D01*
X2246884Y-2372918D01*
X2251557Y-2381351D01*
X2257653Y-2388870D01*
X2264867Y-2395220D01*
X2273096Y-2400300D01*
X2282037Y-2403856D01*
X2291486Y-2405888D01*
G37*
G36*
X1526438Y-2203145D02*
G01*
X1535988Y-2201875D01*
X1545183Y-2199081D01*
X1553819Y-2194712D01*
X1565859Y-2185720D01*
X1569821Y-2184908D01*
X1574292Y-2184908D01*
X1582318Y-2184095D01*
X1589532Y-2181910D01*
X1596237Y-2178354D01*
X1602435Y-2173224D01*
X1671218Y-2104491D01*
X1674723Y-2102205D01*
X1688388Y-2100275D01*
X1697583Y-2097481D01*
X1706219Y-2093112D01*
X1713992Y-2087372D01*
X1720646Y-2080412D01*
X1726031Y-2072436D01*
X1730044Y-2063648D01*
X1732432Y-2054301D01*
X1733296Y-2044700D01*
X1732432Y-2035098D01*
X1730044Y-2025751D01*
X1726031Y-2016963D01*
X1720646Y-2008987D01*
X1713992Y-2002028D01*
X1706219Y-1996287D01*
X1697583Y-1991918D01*
X1688388Y-1989124D01*
X1678838Y-1987854D01*
X1669186Y-1988312D01*
X1659737Y-1990343D01*
X1650796Y-1993900D01*
X1642567Y-1998980D01*
X1635353Y-2005330D01*
X1629257Y-2012848D01*
X1624584Y-2021281D01*
X1621383Y-2030374D01*
X1619758Y-2039874D01*
X1619758Y-2042566D01*
X1618945Y-2046427D01*
X1616760Y-2049729D01*
X1568500Y-2097989D01*
X1565554Y-2100021D01*
X1562100Y-2100935D01*
X1558493Y-2100580D01*
X1553819Y-2097887D01*
X1545183Y-2093518D01*
X1535988Y-2090724D01*
X1526438Y-2089454D01*
X1516786Y-2089912D01*
X1507337Y-2091943D01*
X1498396Y-2095500D01*
X1490167Y-2100580D01*
X1482953Y-2106930D01*
X1476857Y-2114448D01*
X1472184Y-2122881D01*
X1468983Y-2131974D01*
X1467358Y-2141474D01*
X1467358Y-2151126D01*
X1468983Y-2160625D01*
X1472184Y-2169718D01*
X1476857Y-2178151D01*
X1482953Y-2185670D01*
X1490167Y-2192020D01*
X1498396Y-2197100D01*
X1507337Y-2200656D01*
X1516786Y-2202688D01*
G37*
G36*
X3397910Y-2133092D02*
G01*
X3409289Y-2133092D01*
X3420465Y-2131364D01*
X3431336Y-2128012D01*
X3441547Y-2123135D01*
X3450894Y-2116734D01*
X3459226Y-2109012D01*
X3466287Y-2100122D01*
X3471976Y-2090318D01*
X3476091Y-2079752D01*
X3478631Y-2068728D01*
X3479495Y-2057044D01*
X3479495Y-1703222D01*
X3480257Y-1699361D01*
X3482492Y-1696059D01*
X3507790Y-1670710D01*
X3515461Y-1661820D01*
X3521506Y-1652219D01*
X3526028Y-1641856D01*
X3528974Y-1630883D01*
X3530244Y-1619605D01*
X3529787Y-1608277D01*
X3527704Y-1597152D01*
X3523945Y-1586433D01*
X3518662Y-1576425D01*
X3511905Y-1567281D01*
X3503879Y-1559255D01*
X3494786Y-1552549D01*
X3484727Y-1547215D01*
X3474059Y-1543507D01*
X3462883Y-1541373D01*
X3451555Y-1540967D01*
X3440277Y-1542237D01*
X3429355Y-1545183D01*
X3418941Y-1549704D01*
X3409340Y-1555750D01*
X3400450Y-1563370D01*
X3348075Y-1615795D01*
X3342436Y-1622653D01*
X3336391Y-1632305D01*
X3335274Y-1634489D01*
X3331870Y-1642719D01*
X3331108Y-1645056D01*
X3328974Y-1653641D01*
X3328568Y-1656080D01*
X3327755Y-1664919D01*
X3327704Y-2057044D01*
X3328568Y-2068728D01*
X3331108Y-2079752D01*
X3335223Y-2090318D01*
X3340912Y-2100122D01*
X3347974Y-2109012D01*
X3356305Y-2116734D01*
X3365652Y-2123135D01*
X3375863Y-2128012D01*
X3386734Y-2131364D01*
G37*
G36*
X2694838Y-1999945D02*
G01*
X2704388Y-1998675D01*
X2713583Y-1995881D01*
X2722219Y-1991512D01*
X2729992Y-1985772D01*
X2736646Y-1978812D01*
X2742031Y-1970836D01*
X2746044Y-1962048D01*
X2748432Y-1952701D01*
X2749296Y-1943100D01*
X2748432Y-1933498D01*
X2746044Y-1924151D01*
X2742031Y-1915363D01*
X2736646Y-1907387D01*
X2729992Y-1900428D01*
X2722219Y-1894687D01*
X2713583Y-1890318D01*
X2704388Y-1887524D01*
X2694838Y-1886254D01*
X2685186Y-1886712D01*
X2671927Y-1889404D01*
X2668117Y-1888591D01*
X2664917Y-1886407D01*
X2421890Y-1643430D01*
X2419858Y-1640484D01*
X2418943Y-1637080D01*
X2418232Y-1628698D01*
X2415844Y-1619351D01*
X2411831Y-1610563D01*
X2406446Y-1602587D01*
X2399792Y-1595628D01*
X2392019Y-1589887D01*
X2383383Y-1585518D01*
X2374188Y-1582724D01*
X2364638Y-1581454D01*
X2354986Y-1581912D01*
X2345537Y-1583944D01*
X2336596Y-1587500D01*
X2328367Y-1592580D01*
X2321153Y-1598930D01*
X2315057Y-1606448D01*
X2310384Y-1614881D01*
X2307183Y-1623974D01*
X2305558Y-1633474D01*
X2305558Y-1643125D01*
X2307183Y-1652625D01*
X2310384Y-1661718D01*
X2315057Y-1670151D01*
X2321153Y-1677670D01*
X2328367Y-1684020D01*
X2336596Y-1689100D01*
X2345537Y-1692656D01*
X2354986Y-1694688D01*
X2360472Y-1694942D01*
X2364130Y-1695805D01*
X2367229Y-1697888D01*
X2639364Y-1970024D01*
X2644394Y-1974189D01*
X2645867Y-1975662D01*
X2651353Y-1982470D01*
X2658567Y-1988820D01*
X2666796Y-1993900D01*
X2675737Y-1997456D01*
X2685186Y-1999488D01*
G37*
G36*
X4904638Y-1987245D02*
G01*
X4914188Y-1985975D01*
X4923383Y-1983181D01*
X4932019Y-1978812D01*
X4939792Y-1973072D01*
X4946446Y-1966112D01*
X4951831Y-1958136D01*
X4955844Y-1949348D01*
X4958232Y-1940001D01*
X4959096Y-1930400D01*
X4958232Y-1920798D01*
X4955844Y-1911451D01*
X4951831Y-1902663D01*
X4946446Y-1894687D01*
X4939792Y-1887728D01*
X4932019Y-1881987D01*
X4923383Y-1877618D01*
X4914188Y-1874824D01*
X4900523Y-1872894D01*
X4897018Y-1870608D01*
X4863033Y-1836623D01*
X4860747Y-1833118D01*
X4860036Y-1829054D01*
X4861052Y-1824989D01*
X4863592Y-1821738D01*
X4867249Y-1819706D01*
X4872583Y-1818081D01*
X4881219Y-1813712D01*
X4888992Y-1807972D01*
X4895646Y-1801012D01*
X4901031Y-1793036D01*
X4905044Y-1784248D01*
X4907432Y-1774901D01*
X4908296Y-1765300D01*
X4907432Y-1755698D01*
X4905044Y-1746351D01*
X4901031Y-1737563D01*
X4895646Y-1729587D01*
X4888992Y-1722628D01*
X4881219Y-1716887D01*
X4872583Y-1712518D01*
X4863388Y-1709724D01*
X4849723Y-1707794D01*
X4846218Y-1705508D01*
X4828235Y-1687575D01*
X4822037Y-1682445D01*
X4815332Y-1678889D01*
X4808118Y-1676704D01*
X4800092Y-1675892D01*
X4503521Y-1675892D01*
X4499559Y-1675079D01*
X4487519Y-1666087D01*
X4478883Y-1661718D01*
X4469688Y-1658924D01*
X4460138Y-1657654D01*
X4450486Y-1658112D01*
X4441037Y-1660143D01*
X4432096Y-1663700D01*
X4423867Y-1668780D01*
X4416653Y-1675130D01*
X4410557Y-1682648D01*
X4405884Y-1691081D01*
X4402683Y-1700174D01*
X4401058Y-1709674D01*
X4401058Y-1719325D01*
X4402683Y-1728825D01*
X4405884Y-1737918D01*
X4410557Y-1746351D01*
X4416653Y-1753870D01*
X4423867Y-1760220D01*
X4432096Y-1765300D01*
X4441037Y-1768856D01*
X4450486Y-1770888D01*
X4460138Y-1771345D01*
X4469688Y-1770075D01*
X4478883Y-1767281D01*
X4487519Y-1762912D01*
X4499559Y-1753920D01*
X4503521Y-1753107D01*
X4780381Y-1753107D01*
X4784293Y-1753870D01*
X4787595Y-1756105D01*
X4791760Y-1760270D01*
X4793945Y-1763572D01*
X4794758Y-1767433D01*
X4794758Y-1770125D01*
X4796383Y-1779625D01*
X4799584Y-1788718D01*
X4804257Y-1797151D01*
X4805832Y-1799031D01*
X4807610Y-1802384D01*
X4808067Y-1806143D01*
X4807102Y-1809800D01*
X4804816Y-1812848D01*
X4801616Y-1814880D01*
X4797907Y-1815592D01*
X3627221Y-1815592D01*
X3623259Y-1814779D01*
X3611219Y-1805787D01*
X3602583Y-1801418D01*
X3593388Y-1798624D01*
X3583838Y-1797354D01*
X3574186Y-1797812D01*
X3564737Y-1799843D01*
X3555796Y-1803400D01*
X3547567Y-1808480D01*
X3540353Y-1814830D01*
X3534257Y-1822348D01*
X3529584Y-1830781D01*
X3526383Y-1839874D01*
X3524758Y-1849374D01*
X3524758Y-1859025D01*
X3526383Y-1868525D01*
X3529584Y-1877618D01*
X3534257Y-1886051D01*
X3540353Y-1893570D01*
X3547567Y-1899920D01*
X3555796Y-1905000D01*
X3564737Y-1908556D01*
X3574186Y-1910588D01*
X3583838Y-1911045D01*
X3593388Y-1909775D01*
X3602583Y-1906981D01*
X3611219Y-1902612D01*
X3623259Y-1893620D01*
X3627221Y-1892807D01*
X4805781Y-1892807D01*
X4809693Y-1893570D01*
X4812995Y-1895805D01*
X4842560Y-1925370D01*
X4844745Y-1928672D01*
X4845558Y-1932533D01*
X4845558Y-1935225D01*
X4847183Y-1944725D01*
X4850384Y-1953818D01*
X4855057Y-1962251D01*
X4861153Y-1969770D01*
X4868367Y-1976120D01*
X4876596Y-1981200D01*
X4885537Y-1984756D01*
X4894986Y-1986788D01*
G37*
G36*
X503478Y-1814017D02*
G01*
X513334Y-1812747D01*
X522782Y-1809851D01*
X531622Y-1805381D01*
X539597Y-1799539D01*
X546404Y-1792376D01*
X551992Y-1784146D01*
X556056Y-1775155D01*
X558546Y-1765554D01*
X559409Y-1755698D01*
X558546Y-1745843D01*
X556056Y-1736242D01*
X551992Y-1727250D01*
X546404Y-1719021D01*
X536803Y-1708708D01*
X535584Y-1704695D01*
X536041Y-1700530D01*
X538175Y-1696923D01*
X541578Y-1694484D01*
X545693Y-1693621D01*
X598627Y-1693621D01*
X610514Y-1692757D01*
X621792Y-1690319D01*
X632561Y-1686255D01*
X642721Y-1680718D01*
X651967Y-1673809D01*
X660095Y-1665681D01*
X667004Y-1656435D01*
X672541Y-1646275D01*
X676605Y-1635455D01*
X679043Y-1624177D01*
X679856Y-1612696D01*
X679043Y-1601165D01*
X676605Y-1589887D01*
X672541Y-1579067D01*
X667004Y-1568958D01*
X660095Y-1559712D01*
X651967Y-1551584D01*
X642721Y-1544624D01*
X632561Y-1539138D01*
X621792Y-1535074D01*
X610514Y-1532636D01*
X598627Y-1531772D01*
X499364Y-1531772D01*
X487476Y-1532636D01*
X476199Y-1535074D01*
X465378Y-1539138D01*
X455269Y-1544624D01*
X446024Y-1551584D01*
X437845Y-1559712D01*
X430936Y-1568958D01*
X425399Y-1579067D01*
X421385Y-1589887D01*
X418947Y-1601165D01*
X418084Y-1612696D01*
X418947Y-1624177D01*
X421385Y-1635455D01*
X425399Y-1646275D01*
X430936Y-1656435D01*
X437845Y-1665681D01*
X446024Y-1673809D01*
X455269Y-1680718D01*
X465378Y-1686255D01*
X469239Y-1687677D01*
X472998Y-1690166D01*
X475335Y-1694027D01*
X475742Y-1698498D01*
X474218Y-1702714D01*
X471017Y-1705864D01*
X466293Y-1708759D01*
X458876Y-1715312D01*
X452678Y-1723034D01*
X447801Y-1731670D01*
X444550Y-1740966D01*
X442874Y-1750771D01*
X442874Y-1760626D01*
X444550Y-1770430D01*
X447801Y-1779727D01*
X452678Y-1788363D01*
X458876Y-1796084D01*
X466293Y-1802638D01*
X474726Y-1807819D01*
X483920Y-1811528D01*
X493623Y-1813610D01*
G37*
G36*
X5732424Y-1758086D02*
G01*
X5746902Y-1757172D01*
X5761228Y-1754479D01*
X5775045Y-1749958D01*
X5788253Y-1743760D01*
X5800496Y-1735988D01*
X5811723Y-1726692D01*
X5821680Y-1716074D01*
X5830265Y-1704289D01*
X5837275Y-1691538D01*
X5842609Y-1678025D01*
X5846216Y-1663903D01*
X5848045Y-1649475D01*
X5848045Y-1634947D01*
X5846216Y-1620520D01*
X5842609Y-1606397D01*
X5837275Y-1592884D01*
X5830265Y-1580134D01*
X5821680Y-1568348D01*
X5811723Y-1557731D01*
X5800496Y-1548434D01*
X5788253Y-1540662D01*
X5775045Y-1534464D01*
X5761228Y-1529943D01*
X5746902Y-1527251D01*
X5732424Y-1526336D01*
X5717895Y-1527251D01*
X5703570Y-1529943D01*
X5689752Y-1534464D01*
X5676595Y-1540662D01*
X5664301Y-1548434D01*
X5653074Y-1557731D01*
X5643118Y-1568348D01*
X5634532Y-1580134D01*
X5627522Y-1592884D01*
X5622188Y-1606397D01*
X5618581Y-1620520D01*
X5616752Y-1634947D01*
X5616752Y-1649475D01*
X5618581Y-1663903D01*
X5622188Y-1678025D01*
X5627522Y-1691538D01*
X5634532Y-1704289D01*
X5643118Y-1716074D01*
X5653074Y-1726692D01*
X5664301Y-1735988D01*
X5676595Y-1743760D01*
X5689752Y-1749958D01*
X5703570Y-1754479D01*
X5717895Y-1757172D01*
G37*
G36*
X4801260Y-1476298D02*
G01*
X4812690Y-1469999D01*
X4826457Y-1460195D01*
X4839106Y-1448917D01*
X4850384Y-1436268D01*
X4860188Y-1422501D01*
X4866487Y-1411071D01*
X4801260Y-1411071D01*
G37*
G36*
X4663541Y-1476298D02*
G01*
X4663541Y-1411071D01*
X4598314Y-1411071D01*
X4604613Y-1422501D01*
X4614418Y-1436268D01*
X4625695Y-1448917D01*
X4638344Y-1460195D01*
X4652111Y-1469999D01*
G37*
G36*
X3964838Y-1453845D02*
G01*
X3974388Y-1452575D01*
X3983583Y-1449781D01*
X3992219Y-1445412D01*
X3999992Y-1439672D01*
X4006646Y-1432712D01*
X4012031Y-1424736D01*
X4016044Y-1415948D01*
X4018432Y-1406601D01*
X4019296Y-1397000D01*
X4018432Y-1387398D01*
X4016044Y-1378051D01*
X4012031Y-1369263D01*
X4006646Y-1361287D01*
X4003852Y-1358341D01*
X4001719Y-1355090D01*
X4001008Y-1351280D01*
X4001008Y-985519D01*
X4001719Y-981710D01*
X4003852Y-978458D01*
X4006646Y-975512D01*
X4012031Y-967536D01*
X4016044Y-958748D01*
X4018432Y-949401D01*
X4019296Y-939800D01*
X4018432Y-930198D01*
X4016044Y-920851D01*
X4012031Y-912063D01*
X4006646Y-904087D01*
X3999992Y-897128D01*
X3992219Y-891387D01*
X3983583Y-887018D01*
X3974388Y-884224D01*
X3964838Y-882954D01*
X3955186Y-883412D01*
X3945737Y-885444D01*
X3936796Y-889000D01*
X3927652Y-894740D01*
X3923588Y-896162D01*
X3919321Y-895807D01*
X3915562Y-893724D01*
X3913022Y-890269D01*
X3912108Y-886104D01*
X3912108Y-850137D01*
X3913022Y-845972D01*
X3915562Y-842518D01*
X3928719Y-835812D01*
X3936492Y-830071D01*
X3943146Y-823112D01*
X3948531Y-815136D01*
X3952544Y-806348D01*
X3954932Y-797001D01*
X3955796Y-787400D01*
X3954932Y-777798D01*
X3952544Y-768451D01*
X3948531Y-759663D01*
X3943146Y-751687D01*
X3936492Y-744728D01*
X3928719Y-738987D01*
X3920083Y-734618D01*
X3910888Y-731824D01*
X3901338Y-730554D01*
X3891686Y-731012D01*
X3882237Y-733044D01*
X3873296Y-736600D01*
X3865067Y-741680D01*
X3857853Y-748030D01*
X3851757Y-755548D01*
X3847084Y-763981D01*
X3843883Y-773074D01*
X3842258Y-782574D01*
X3842258Y-787349D01*
X3841953Y-789838D01*
X3841038Y-792124D01*
X3837889Y-798068D01*
X3835704Y-805281D01*
X3834892Y-813308D01*
X3834892Y-1312926D01*
X3834333Y-1316329D01*
X3832656Y-1319326D01*
X3826357Y-1327048D01*
X3821684Y-1335481D01*
X3818483Y-1344574D01*
X3816858Y-1354074D01*
X3816858Y-1363726D01*
X3818483Y-1373225D01*
X3821684Y-1382318D01*
X3826357Y-1390751D01*
X3832453Y-1398270D01*
X3839667Y-1404620D01*
X3847896Y-1409700D01*
X3856837Y-1413256D01*
X3866286Y-1415288D01*
X3875938Y-1415745D01*
X3885488Y-1414475D01*
X3895242Y-1411376D01*
X3899408Y-1410309D01*
X3903624Y-1411020D01*
X3907129Y-1413459D01*
X3909415Y-1417066D01*
X3910584Y-1420418D01*
X3915257Y-1428851D01*
X3921353Y-1436370D01*
X3928567Y-1442720D01*
X3936796Y-1447800D01*
X3945737Y-1451356D01*
X3955186Y-1453388D01*
G37*
G36*
X637438Y-1339545D02*
G01*
X646988Y-1338275D01*
X656183Y-1335481D01*
X664819Y-1331112D01*
X672592Y-1325372D01*
X679246Y-1318412D01*
X684631Y-1310436D01*
X688644Y-1301648D01*
X691032Y-1292301D01*
X691896Y-1282700D01*
X691032Y-1273098D01*
X688644Y-1263751D01*
X684631Y-1254963D01*
X679246Y-1246987D01*
X672592Y-1240028D01*
X664819Y-1234287D01*
X656183Y-1229918D01*
X646988Y-1227124D01*
X644398Y-1226769D01*
X640892Y-1225651D01*
X638048Y-1223416D01*
X636168Y-1220266D01*
X635508Y-1216710D01*
X635508Y-1099820D01*
X636219Y-1096010D01*
X638352Y-1092758D01*
X641146Y-1089812D01*
X646531Y-1081836D01*
X650544Y-1073048D01*
X652932Y-1063701D01*
X653796Y-1054100D01*
X652932Y-1044498D01*
X650544Y-1035151D01*
X646531Y-1026363D01*
X641146Y-1018387D01*
X634492Y-1011428D01*
X626719Y-1005687D01*
X618083Y-1001318D01*
X608888Y-998524D01*
X599338Y-997254D01*
X589686Y-997712D01*
X580237Y-999744D01*
X571296Y-1003300D01*
X563067Y-1008380D01*
X555853Y-1014730D01*
X549757Y-1022248D01*
X545084Y-1030681D01*
X541883Y-1039774D01*
X540258Y-1049274D01*
X540258Y-1058926D01*
X541883Y-1068425D01*
X545084Y-1077518D01*
X549757Y-1085951D01*
X556056Y-1093673D01*
X557733Y-1096670D01*
X558292Y-1100074D01*
X558292Y-1244092D01*
X559104Y-1252118D01*
X561289Y-1259332D01*
X564845Y-1266037D01*
X569976Y-1272235D01*
X575360Y-1277670D01*
X577545Y-1280972D01*
X578358Y-1284833D01*
X578358Y-1287526D01*
X579983Y-1297025D01*
X583184Y-1306118D01*
X587857Y-1314551D01*
X593953Y-1322070D01*
X601167Y-1328420D01*
X609396Y-1333500D01*
X618337Y-1337056D01*
X627786Y-1339088D01*
G37*
G36*
X954938Y-1276045D02*
G01*
X964488Y-1274775D01*
X973683Y-1271981D01*
X982319Y-1267612D01*
X990092Y-1261872D01*
X996746Y-1254912D01*
X1002131Y-1246936D01*
X1006144Y-1238148D01*
X1008532Y-1228801D01*
X1009396Y-1219200D01*
X1008532Y-1209598D01*
X1006144Y-1200251D01*
X1002131Y-1191463D01*
X996746Y-1183487D01*
X990092Y-1176528D01*
X982319Y-1170787D01*
X973683Y-1166418D01*
X964488Y-1163624D01*
X950823Y-1161694D01*
X947318Y-1159408D01*
X928369Y-1140460D01*
X926592Y-1138021D01*
X925576Y-1135176D01*
X925474Y-1132179D01*
X926033Y-1127353D01*
X926033Y-828446D01*
X925271Y-822147D01*
X923391Y-816711D01*
X921969Y-814476D01*
X920546Y-810514D01*
X920750Y-807262D01*
X917498Y-807466D01*
X913536Y-805992D01*
X911301Y-804621D01*
X905865Y-802690D01*
X899515Y-801979D01*
X700684Y-801979D01*
X694334Y-802690D01*
X688898Y-804621D01*
X683971Y-807720D01*
X679907Y-811784D01*
X676808Y-816711D01*
X674928Y-822147D01*
X674217Y-828446D01*
X674217Y-1127353D01*
X674928Y-1133652D01*
X676808Y-1139088D01*
X679907Y-1144016D01*
X683971Y-1148080D01*
X688898Y-1151178D01*
X694334Y-1153109D01*
X700684Y-1153820D01*
X828294Y-1153820D01*
X832205Y-1154582D01*
X835507Y-1156766D01*
X892860Y-1214170D01*
X895045Y-1217472D01*
X895858Y-1221333D01*
X895858Y-1224026D01*
X897483Y-1233525D01*
X900684Y-1242618D01*
X905357Y-1251051D01*
X911453Y-1258570D01*
X918667Y-1264920D01*
X926896Y-1270000D01*
X935837Y-1273556D01*
X945286Y-1275588D01*
G37*
G36*
X4801260Y-1273352D02*
G01*
X4866487Y-1273352D01*
X4860188Y-1261922D01*
X4850384Y-1248156D01*
X4839106Y-1235506D01*
X4826457Y-1224229D01*
X4812690Y-1214424D01*
X4801260Y-1208125D01*
G37*
G36*
X4598314Y-1273352D02*
G01*
X4663541Y-1273352D01*
X4663541Y-1208125D01*
X4652111Y-1214424D01*
X4638344Y-1224229D01*
X4625695Y-1235506D01*
X4614418Y-1248156D01*
X4604613Y-1261922D01*
G37*
G36*
X2351938Y-1187145D02*
G01*
X2361488Y-1185875D01*
X2370683Y-1183081D01*
X2379319Y-1178712D01*
X2387092Y-1172972D01*
X2393746Y-1166012D01*
X2399131Y-1158036D01*
X2403144Y-1149248D01*
X2405532Y-1139901D01*
X2406396Y-1130300D01*
X2405532Y-1120698D01*
X2403144Y-1111351D01*
X2399131Y-1102563D01*
X2393746Y-1094587D01*
X2387092Y-1087628D01*
X2379319Y-1081887D01*
X2370683Y-1077518D01*
X2361488Y-1074724D01*
X2351938Y-1073454D01*
X2342286Y-1073912D01*
X2332837Y-1075944D01*
X2323896Y-1079500D01*
X2315667Y-1084580D01*
X2310485Y-1089152D01*
X2307336Y-1091031D01*
X2303780Y-1091692D01*
X2166518Y-1091692D01*
X2162606Y-1090930D01*
X2159304Y-1088694D01*
X2053589Y-983030D01*
X2051557Y-980084D01*
X2050643Y-976680D01*
X2049932Y-968298D01*
X2047544Y-958951D01*
X2043531Y-950163D01*
X2038146Y-942187D01*
X2031492Y-935228D01*
X2023719Y-929487D01*
X2015083Y-925118D01*
X2005888Y-922324D01*
X1996338Y-921054D01*
X1986686Y-921512D01*
X1977237Y-923544D01*
X1968296Y-927100D01*
X1960067Y-932180D01*
X1952853Y-938530D01*
X1946757Y-946048D01*
X1942084Y-954481D01*
X1938883Y-963574D01*
X1937257Y-973074D01*
X1937257Y-982726D01*
X1938883Y-992225D01*
X1942084Y-1001318D01*
X1946757Y-1009751D01*
X1952853Y-1017269D01*
X1960067Y-1023619D01*
X1968296Y-1028700D01*
X1977237Y-1032256D01*
X1986686Y-1034287D01*
X1992172Y-1034542D01*
X1995830Y-1035405D01*
X1998929Y-1037488D01*
X2118664Y-1157224D01*
X2124862Y-1162354D01*
X2131568Y-1165910D01*
X2138781Y-1168095D01*
X2146808Y-1168908D01*
X2303780Y-1168908D01*
X2307336Y-1169568D01*
X2310485Y-1171448D01*
X2315667Y-1176020D01*
X2323896Y-1181100D01*
X2332837Y-1184656D01*
X2342286Y-1186688D01*
G37*
G36*
X4732426Y-993089D02*
G01*
X4749292Y-992174D01*
X4765954Y-989330D01*
X4782261Y-984656D01*
X4797856Y-978153D01*
X4812690Y-969975D01*
X4826457Y-960170D01*
X4839106Y-948893D01*
X4850384Y-936294D01*
X4860188Y-922477D01*
X4868367Y-907694D01*
X4874818Y-892048D01*
X4879492Y-875792D01*
X4882337Y-859129D01*
X4883302Y-842213D01*
X4882337Y-825296D01*
X4879492Y-808634D01*
X4874818Y-792378D01*
X4868367Y-776732D01*
X4860188Y-761949D01*
X4850384Y-748131D01*
X4839106Y-735533D01*
X4826457Y-724255D01*
X4812690Y-714451D01*
X4797856Y-706272D01*
X4782261Y-699770D01*
X4765954Y-695096D01*
X4749292Y-692251D01*
X4732426Y-691337D01*
X4715510Y-692251D01*
X4698847Y-695096D01*
X4682540Y-699770D01*
X4666945Y-706272D01*
X4652111Y-714451D01*
X4638344Y-724255D01*
X4625695Y-735533D01*
X4614418Y-748131D01*
X4604613Y-761949D01*
X4596434Y-776732D01*
X4589983Y-792378D01*
X4585309Y-808634D01*
X4582464Y-825296D01*
X4581499Y-842213D01*
X4582464Y-859129D01*
X4585309Y-875792D01*
X4589983Y-892048D01*
X4596434Y-907694D01*
X4604613Y-922477D01*
X4614418Y-936294D01*
X4625695Y-948893D01*
X4638344Y-960170D01*
X4652111Y-969975D01*
X4666945Y-978153D01*
X4682540Y-984656D01*
X4698847Y-989330D01*
X4715510Y-992174D01*
G37*
G36*
X4383938Y-691845D02*
G01*
X4393488Y-690575D01*
X4402683Y-687781D01*
X4411319Y-683412D01*
X4419092Y-677672D01*
X4425746Y-670712D01*
X4431131Y-662736D01*
X4435144Y-653948D01*
X4437532Y-644601D01*
X4438243Y-636219D01*
X4439158Y-632815D01*
X4441190Y-629869D01*
X4535424Y-535635D01*
X4540554Y-529437D01*
X4544110Y-522732D01*
X4546295Y-515518D01*
X4547108Y-507492D01*
X4547108Y-236220D01*
X4547819Y-232410D01*
X4549952Y-229158D01*
X4552746Y-226212D01*
X4558131Y-218236D01*
X4562144Y-209448D01*
X4564532Y-200101D01*
X4565396Y-190500D01*
X4564532Y-180898D01*
X4562144Y-171551D01*
X4558131Y-162763D01*
X4552746Y-154787D01*
X4546092Y-147828D01*
X4538319Y-142087D01*
X4529683Y-137718D01*
X4520488Y-134924D01*
X4510938Y-133654D01*
X4501286Y-134112D01*
X4491837Y-136144D01*
X4482896Y-139700D01*
X4474667Y-144780D01*
X4467453Y-151130D01*
X4461357Y-158648D01*
X4456684Y-167081D01*
X4453483Y-176174D01*
X4451858Y-185674D01*
X4451858Y-195326D01*
X4453483Y-204825D01*
X4456684Y-213918D01*
X4461357Y-222351D01*
X4467656Y-230073D01*
X4469333Y-233070D01*
X4469892Y-236474D01*
X4469892Y-487781D01*
X4469130Y-491693D01*
X4466894Y-494995D01*
X4386529Y-575411D01*
X4383430Y-577494D01*
X4379772Y-578358D01*
X4374286Y-578612D01*
X4364837Y-580644D01*
X4355896Y-584200D01*
X4347667Y-589280D01*
X4340453Y-595630D01*
X4334357Y-603148D01*
X4329684Y-611581D01*
X4326483Y-620674D01*
X4324858Y-630174D01*
X4324858Y-639826D01*
X4326483Y-649325D01*
X4329684Y-658418D01*
X4334357Y-666851D01*
X4340453Y-674370D01*
X4347667Y-680720D01*
X4355896Y-685800D01*
X4364837Y-689356D01*
X4374286Y-691388D01*
G37*
G36*
X5732424Y-658114D02*
G01*
X5746902Y-657199D01*
X5761228Y-654456D01*
X5775045Y-649986D01*
X5788253Y-643788D01*
X5800496Y-635965D01*
X5811723Y-626668D01*
X5821680Y-616102D01*
X5830265Y-604316D01*
X5837275Y-591566D01*
X5842609Y-578002D01*
X5846216Y-563930D01*
X5848045Y-549503D01*
X5848045Y-534924D01*
X5846216Y-520496D01*
X5842609Y-506425D01*
X5837275Y-492861D01*
X5830265Y-480110D01*
X5821680Y-468325D01*
X5811723Y-457758D01*
X5800496Y-448462D01*
X5788253Y-440639D01*
X5775045Y-434441D01*
X5761228Y-429971D01*
X5746902Y-427228D01*
X5732424Y-426313D01*
X5717895Y-427228D01*
X5703570Y-429971D01*
X5689752Y-434441D01*
X5676595Y-440639D01*
X5664301Y-448462D01*
X5653074Y-457758D01*
X5643118Y-468325D01*
X5634532Y-480110D01*
X5627522Y-492861D01*
X5622188Y-506425D01*
X5618581Y-520496D01*
X5616752Y-534924D01*
X5616752Y-549503D01*
X5618581Y-563930D01*
X5622188Y-578002D01*
X5627522Y-591566D01*
X5634532Y-604316D01*
X5643118Y-616102D01*
X5653074Y-626668D01*
X5664301Y-635965D01*
X5676595Y-643788D01*
X5689752Y-649986D01*
X5703570Y-654456D01*
X5717895Y-657199D01*
G37*
G36*
X5750001Y-400913D02*
G01*
X5766917Y-399948D01*
X5783580Y-397103D01*
X5799836Y-392430D01*
X5815482Y-385978D01*
X5830265Y-377799D01*
X5844082Y-367995D01*
X5856681Y-356717D01*
X5867958Y-344068D01*
X5877763Y-330301D01*
X5885942Y-315468D01*
X5892444Y-299872D01*
X5897118Y-283565D01*
X5899962Y-266903D01*
X5900877Y-250037D01*
X5899962Y-233121D01*
X5897118Y-216458D01*
X5892444Y-200152D01*
X5885942Y-184556D01*
X5877763Y-169722D01*
X5867958Y-155956D01*
X5856681Y-143306D01*
X5844082Y-132029D01*
X5830265Y-122224D01*
X5815482Y-114046D01*
X5799836Y-107594D01*
X5783580Y-102920D01*
X5766917Y-100076D01*
X5750001Y-99110D01*
X5733084Y-100076D01*
X5716422Y-102920D01*
X5700166Y-107594D01*
X5684520Y-114046D01*
X5669737Y-122224D01*
X5655919Y-132029D01*
X5643321Y-143306D01*
X5632043Y-155956D01*
X5622239Y-169722D01*
X5614060Y-184556D01*
X5607558Y-200152D01*
X5602884Y-216458D01*
X5600039Y-233121D01*
X5599125Y-250037D01*
X5600039Y-266903D01*
X5602884Y-283565D01*
X5607558Y-299872D01*
X5614060Y-315468D01*
X5622239Y-330301D01*
X5632043Y-344068D01*
X5643321Y-356717D01*
X5655919Y-367995D01*
X5669737Y-377799D01*
X5684520Y-385978D01*
X5700166Y-392430D01*
X5716422Y-397103D01*
X5733084Y-399948D01*
G37*
G36*
X250037Y-400913D02*
G01*
X266903Y-399948D01*
X283565Y-397103D01*
X299872Y-392430D01*
X315468Y-385978D01*
X330301Y-377799D01*
X344068Y-367995D01*
X356717Y-356717D01*
X367995Y-344068D01*
X377799Y-330301D01*
X385978Y-315468D01*
X392430Y-299872D01*
X397103Y-283565D01*
X399948Y-266903D01*
X400913Y-250037D01*
X399948Y-233121D01*
X397103Y-216458D01*
X392430Y-200152D01*
X385978Y-184556D01*
X377799Y-169722D01*
X367995Y-155956D01*
X356717Y-143306D01*
X344068Y-132029D01*
X330301Y-122224D01*
X315468Y-114046D01*
X299872Y-107594D01*
X283565Y-102920D01*
X266903Y-100076D01*
X250037Y-99110D01*
X233121Y-100076D01*
X216458Y-102920D01*
X200152Y-107594D01*
X184556Y-114046D01*
X169722Y-122224D01*
X155956Y-132029D01*
X143306Y-143306D01*
X132029Y-155956D01*
X122224Y-169722D01*
X114046Y-184556D01*
X107594Y-200152D01*
X102920Y-216458D01*
X100076Y-233121D01*
X99110Y-250037D01*
X100076Y-266903D01*
X102920Y-283565D01*
X107594Y-299872D01*
X114046Y-315468D01*
X122224Y-330301D01*
X132029Y-344068D01*
X143306Y-356717D01*
X155956Y-367995D01*
X169722Y-377799D01*
X184556Y-385978D01*
X200152Y-392430D01*
X216458Y-397103D01*
X233121Y-399948D01*
G37*

%LPD*%
D10*
X2730500Y-406400D02*
G01*
X2590800Y-266700D01*
X1562100Y-266700D01*
X3086100Y-1816100D02*
G01*
X2730500Y-1460500D01*
X2730500Y-1320800D01*
X3200400Y-2806700D02*
G01*
X3136900Y-2870200D01*
X3136900Y-3086100D01*
X2857500Y-1460500D02*
G01*
X3086100Y-1689100D01*
X2146300Y-2197100D02*
G01*
X2146300Y-2654300D01*
X2057400Y-1435100D02*
G01*
X2095500Y-1473200D01*
X2095500Y-1600200D01*
X2273300Y-1778000D01*
X2273300Y-1981200D01*
D11*
X622300Y-444500D02*
G01*
X622300Y-190500D01*
D10*
X2362200Y-1638300D02*
G01*
X2667000Y-1943100D01*
X2692400Y-1943100D01*
X1993900Y-977900D02*
G01*
X2146300Y-1130300D01*
X2349500Y-1130300D01*
X1473200Y-419100D02*
G01*
X1879600Y-419100D01*
D12*
X3454400Y-1616786D02*
G01*
X3403600Y-1667586D01*
X3403600Y-2057400D01*
D10*
X4851400Y-1765300D02*
G01*
X4800600Y-1714500D01*
X4787900Y-1714500D01*
X4457700Y-1714500D01*
X3962400Y-1397000D02*
G01*
X3962400Y-1384300D01*
X3962400Y-939800D01*
X3898900Y-787400D02*
G01*
X3873500Y-812800D01*
X3873500Y-1358900D01*
X2832100Y-571500D02*
G01*
X2806700Y-546100D01*
X1143000Y-546100D01*
X4902200Y-1930400D02*
G01*
X4826000Y-1854200D01*
X3581400Y-1854200D01*
D11*
X5435600Y-2362200D02*
G01*
X5257800Y-2540000D01*
X4483100Y-2540000D01*
X5435600Y-2362200D02*
G01*
X5664200Y-2133600D01*
X5664200Y-1955800D01*
D10*
X4381500Y-635000D02*
G01*
X4508500Y-508000D01*
X4508500Y-190500D01*
X1104900Y-1384300D02*
G01*
X1104900Y-2362200D01*
X1016000Y-1498600D02*
G01*
X1016000Y-2451100D01*
X1917700Y-1778000D02*
G01*
X2298700Y-2159000D01*
X2298700Y-2349500D01*
X2146300Y-1879600D02*
G01*
X2006600Y-1739900D01*
X2006600Y-1612900D01*
X635000Y-1282700D02*
G01*
X596900Y-1244600D01*
X596900Y-1054100D01*
X1676400Y-2044700D02*
G01*
X1574800Y-2146300D01*
X1524000Y-2146300D01*
X1562100Y-266700D02*
G01*
X1409700Y-266700D01*
X1371600Y-228600D01*
X1524000Y-228600D01*
X1562100Y-266700D01*
X1003300Y-901700D02*
G01*
X1016000Y-901700D01*
X1054100Y-863600D01*
X800100Y-609600D01*
X952500Y-1219200D02*
G01*
X800100Y-1066800D01*
X800100Y-977900D01*
X1079500Y-215900D02*
G01*
X1079500Y-406400D01*
X800100Y-215900D02*
G01*
X939800Y-355600D01*
X939800Y-457200D01*
X1028700Y-546100D01*
X1143000Y-546100D01*
X3708400Y-203200D02*
G01*
X3708400Y-609600D01*
X2857500Y-1460500D01*
X2781300Y-482600D02*
G01*
X3124200Y-482600D01*
X3441700Y-546100D02*
G01*
X3429000Y-533400D01*
X3429000Y-203200D01*
X3149600Y-203200D02*
G01*
X3149600Y-381000D01*
X3213100Y-444500D01*
X3213100Y-520700D01*
X3048000Y-685800D01*
X2819400Y-685800D01*
X2743200Y-609600D01*
X2743200Y-609600D02*
G01*
X2641600Y-711200D01*
X1155700Y-711200D01*
X1155700Y-762000D01*
X4939436Y-2984500D02*
G01*
X5118963Y-2984500D01*
X5269636Y-2984500D02*
G01*
X5207000Y-3047136D01*
X5207000Y-3289300D01*
X4788763Y-2984500D02*
G01*
X4838700Y-3034436D01*
X4838700Y-3289300D01*
X4788763Y-2984500D02*
G01*
X4623663Y-3149600D01*
X4372609Y-3149600D01*
X4372609Y-3022600D02*
G01*
X4546600Y-3022600D01*
X4699000Y-2870200D01*
X5155336Y-2870200D01*
X5269636Y-2984500D01*
X3831590Y-3022600D02*
G01*
X3869690Y-3060700D01*
X4089400Y-3060700D01*
X3124200Y-2362200D02*
G01*
X3136900Y-2374900D01*
X3136900Y-2387600D01*
X2222500Y-3124200D02*
G01*
X2298700Y-3200400D01*
X3175000Y-3200400D01*
X3378200Y-2997200D01*
X3378200Y-2514600D01*
X3073400Y-2209800D01*
X3136900Y-2387600D02*
G01*
X3289300Y-2540000D01*
X3289300Y-2552700D01*
X3327400Y-2311400D02*
G01*
X3467100Y-2311400D01*
X4089400Y-2895600D01*
X4127500Y-2895600D01*
X4372609Y-2895600D01*
X3831590Y-3276600D02*
G01*
X2159000Y-3276600D01*
X2146300Y-3263900D01*
X2146300Y-2654300D01*
X3831590Y-2895600D02*
G01*
X3479800Y-2895600D01*
X3346343Y-3029056D01*
D13*
G01*
X4939424Y-2984500D03*
G01*
X4788775Y-2984500D03*
G01*
X5269624Y-2984500D03*
G01*
X5118975Y-2984500D03*
D14*
G01*
X3429000Y-203200D03*
G01*
X1358900Y-215900D03*
G01*
X800100Y-215900D03*
G01*
X800100Y-596900D03*
G01*
X3708400Y-203200D03*
D15*
G01*
X3831590Y-3276600D03*
G01*
X3831590Y-3149600D03*
G01*
X3831590Y-3022600D03*
G01*
X3831590Y-2895600D03*
G01*
X4372609Y-3276600D03*
G01*
X4372609Y-3149600D03*
G01*
X4372609Y-3022600D03*
G01*
X4372609Y-2895600D03*
D14*
G01*
X1079500Y-215900D03*
G01*
X3149600Y-203200D03*
G01*
X800100Y-977900D03*
G01*
X4838700Y-3289300D03*
G01*
X5207000Y-3289300D03*
D16*
G01*
X4732400Y-1342212D03*
G01*
X4732400Y-842213D03*
D17*
G01*
X5732399Y-542213D03*
G01*
X5732399Y-1642211D03*
D18*
G01*
X548995Y-1612696D03*
G01*
X548995Y-2476703D03*
D19*
G01*
X130987Y-2476703D03*
G01*
X130987Y-1612696D03*
D20*
G01*
X1676400Y-2044700D03*
G01*
X1524000Y-2146300D03*
G01*
X635000Y-1282700D03*
G01*
X596900Y-1054100D03*
G01*
X2146300Y-1879600D03*
G01*
X2006600Y-1612900D03*
G01*
X1917700Y-1778000D03*
G01*
X2298700Y-2349500D03*
G01*
X1016000Y-1498600D03*
G01*
X1016000Y-2451100D03*
G01*
X1104900Y-1384300D03*
G01*
X1104900Y-2362200D03*
G01*
X4381500Y-635000D03*
G01*
X4508500Y-190500D03*
G01*
X5435600Y-2362200D03*
G01*
X5664200Y-1955800D03*
G01*
X4483100Y-2540000D03*
G01*
X2743200Y-609600D03*
G01*
X1155700Y-762000D03*
G01*
X4902200Y-1930400D03*
G01*
X3581400Y-1854200D03*
G01*
X2832100Y-571500D03*
G01*
X1143000Y-546100D03*
G01*
X3898900Y-787400D03*
G01*
X3873500Y-1358900D03*
G01*
X3962400Y-1397000D03*
G01*
X3962400Y-939800D03*
G01*
X4787900Y-520700D03*
G01*
X4864100Y-520700D03*
G01*
X4851400Y-1765300D03*
G01*
X4457700Y-1714500D03*
G01*
X3454400Y-1616786D03*
G01*
X3403600Y-2057400D03*
G01*
X4597400Y-1079500D03*
G01*
X4648200Y-1130300D03*
G01*
X3568700Y-1562100D03*
G01*
X3035300Y-2476500D03*
G01*
X3098800Y-2476500D03*
G01*
X2870200Y-1854200D03*
G01*
X2425700Y-2057400D03*
G01*
X1765300Y-1917700D03*
G01*
X1485900Y-2057400D03*
G01*
X927100Y-2324100D03*
G01*
X914400Y-1866900D03*
G01*
X698500Y-1701800D03*
G01*
X698500Y-2374900D03*
G01*
X711200Y-1460500D03*
G01*
X774700Y-1460500D03*
G01*
X152400Y-1485900D03*
G01*
X101600Y-1168400D03*
G01*
X114300Y-990600D03*
G01*
X101600Y-635000D03*
G01*
X1663700Y-965200D03*
G01*
X1778000Y-965200D03*
G01*
X1879600Y-965200D03*
G01*
X2692400Y-1943100D03*
G01*
X1473200Y-419100D03*
G01*
X1879600Y-419100D03*
G01*
X1993900Y-977900D03*
G01*
X2349500Y-1130300D03*
G01*
X2362200Y-1638300D03*
G01*
X1346200Y-2844800D03*
G01*
X622300Y-444500D03*
G01*
X622300Y-190500D03*
G01*
X2057400Y-1435100D03*
G01*
X2273300Y-1981200D03*
G01*
X2146300Y-2197100D03*
G01*
X2146300Y-2654300D03*
G01*
X2857500Y-1460500D03*
G01*
X3086100Y-1689100D03*
G01*
X3200400Y-2806700D03*
G01*
X3136900Y-3086100D03*
G01*
X2222500Y-3124200D03*
G01*
X3073400Y-2209800D03*
G01*
X3086100Y-1816100D03*
G01*
X2730500Y-1320800D03*
G01*
X2730500Y-406400D03*
G01*
X1562100Y-266700D03*
G01*
X1003300Y-901700D03*
G01*
X952500Y-1219200D03*
G01*
X1079500Y-406400D03*
G01*
X2781300Y-482600D03*
G01*
X3124200Y-482600D03*
G01*
X3441700Y-546100D03*
G01*
X1663700Y-152400D03*
G01*
X2057400Y-419100D03*
G01*
X2159000Y-812800D03*
G01*
X2082800Y-622300D03*
G01*
X2349500Y-622300D03*
G01*
X1282700Y-622300D03*
G01*
X1612900Y-342900D03*
G01*
X431800Y-2844800D03*
G01*
X4089400Y-3060700D03*
G01*
X3124200Y-2362200D03*
G01*
X3289300Y-2552700D03*
G01*
X3327400Y-2311400D03*
G01*
X4254881Y-2212365D03*
G01*
X4953000Y-2235200D03*
M02*
